<?xml version="1.0" standalone="no"?>
<!DOCTYPE svg PUBLIC "-//W3C//DTD SVG 20010904//EN"
 "http://www.w3.org/TR/2001/REC-SVG-20010904/DTD/svg10.dtd">
<svg version="1.0" xmlns="http://www.w3.org/2000/svg"
 width="524.000000pt" height="496.000000pt" viewBox="0 0 524.000000 496.000000"
 preserveAspectRatio="xMidYMid meet">

<g transform="translate(0.000000,496.000000) scale(0.100000,-0.100000)"
fill="#000000" stroke="none">
<path d="M13 4953 c-10 -3 -13 -48 -13 -176 0 -133 3 -168 12 -159 17 17 48
15 48 -3 0 -8 12 -18 28 -21 15 -4 29 -10 32 -13 11 -13 52 -32 58 -27 3 3 0
6 -6 6 -7 0 -12 5 -12 10 0 16 22 12 36 -7 9 -11 17 -14 21 -8 5 6 19 16 31
23 21 11 27 11 43 -4 15 -13 30 -15 76 -10 102 11 123 20 116 47 -4 14 -1 18
10 13 22 -8 28 8 11 31 -13 17 -16 18 -24 5 -8 -13 -10 -13 -10 2 0 9 5 20 11
23 6 4 8 12 6 19 -6 14 51 9 70 -6 7 -6 14 -4 20 7 8 14 12 14 39 0 25 -13 29
-13 32 0 2 7 10 11 18 8 8 -3 14 -1 14 4 0 5 -13 14 -30 20 -16 6 -30 16 -30
23 0 6 4 8 10 5 5 -3 25 -3 43 0 24 5 33 12 34 27 3 33 27 43 31 13 3 -22 5
-23 18 -10 9 8 20 13 25 10 13 -9 69 23 69 39 0 8 -6 17 -12 20 -7 3 -4 4 8 1
28 -7 46 16 48 60 1 37 -3 42 -21 24 -8 -8 -13 -8 -17 0 -13 20 -35 12 -42
-15 -4 -17 -11 -23 -21 -20 -8 3 -18 6 -23 6 -4 0 -7 8 -6 18 1 15 -13 17
-147 20 -111 2 -147 0 -141 -9 5 -9 -2 -10 -27 -4 -19 4 -101 9 -184 10 -82 2
-140 1 -128 -2 14 -3 21 -11 20 -24 -1 -18 -17 -28 -17 -11 0 4 -13 15 -29 25
-22 13 -30 14 -34 5 -4 -10 -6 -10 -6 0 -1 12 -34 15 -58 5z m397 -43 c0 -5
-2 -10 -4 -10 -3 0 -8 5 -11 10 -3 6 -1 10 4 10 6 0 11 -4 11 -10z m403 -63
c-15 -31 -56 -26 -72 9 -15 33 -15 33 19 29 18 -3 30 0 30 8 0 6 7 4 17 -5 13
-14 14 -22 6 -41z m-351 6 l-6 -28 -6 25 c-7 27 -3 43 9 35 5 -2 6 -17 3 -32z
m-262 -32 c0 -21 -30 -51 -51 -51 -21 0 -69 55 -69 78 0 15 2 15 10 2 9 -13
11 -13 19 -1 8 13 12 13 26 1 15 -12 18 -12 27 4 9 17 10 17 24 -1 7 -10 14
-24 14 -32z m400 29 c0 -5 -5 -10 -11 -10 -5 0 -7 5 -4 10 3 6 8 10 11 10 2 0
4 -4 4 -10z m-316 -16 c9 -24 7 -28 -9 -14 -17 14 -20 30 -6 30 5 0 12 -7 15
-16z m99 -18 c3 -8 22 -22 41 -31 20 -10 33 -21 30 -26 -5 -9 -65 27 -72 42
-1 3 -18 4 -37 2 -19 -2 -37 2 -41 8 -5 9 0 10 14 7 12 -4 22 -2 22 3 0 15 37
10 43 -5z m201 -32 c20 -20 20 -34 1 -34 -8 0 -15 -7 -15 -16 0 -8 -5 -12 -10
-9 -6 4 -8 9 -6 13 2 4 -14 7 -35 6 -22 0 -43 4 -46 9 -4 6 6 8 25 4 24 -5 32
-3 32 8 0 9 6 12 15 9 9 -4 15 0 15 10 0 20 4 20 24 0z m-464 -14 c0 -5 -2
-10 -4 -10 -3 0 -8 5 -11 10 -3 6 -1 10 4 10 6 0 11 -4 11 -10z m-30 -15 c7
-9 8 -15 2 -15 -5 0 -12 7 -16 15 -3 8 -4 15 -2 15 2 0 9 -7 16 -15z m295 -11
c0 -27 -41 -31 -54 -6 -13 24 -6 31 27 28 19 -2 27 -9 27 -22z m-204 -28 c8 4
9 3 5 -4 -4 -7 -14 -12 -22 -12 -11 0 -13 -6 -9 -19 3 -11 2 -22 -3 -25 -10
-6 -23 53 -15 67 3 4 11 3 18 -3 8 -7 20 -8 26 -4z m149 -7 c0 -6 -4 -7 -10
-4 -5 3 -10 11 -10 16 0 6 5 7 10 4 6 -3 10 -11 10 -16z m33 -35 c-4 -12 -8
-13 -14 -3 -9 15 -2 32 11 24 5 -3 6 -13 3 -21z m-186 -31 c-3 -10 -5 -4 -5
12 0 17 2 24 5 18 2 -7 2 -21 0 -30z m-50 -5 c-3 -7 -5 -2 -5 12 0 14 2 19 5
13 2 -7 2 -19 0 -25z"/>
<path d="M1070 4933 c-17 -49 -26 -58 -66 -64 -48 -8 -52 -6 -75 45 -18 40
-19 40 -19 11 1 -18 11 -43 28 -62 21 -26 36 -33 70 -35 30 -2 41 -7 37 -16
-3 -8 -5 -29 -5 -48 0 -19 -5 -34 -11 -34 -8 0 -10 12 -6 35 3 19 2 35 -4 35
-5 0 -9 -11 -9 -25 0 -14 -4 -25 -10 -25 -5 0 -10 9 -10 19 0 11 -3 22 -8 25
-4 2 -6 -14 -4 -36 3 -28 1 -39 -7 -34 -6 4 -11 18 -11 32 0 13 -6 24 -12 24
-10 0 -10 2 0 8 10 7 9 15 -4 40 -15 32 -39 46 -28 17 4 -8 1 -15 -5 -15 -6 0
-11 -5 -11 -11 0 -20 -33 -38 -67 -39 -21 0 -33 -5 -33 -13 0 -9 10 -13 28
-12 24 1 28 -3 30 -26 1 -15 -2 -30 -7 -33 -5 -3 -7 4 -4 16 5 22 5 22 -9 4
-10 -13 -23 -17 -41 -14 -15 3 -27 1 -27 -4 0 -5 -5 -6 -11 -2 -8 4 -7 9 2 16
11 7 11 11 2 15 -7 2 -13 11 -13 19 0 8 -4 14 -9 14 -12 0 -24 -37 -16 -50 3
-5 -3 -10 -13 -10 -11 0 -26 -8 -33 -17 -8 -10 -9 -14 -2 -10 6 4 15 3 18 -3
5 -8 11 -8 19 -1 15 13 26 4 26 -20 0 -15 -19 -29 -39 -29 -4 0 -18 9 -31 20
-13 11 -26 20 -29 20 -3 0 -23 -15 -43 -34 -20 -19 -39 -31 -42 -28 -3 3 -6 0
-6 -6 0 -6 -17 -16 -37 -23 -36 -12 -37 -13 -13 -19 14 -4 30 -3 36 2 20 14
36 -16 24 -46 -11 -29 -56 -37 -66 -11 -4 8 -10 15 -15 15 -5 0 -2 -11 7 -25
12 -18 25 -25 48 -25 28 -1 29 -2 14 -14 -10 -7 -16 -15 -14 -17 2 -2 -2 -10
-10 -17 -12 -11 -14 -9 -14 7 0 11 -11 33 -25 49 -14 17 -25 34 -25 38 0 5
-28 9 -63 9 -34 0 -66 3 -72 6 -5 4 -20 10 -32 13 -19 6 -23 3 -23 -13 0 -12
-5 -21 -11 -21 -6 0 -9 9 -6 20 6 24 -8 27 -17 3 -4 -9 0 -23 9 -32 13 -13 17
-13 35 7 l20 21 25 -25 c14 -14 25 -36 25 -49 0 -31 -46 -86 -66 -78 -12 4
-15 1 -13 -12 2 -10 10 -20 18 -23 8 -3 11 0 7 7 -4 6 -4 11 1 10 22 -4 31 4
48 40 10 24 16 55 13 80 -3 36 -2 39 13 25 8 -7 22 -14 30 -14 23 0 59 -30 70
-57 14 -39 4 -38 -19 0 -12 21 -30 36 -46 39 -24 5 -26 2 -26 -29 0 -25 -10
-44 -41 -78 -23 -25 -48 -45 -56 -45 -8 0 -13 -6 -12 -12 3 -27 -1 -48 -10
-48 -6 0 -12 15 -14 33 -3 27 -4 25 -5 -12 -2 -54 -11 -49 -18 10 -3 26 -15
54 -28 69 -48 51 -60 115 -31 157 13 19 13 21 -8 27 -37 10 -43 7 -56 -21 -7
-15 -15 -23 -19 -17 -4 5 -24 9 -44 9 l-38 0 0 -327 c0 -350 -2 -338 45 -328
5 1 17 2 25 2 8 0 313 -1 677 -2 364 0 673 2 686 5 15 4 28 18 36 41 7 19 16
32 21 29 5 -3 9 9 9 27 0 52 4 68 16 68 7 0 17 11 23 25 7 14 8 25 2 25 -5 0
-7 7 -4 15 4 8 2 15 -4 15 -5 0 -7 11 -4 25 2 14 9 25 14 25 5 0 2 7 -6 16 -9
8 -20 12 -26 9 -5 -3 -10 -2 -10 4 0 5 5 13 11 16 6 5 2 13 -11 22 -15 10 -18
19 -11 26 6 6 5 17 -6 33 -8 13 -11 24 -5 24 11 0 42 -44 42 -60 0 -6 -5 -8
-12 -4 -7 5 -8 3 -3 -5 4 -7 18 -11 31 -8 17 3 21 1 15 -7 -6 -8 0 -12 20 -13
20 -2 29 2 29 12 0 20 8 19 50 -5 l35 -21 -35 31 c-21 18 -29 30 -20 31 40 2
100 0 107 -4 4 -3 9 6 9 19 2 20 -7 29 -46 49 -52 27 -74 56 -37 50 56 -8 87
-19 102 -35 19 -21 45 -16 45 9 1 11 5 8 15 -10 7 -14 24 -30 38 -36 22 -10
24 -9 19 14 -4 23 -2 25 21 19 14 -3 32 -9 41 -12 14 -5 15 -2 6 21 -14 37 -7
42 14 10 9 -14 33 -33 53 -43 20 -9 53 -34 74 -54 43 -42 49 -45 49 -22 0 12
5 10 20 -9 11 -14 20 -29 20 -34 0 -4 9 -19 19 -32 27 -35 34 -10 11 40 -23
53 -25 100 -5 138 16 32 9 43 -35 55 -14 4 -66 27 -116 52 -92 45 -130 77
-238 209 -29 35 -41 43 -47 33 -12 -18 -11 -51 1 -43 5 3 9 -9 8 -29 -1 -19 5
-42 12 -51 7 -8 8 -15 2 -15 -5 0 -12 -17 -14 -37 -3 -21 -9 -47 -13 -58 -8
-18 -7 -19 8 -6 20 16 21 9 5 -36 -12 -34 -42 -48 -32 -15 5 16 5 16 -9 0 -20
-25 -30 -22 -16 5 12 21 11 21 -8 5 -11 -10 -23 -18 -26 -18 -4 0 -7 8 -7 18
0 10 -3 13 -8 6 -10 -16 -44 -14 -38 3 3 7 2 13 -3 13 -5 0 -11 11 -13 25 -4
20 -3 23 8 14 10 -9 15 -8 19 3 7 19 -11 68 -25 68 -6 0 -9 3 -7 8 7 11 -11
52 -23 52 -5 0 -10 -12 -10 -26 0 -20 -4 -25 -16 -20 -14 5 -15 4 -5 -8 7 -8
11 -23 9 -33 -4 -14 -8 -10 -21 17 l-17 35 6 -33 c3 -18 2 -38 -3 -45 -18 -23
-43 -104 -41 -128 2 -16 -2 -24 -12 -24 -10 0 -14 9 -13 28 1 18 -2 25 -9 21
-7 -5 -9 0 -5 15 3 13 1 21 -6 19 -20 -3 -61 14 -74 31 -11 14 -13 14 -19 -6
-8 -29 -39 -32 -31 -4 6 24 -17 35 -33 15 -9 -10 -9 -14 -1 -14 6 0 11 -5 11
-12 0 -8 -6 -7 -16 4 -12 12 -14 20 -5 36 17 31 13 33 -14 8 -19 -17 -36 -23
-65 -22 -46 1 -55 8 -74 61 -11 29 -15 34 -15 18 -1 -22 -21 -34 -21 -12 0 40
67 72 97 47 11 -9 17 -6 30 11 15 22 15 22 37 3 37 -34 49 -37 41 -12 -5 17
-4 21 6 14 7 -4 27 -7 43 -6 19 2 38 -6 54 -20 l26 -23 -22 29 c-31 40 -31
130 -1 146 20 11 20 11 4 -14 l-17 -26 28 15 c25 13 31 13 51 0 21 -14 23 -13
38 15 14 26 14 30 1 30 -9 0 -13 -6 -10 -14 3 -8 1 -17 -5 -21 -7 -3 -11 2
-11 14 0 23 -15 28 -23 9 -4 -10 -6 -10 -6 0 -1 8 -6 10 -13 6 -7 -4 -4 2 6
14 11 12 15 22 11 22 -4 0 2 9 15 20 26 23 46 26 53 8 8 -18 27 11 20 29 -3 8
2 13 13 13 18 1 18 1 2 11 -28 16 -21 26 22 33 23 3 38 10 35 15 -7 12 31 25
45 16 16 -10 12 4 -12 35 -21 29 -24 30 -104 30 -57 0 -84 -4 -87 -12 -4 -9
-8 -10 -14 -3 -10 13 -103 13 -103 0 -1 -13 -64 -81 -82 -88 -9 -4 -7 -6 5 -6
9 -1 17 -8 17 -16 0 -14 95 -32 150 -28 21 2 22 1 6 -6 -14 -5 -16 -10 -8 -15
20 -12 14 -28 -8 -21 -11 4 -30 7 -43 9 -13 1 -28 6 -35 10 -16 10 -70 -2 -75
-17 -2 -7 -3 -4 -1 6 3 21 -32 47 -63 47 -14 0 -23 6 -23 15 0 8 -13 24 -30
37 -28 20 -41 48 -22 48 4 0 22 -13 40 -30 18 -16 38 -30 43 -30 6 0 7 -5 3
-12 -4 -7 -3 -8 5 -4 9 6 5 17 -14 39 -14 18 -30 42 -35 55 -8 18 -18 22 -50
22 -35 0 -42 -4 -50 -27z m70 8 c0 -5 -9 -11 -20 -14 -20 -5 -26 3 -13 16 9
10 33 8 33 -2z m381 -98 c4 -4 -43 -8 -106 -8 -94 0 -111 2 -102 14 9 10 33
12 106 8 52 -3 98 -10 102 -14z m-591 -33 c0 -5 -2 -10 -4 -10 -3 0 -8 5 -11
10 -3 6 -1 10 4 10 6 0 11 -4 11 -10z m199 -9 c8 -5 -4 -9 -33 -9 -28 -1 -44
3 -41 8 8 12 55 13 74 1z m109 -9 c9 -7 10 -15 3 -35 -14 -36 -52 -33 -75 6
l-17 30 31 -6 c17 -4 30 -2 30 3 0 12 11 13 28 2z m-330 -44 c-3 -7 -11 -13
-18 -13 -7 0 -15 6 -17 13 -3 7 4 12 17 12 13 0 20 -5 18 -12z m502 -8 c0 -5
-4 -10 -10 -10 -5 0 -10 5 -10 10 0 6 5 10 10 10 6 0 10 -4 10 -10z m-193 -51
c-14 -8 -22 -8 -30 0 -8 8 -3 11 19 11 25 -1 27 -2 11 -11z m-397 -17 c0 -13
-29 -48 -30 -35 0 6 -3 18 -6 27 -4 12 0 16 15 16 12 0 21 -4 21 -8z m394 -10
c2 -4 -4 -9 -15 -9 -11 -1 -17 2 -14 8 7 11 22 12 29 1z m-101 -39 c-7 -2 -19
-2 -25 0 -7 3 -2 5 12 5 14 0 19 -2 13 -5z m251 -4 c-4 -7 -27 -10 -60 -7 -29
3 -51 1 -48 -4 3 -4 -2 -5 -11 -1 -26 9 -58 10 -84 1 -21 -8 -22 -7 -11 7 10
12 35 15 117 15 74 0 102 -3 97 -11z m-154 -23 c0 -3 -4 -8 -10 -11 -5 -3 -10
-1 -10 4 0 6 5 11 10 11 6 0 10 -2 10 -4z m-90 -10 c0 -2 -8 -10 -17 -17 -16
-13 -17 -12 -4 4 13 16 21 21 21 13z m-405 -16 c-3 -5 -10 -10 -16 -10 -5 0
-9 5 -9 10 0 6 7 10 16 10 8 0 12 -4 9 -10z m165 -86 c0 -8 -19 -13 -24 -6 -3
5 1 9 9 9 8 0 15 -2 15 -3z m-819 -18 c-6 -7 -9 -20 -6 -28 5 -11 0 -15 -17
-15 -18 0 -23 5 -24 28 -1 26 2 29 29 29 24 0 27 -3 18 -14z m1140 -61 c19 -1
40 4 48 9 12 10 12 8 0 -11 -7 -13 -21 -22 -29 -20 -8 1 -15 -5 -15 -15 0 -9
-4 -20 -8 -24 -4 -4 -7 5 -7 19 0 15 -6 27 -12 27 -14 0 -78 73 -78 87 1 4 16
-10 34 -31 26 -30 42 -40 67 -41z m364 55 c3 -11 13 -20 21 -20 8 0 14 -8 13
-17 0 -11 -3 -13 -6 -5 -8 21 -23 13 -23 -14 0 -23 -2 -25 -16 -14 -8 8 -19
21 -25 31 -8 15 -6 17 7 12 14 -5 16 -1 12 20 -6 31 8 37 17 7z m-1145 -35 c0
-8 -4 -15 -9 -15 -13 0 -22 16 -14 24 11 11 23 6 23 -9z m595 -5 c-3 -5 -10
-10 -16 -10 -5 0 -9 5 -9 10 0 6 7 10 16 10 8 0 12 -4 9 -10z m510 -20 c3 -5
1 -10 -4 -10 -6 0 -11 5 -11 10 0 6 2 10 4 10 3 0 8 -4 11 -10z m-1065 -35 c0
-8 -4 -15 -10 -15 -5 0 -10 7 -10 15 0 8 5 15 10 15 6 0 10 -7 10 -15z m1055
-5 c3 -5 1 -10 -4 -10 -6 0 -11 5 -11 10 0 6 2 10 4 10 3 0 8 -4 11 -10z
m-560 -10 c3 -5 1 -10 -4 -10 -6 0 -11 5 -11 10 0 6 2 10 4 10 3 0 8 -4 11
-10z m652 -42 c-3 -7 -5 -2 -5 12 0 14 2 19 5 13 2 -7 2 -19 0 -25z m-82 12
c3 -5 1 -10 -4 -10 -6 0 -11 5 -11 10 0 6 2 10 4 10 3 0 8 -4 11 -10z m-1010
-9 c3 -5 1 -12 -5 -16 -5 -3 -10 1 -10 9 0 18 6 21 15 7z m385 -11 c0 -5 -5
-10 -11 -10 -5 0 -7 5 -4 10 3 6 8 10 11 10 2 0 4 -4 4 -10z m-600 -30 c0 -16
-4 -30 -8 -30 -5 0 -7 14 -4 30 2 17 6 30 8 30 2 0 4 -13 4 -30z"/>
<path d="M1662 4930 c25 -34 23 -34 51 -19 12 7 19 8 15 4 -10 -11 29 -38 42
-30 6 3 7 -1 4 -10 -4 -9 -13 -14 -20 -11 -7 3 -16 1 -19 -4 -4 -6 4 -10 16
-10 22 0 22 0 3 -15 -17 -13 -17 -14 -1 -15 10 0 17 -8 17 -20 0 -11 12 -38
26 -60 22 -33 29 -37 48 -30 15 5 28 3 45 -11 18 -15 20 -19 6 -19 -9 0 -25 5
-36 10 -10 6 -19 7 -19 3 0 -12 39 -34 69 -40 14 -2 28 -8 31 -13 7 -11 72
-16 88 -6 16 9 16 -6 0 -22 -10 -10 -4 -11 27 -7 22 2 44 0 53 -7 11 -10 17
-8 28 7 14 18 14 18 29 -1 15 -19 15 -46 -1 -119 -4 -16 -3 -27 1 -23 4 4 14
0 22 -8 9 -8 12 -18 8 -22 -4 -4 -10 -1 -12 6 -3 6 -9 10 -14 6 -15 -9 1 -24
26 -24 13 0 26 -4 29 -9 9 -13 240 -25 262 -13 25 13 23 57 -4 102 -23 37 -29
80 -12 80 6 0 10 -9 10 -20 0 -26 30 -88 46 -94 17 -6 11 19 -9 42 -21 23 -23
88 -2 96 21 8 19 26 -2 26 -15 0 -13 4 7 23 36 33 55 38 154 43 49 2 93 7 98
10 5 3 2 14 -8 25 -19 21 -64 25 -81 8 -8 -8 -19 -8 -42 2 -30 14 -41 29 -20
29 5 0 7 5 4 11 -4 6 -13 8 -21 5 -8 -3 -14 -1 -14 5 0 6 -39 9 -100 8 -89 -2
-100 -4 -100 -20 0 -21 -26 -49 -46 -49 -9 0 -14 10 -14 27 0 14 -12 41 -26
60 -14 18 -23 39 -21 46 2 7 13 -2 23 -20 13 -22 24 -31 36 -27 9 2 19 0 23
-5 4 -7 13 -6 25 2 21 12 27 37 10 37 -5 0 -10 -4 -10 -8 0 -4 -16 -6 -36 -4
-29 4 -39 11 -49 35 -8 19 -14 25 -17 16 -3 -8 -9 -11 -13 -7 -4 4 -4 15 0 25
5 10 7 25 6 33 -2 13 0 13 8 1 5 -8 18 -12 29 -8 12 2 23 0 25 -7 3 -7 11 -5
24 6 18 17 20 17 37 0 14 -12 20 -14 23 -4 8 22 23 2 23 -31 0 -31 1 -32 48
-32 43 0 47 2 44 23 -3 17 2 22 17 22 15 0 21 -6 21 -22 0 -23 3 -23 133 -26
72 -2 139 -5 149 -8 31 -9 30 17 -3 59 l-32 43 -101 -4 c-69 -2 -104 -8 -111
-17 -6 -7 -25 -12 -43 -11 -18 1 -32 -2 -32 -7 0 -5 -7 -4 -15 3 -8 7 -15 18
-15 24 0 14 -296 21 -314 7 -7 -6 -17 -6 -26 -1 -19 12 -387 13 -394 1 -3 -5
-22 -8 -41 -7 -19 1 -35 -3 -35 -9 0 -5 -7 -2 -14 8 -7 9 -21 17 -30 17 -14 0
-14 -4 6 -30z m346 7 c8 -10 6 -13 -9 -14 -19 -2 -25 8 -12 20 8 9 9 9 21 -6z
m182 -21 c0 -11 -19 -15 -25 -6 -3 5 1 10 9 10 9 0 16 -2 16 -4z m-305 -66
c-3 -5 -12 -10 -18 -10 -7 0 -6 4 3 10 19 12 23 12 15 0z m231 1 c-3 -5 -15
-7 -26 -4 -28 7 -25 13 6 13 14 0 23 -4 20 -9z m110 0 c-3 -5 -15 -7 -26 -4
-28 7 -25 13 6 13 14 0 23 -4 20 -9z m38 1 c3 -5 -1 -9 -9 -9 -8 0 -12 4 -9 9
3 4 7 8 9 8 2 0 6 -4 9 -8z m33 -46 c3 -3 -16 -6 -43 -5 -35 0 -43 3 -29 8 22
9 62 7 72 -3z m13 -58 c0 -16 -3 -19 -11 -11 -6 6 -8 16 -5 22 11 17 16 13 16
-11z m164 13 c9 -15 -23 -36 -36 -23 -5 5 -7 15 -4 21 9 13 33 14 40 2z m99 3
c9 -10 -4 -34 -19 -34 -8 0 -14 6 -14 13 0 22 19 35 33 21z m-462 -17 c-1 -12
-15 -9 -19 4 -3 6 1 10 8 8 6 -3 11 -8 11 -12z m107 2 c-2 -6 -8 -10 -13 -10
-5 0 -11 4 -13 10 -2 6 4 11 13 11 9 0 15 -5 13 -11z m-206 -61 c24 0 59 3 77
7 24 5 36 3 44 -8 7 -9 20 -17 30 -19 10 -1 17 -7 15 -13 -2 -5 -7 -8 -13 -5
-5 2 -29 4 -52 5 -24 0 -43 3 -43 6 0 4 -10 7 -22 7 -79 3 -112 8 -116 21 -3
9 1 11 16 7 11 -4 40 -7 64 -8z m382 -34 c64 -4 72 -7 61 -23 -8 -14 -92 -14
-100 -1 -3 6 -17 10 -31 10 -14 0 -22 -4 -19 -10 10 -16 -35 -12 -51 4 -8 8
-14 17 -14 20 0 7 62 13 80 8 8 -3 42 -7 74 -8z m83 -56 c-3 -8 -6 -5 -6 6 -1
11 2 17 5 13 3 -3 4 -12 1 -19z m-169 -9 c28 9 32 7 32 -10 0 -11 -4 -18 -9
-14 -5 3 -12 -4 -16 -15 -8 -24 -42 -22 -61 5 -10 14 -11 22 -2 32 7 9 13 10
18 4 4 -7 17 -8 38 -2z m134 -41 c-22 -22 -49 -18 -61 8 -15 35 -14 37 14 32
14 -3 28 -1 32 5 4 6 11 2 16 -11 7 -16 7 -26 -1 -34z m-102 -12 c0 -2 -7 -9
-15 -16 -13 -11 -14 -10 -9 4 5 14 24 23 24 12z m92 -44 c-7 -2 -12 -10 -12
-18 0 -9 5 -12 10 -9 6 3 10 -3 10 -14 0 -12 -4 -21 -10 -21 -5 0 -10 5 -10
11 0 6 -9 8 -22 3 -20 -6 -21 -5 -9 10 7 9 10 16 7 16 -4 0 -2 9 4 20 7 12 16
17 27 13 11 -4 13 -8 5 -11z m-135 -4 c-2 -7 2 -20 10 -30 10 -11 11 -18 4
-23 -6 -3 -14 1 -17 10 -5 13 -9 14 -15 4 -4 -8 -11 -10 -15 -6 -4 3 -1 14 6
23 12 13 11 17 -1 25 -11 7 -9 9 9 9 15 0 22 -5 19 -12z m180 -14 c-3 -3 -12
-4 -19 -1 -8 3 -5 6 6 6 11 1 17 -2 13 -5z m-237 -41 c-1 -27 -1 -27 -15 -9
-14 19 -12 36 6 36 5 0 9 -12 9 -27z m120 7 c0 -5 -2 -10 -4 -10 -3 0 -8 5
-11 10 -3 6 -1 10 4 10 6 0 11 -4 11 -10z"/>
<path d="M2867 4931 c11 -19 25 -28 41 -28 13 0 29 -6 35 -12 8 -8 16 -6 30 7
19 17 20 16 7 -8 -8 -14 -13 -37 -11 -52 4 -41 -12 -60 -20 -23 l-7 30 -1 -32
c-1 -35 -16 -45 -24 -15 -4 15 -5 15 -6 -2 -1 -16 -3 -17 -18 -5 -11 10 -14
10 -9 2 4 -8 1 -13 -8 -13 -9 0 -16 -5 -16 -11 0 -6 7 -9 15 -6 13 6 29 -8 30
-25 0 -5 5 -7 10 -5 6 1 9 8 9 15 -1 6 2 12 7 12 5 0 9 -9 9 -19 0 -10 7 -22
16 -25 24 -9 102 -7 108 3 3 5 15 7 27 4 26 -7 12 -22 -27 -29 -16 -2 -35 -7
-41 -9 -7 -2 -13 0 -13 6 0 6 -4 8 -9 5 -4 -3 -33 -6 -65 -7 -44 -2 -54 -5
-45 -15 7 -8 19 -10 40 -4 21 6 29 5 29 -4 0 -8 7 -19 15 -26 12 -10 18 -10
30 0 11 9 15 9 15 1 0 -7 4 -10 9 -7 5 3 12 -1 15 -10 3 -8 11 -12 17 -8 6 3
15 0 20 -7 6 -10 9 -8 9 9 0 12 5 22 10 22 6 0 10 -11 10 -25 0 -14 5 -25 10
-25 9 0 11 7 14 51 1 16 29 49 42 49 4 0 12 -8 19 -17 10 -14 16 -15 28 -5 8
7 25 11 38 10 18 -2 24 2 22 16 -1 13 2 15 10 7 6 -6 20 -11 31 -11 19 -1 20
-1 3 -11 -9 -5 -22 -7 -29 -3 -6 4 -4 -3 5 -17 19 -26 22 -49 7 -49 -5 0 -10
8 -10 18 0 9 -12 -5 -27 -31 -16 -29 -32 -46 -40 -43 -8 3 -13 -2 -13 -13 0
-27 29 -21 52 11 11 16 23 27 25 24 3 -3 -6 -19 -20 -36 -20 -23 -26 -41 -25
-75 0 -35 4 -42 17 -38 12 4 13 3 3 -5 -21 -14 -10 -45 21 -60 15 -7 27 -18
27 -23 0 -6 4 -8 9 -5 5 4 11 0 14 -6 3 -10 7 -10 18 -1 12 9 14 4 14 -30 0
-23 -4 -48 -8 -54 -6 -9 -3 -11 7 -7 18 7 21 -7 5 -23 -11 -11 7 -53 24 -53 4
0 63 -25 132 -55 117 -52 128 -55 205 -55 44 0 107 7 140 17 51 14 60 20 60
40 0 26 17 31 26 8 8 -20 33 -19 41 1 4 10 8 12 12 5 5 -8 24 -6 65 4 64 17
89 29 160 80 49 35 76 44 76 24 0 -6 7 -17 16 -26 8 -9 13 -22 10 -30 -3 -8
-1 -11 4 -8 6 4 10 -6 10 -22 0 -22 2 -25 10 -13 8 13 10 12 11 -5 1 -11 1
-24 0 -29 -1 -5 4 -13 11 -17 11 -7 11 -12 0 -30 -10 -15 -11 -24 -3 -28 8 -5
6 -13 -5 -27 -15 -18 -15 -18 -9 4 6 21 5 22 -14 10 -17 -10 -18 -15 -7 -28
14 -15 16 -96 3 -117 -9 -14 62 -20 182 -13 51 3 101 2 111 -2 11 -4 21 -4 24
0 2 4 131 7 285 7 l281 -1 0 375 c0 344 -1 375 -17 387 -17 13 -17 13 0 14 14
0 17 9 17 50 0 48 -1 50 -25 46 -14 -3 -25 0 -25 5 0 5 6 9 13 8 26 -3 37 2
37 17 0 14 -2 15 -16 3 -15 -12 -16 -11 -10 8 6 20 5 21 -17 10 -19 -9 -23
-18 -24 -63 -1 -29 -7 -61 -13 -71 -9 -15 -10 -11 -7 21 3 31 0 40 -15 44 -10
2 -18 8 -18 12 0 5 -8 11 -17 13 -16 4 -16 5 -1 6 9 0 20 -4 23 -10 5 -6 12
-4 21 8 18 25 17 33 -5 33 -10 0 -24 7 -31 15 -7 8 -9 15 -4 15 4 0 3 5 -3 11
-7 7 -8 22 -1 47 17 69 18 69 38 42 15 -20 21 -23 31 -12 7 6 26 12 42 12 19
0 27 4 24 13 -2 6 -16 11 -31 10 -14 -1 -26 4 -27 10 -1 7 -5 1 -9 -13 l-8
-25 -7 22 c-6 19 -12 22 -34 16 -23 -6 -25 -5 -12 10 12 15 11 17 -7 17 -11 0
-27 -7 -36 -15 -8 -8 -20 -15 -26 -15 -6 0 -13 7 -16 15 -9 23 -149 21 -162
-2 -9 -16 -11 -16 -27 0 -26 27 -54 20 -96 -24 -25 -26 -39 -35 -39 -25 0 9
-8 16 -17 16 -15 0 -14 2 3 15 10 8 27 15 37 15 9 0 17 5 17 10 0 13 -262 9
-271 -4 -4 -5 -15 -6 -25 -1 -11 4 -36 7 -57 8 -31 0 -42 -5 -57 -28 -15 -24
-19 -25 -22 -9 -3 16 -5 17 -17 3 -20 -21 -67 -12 -89 16 -17 21 -25 22 -147
23 -127 0 -165 -7 -165 -30 0 -9 3 -9 11 -1 6 6 18 9 25 6 8 -3 14 0 14 7 0 6
5 8 10 5 6 -3 10 -22 10 -42 0 -26 5 -36 20 -40 13 -4 20 -14 20 -31 0 -25 -1
-25 -15 -6 -14 19 -14 18 -15 -3 0 -32 -15 -28 -30 8 -10 22 -10 33 -1 42 6 6
11 16 11 21 0 6 -7 0 -16 -12 -31 -44 -78 -19 -72 40 3 31 1 33 -29 36 -28 3
-33 0 -34 -20 l-1 -23 -7 24 c-5 19 -8 21 -17 10 -7 -8 -15 -25 -19 -39 -12
-41 -22 -47 -62 -41 -36 6 -52 23 -67 73 -4 15 -33 16 -298 17 -291 1 -293 0
-311 -22 l-18 -22 11 23 c8 17 8 22 -3 22 -8 0 -20 -7 -27 -15 -7 -8 -29 -15
-50 -15 -21 0 -43 7 -50 15 -21 26 -30 16 -13 -14z m730 2 c-2 -10 3 -31 10
-48 13 -28 12 -29 -2 -9 -16 22 -16 22 -54 -17 -21 -22 -46 -39 -55 -39 -10 0
-30 -9 -45 -19 -31 -22 -61 -29 -78 -18 -8 5 -13 3 -13 -6 0 -9 -15 -18 -37
-22 -44 -8 -66 -23 -56 -38 3 -6 1 -7 -5 -3 -7 4 -12 2 -12 -5 0 -8 -4 -8 -15
1 -12 10 -15 9 -15 -4 0 -10 -5 -14 -10 -11 -6 4 -8 11 -5 16 4 5 -3 9 -15 9
-17 0 -20 4 -15 23 4 12 10 26 14 30 9 9 41 -2 41 -14 0 -5 7 -5 18 0 9 5 28
14 42 19 23 10 21 11 -20 13 -89 3 -109 16 -27 17 42 0 81 3 86 7 5 3 12 1 16
-5 9 -15 87 0 105 20 8 9 20 15 27 13 16 -6 94 66 87 79 -4 6 0 14 7 19 22 14
31 11 26 -8z m605 -18 c10 -23 25 -28 73 -28 17 0 5 -75 -13 -82 -14 -5 -15
-4 -4 6 15 16 16 49 1 49 -5 0 -7 -4 -4 -10 3 -5 3 -16 -1 -22 -6 -9 -11 -5
-16 12 -7 24 -8 24 -4 -3 2 -15 -1 -30 -5 -33 -5 -3 -9 5 -9 18 0 23 -2 23
-87 20 -49 -2 -84 0 -80 4 5 5 42 10 84 11 41 1 78 5 81 8 3 3 -7 18 -21 33
-29 30 -33 42 -17 42 6 0 16 -11 22 -25z m-782 -5 c0 -5 -2 -10 -4 -10 -3 0
-8 5 -11 10 -3 6 -1 10 4 10 6 0 11 -4 11 -10z m1679 -32 c1 -5 -6 -8 -14 -8
-9 0 -18 -6 -21 -14 -6 -16 -54 -9 -61 10 -3 8 -2 21 1 30 5 13 9 14 20 5 9
-8 16 -8 20 -2 4 6 13 8 21 4 9 -3 15 1 16 8 0 13 17 -17 18 -33z m-1625 -9
c-3 -5 -10 -7 -15 -3 -5 3 -7 10 -3 15 3 5 10 7 15 3 5 -3 7 -10 3 -15z m1146
6 c0 -8 -4 -15 -10 -15 -5 0 -10 7 -10 15 0 8 5 15 10 15 6 0 10 -7 10 -15z
m94 -16 c18 15 64 4 76 -19 14 -26 12 -33 -4 -27 -10 4 -18 -4 -25 -24 -5 -16
-14 -29 -18 -30 -4 0 -22 -2 -38 -4 -41 -4 -60 12 -68 57 -4 30 -2 39 16 51
20 14 23 14 34 0 10 -13 15 -13 27 -4z m-942 -17 c-20 -3 -41 -43 -43 -86 -1
-12 -5 -6 -9 14 -6 31 -8 32 -9 8 -1 -31 -20 -49 -22 -21 -1 10 -1 24 0 31 1
6 -3 12 -9 12 -6 0 -9 -14 -7 -35 3 -19 0 -35 -4 -35 -5 0 -9 15 -9 33 0 32
-1 33 -35 29 -23 -3 -35 0 -35 8 0 9 10 11 31 6 26 -5 30 -3 25 10 -4 12 -1
14 13 9 11 -3 22 -1 26 5 4 7 12 7 25 0 16 -8 22 -6 36 15 14 21 19 23 32 13
13 -11 13 -13 -6 -16z m-762 8 c0 -5 -7 -10 -15 -10 -8 0 -15 5 -15 10 0 6 7
10 15 10 8 0 15 -4 15 -10z m110 -2 c0 -5 -21 -8 -46 -8 -25 0 -43 4 -40 9 7
10 86 9 86 -1z m152 -2 c-24 -15 -147 -15 -128 0 8 6 44 10 80 10 49 0 61 -3
48 -10z m58 4 c13 -8 13 -10 -2 -10 -9 0 -20 5 -23 10 -8 13 5 13 25 0z m250
0 c0 -5 -5 -10 -11 -10 -5 0 -7 5 -4 10 3 6 8 10 11 10 2 0 4 -4 4 -10z m833
-2 c-7 -12 -111 -9 -118 2 -4 7 16 10 58 8 36 -2 63 -6 60 -10z m132 2 c3 -5
-1 -10 -9 -10 -9 0 -16 5 -16 10 0 6 4 10 9 10 6 0 13 -4 16 -10z m537 -12
c-7 -7 -12 -8 -12 -2 0 6 3 14 7 17 3 4 9 5 12 2 2 -3 -1 -11 -7 -17z m-1467
2 c3 -6 -1 -7 -9 -4 -18 7 -21 14 -7 14 6 0 13 -4 16 -10z m1355 -9 c0 -10
-12 -30 -26 -44 l-25 -25 30 -23 c28 -21 31 -28 31 -77 0 -47 -4 -59 -35 -95
-27 -31 -35 -50 -36 -81 l-2 -41 -7 40 c-6 40 -6 40 -14 12 -6 -20 -11 -25
-16 -16 -5 7 -6 18 -3 26 3 7 -1 13 -10 13 -8 0 -21 7 -28 16 -12 15 -11 16 8
10 15 -5 25 -2 32 11 6 10 11 12 11 6 0 -23 40 -14 49 10 5 13 16 29 25 36 9
7 16 19 16 25 0 6 -12 -4 -26 -21 -21 -27 -33 -33 -63 -33 -42 0 -67 20 -80
67 -7 23 -4 34 14 55 l22 26 21 -20 c19 -20 22 -20 37 -4 13 13 20 14 31 5 8
-6 14 -8 14 -4 0 4 7 1 17 -6 15 -13 15 -12 4 8 -14 27 -51 50 -51 32 0 -7 -3
-9 -7 -6 -3 4 -12 -1 -19 -11 -12 -16 -13 -15 -14 6 0 25 -11 27 -43 11 -16
-8 -13 -2 10 20 18 17 39 31 48 31 25 0 67 32 61 46 -3 8 1 14 9 14 8 0 15 -8
15 -19z m-1048 -21 c-3 -21 -10 -30 -23 -30 -11 0 -19 5 -19 11 0 5 5 7 10 4
18 -11 11 4 -12 25 l-22 20 35 0 c34 0 35 -2 31 -30z m678 20 c0 -6 -12 -18
-27 -28 -22 -13 -27 -23 -25 -45 2 -18 -5 -38 -22 -58 -15 -17 -23 -37 -20
-47 4 -11 -2 -8 -15 8 l-21 25 25 9 c30 12 34 26 5 19 -11 -3 -27 0 -35 7 -12
10 -15 10 -15 -1 -1 -10 -4 -9 -14 4 -13 16 -46 23 -58 11 -3 -3 -2 -21 3 -41
9 -43 3 -59 -17 -42 -11 9 -14 8 -14 -3 0 -17 -33 -50 -46 -47 -22 4 -44 -2
-44 -12 0 -6 6 -9 13 -6 6 2 21 1 32 -3 15 -5 24 0 37 21 10 16 22 29 28 29
14 0 13 -6 -6 -25 -26 -25 -7 -31 20 -6 l25 23 29 -21 c36 -25 48 -26 56 -5 3
8 10 12 16 9 6 -4 7 -11 4 -17 -4 -7 2 -8 17 -3 13 4 26 12 27 16 2 5 10 9 19
9 17 0 43 24 43 39 0 7 10 9 25 5 20 -5 25 -2 26 12 1 17 2 17 6 2 7 -26 21
-22 21 6 0 15 -7 26 -19 29 -11 3 -19 11 -19 19 0 10 3 9 10 -2 8 -13 11 -12
23 4 10 13 16 15 21 8 11 -19 26 -14 38 12 6 14 17 27 25 30 23 9 -3 -31 -37
-56 -19 -14 -30 -31 -30 -46 0 -24 1 -25 20 -7 27 25 50 13 50 -28 0 -18 5
-38 12 -45 6 -6 9 -15 5 -18 -4 -4 -15 12 -25 35 -16 36 -21 39 -32 26 -7 -8
-18 -15 -25 -15 -8 0 -13 -13 -12 -35 1 -21 -6 -42 -16 -52 -10 -10 -17 -12
-17 -6 0 7 5 15 10 18 6 3 10 12 10 18 0 7 -5 4 -11 -5 -14 -24 -55 -23 -72 2
-12 17 -19 19 -41 11 -14 -6 -26 -8 -26 -5 0 2 -6 0 -12 -7 -8 -7 -12 -31 -10
-63 3 -47 0 -56 -32 -95 -20 -24 -36 -50 -37 -59 0 -11 -2 -12 -6 -4 -9 22
-23 13 -23 -15 0 -21 -3 -24 -9 -14 -5 8 -7 20 -4 28 3 8 -2 13 -14 13 -10 0
-24 10 -32 23 -14 22 -13 22 7 4 19 -18 20 -18 36 5 9 12 16 17 16 11 0 -6 6
-13 14 -16 15 -6 69 69 62 87 -2 6 -5 4 -5 -5 -2 -28 -43 -54 -83 -51 -42 4
-57 18 -68 66 -6 30 -4 38 17 58 23 21 25 22 34 5 12 -21 27 -22 51 0 11 9 18
11 18 5 0 -7 10 -12 22 -12 20 0 21 2 7 15 -22 23 -69 29 -69 10 0 -12 -5 -10
-21 6 -18 18 -23 19 -37 6 -29 -24 -74 -27 -117 -7 l-40 19 -21 -26 c-16 -21
-26 -25 -47 -19 -18 4 -27 13 -27 26 0 22 19 37 29 22 9 -14 53 -3 48 12 -4
11 -22 15 -82 18 -16 0 -22 3 -12 5 9 3 17 9 17 15 0 5 7 8 15 4 8 -3 15 -1
15 4 0 17 14 11 50 -20 44 -37 59 -26 38 29 -15 38 -15 40 7 61 l23 22 12 -22
c9 -17 14 -19 26 -9 7 6 27 9 43 7 21 -3 28 -1 24 9 -3 7 -8 14 -12 14 -28 6
-52 5 -57 -2 -2 -5 -14 1 -26 13 -16 16 -18 22 -7 29 19 12 23 11 70 -7 39
-16 42 -16 85 6 25 12 48 29 51 36 4 11 17 13 48 10 31 -4 47 -1 55 9 14 17
30 20 30 5z m450 -34 c-6 -9 -6 -16 2 -24 8 -8 6 -11 -9 -9 -14 1 -19 6 -15
19 2 11 -1 18 -9 18 -12 0 -12 2 0 9 20 13 44 2 31 -13z m-1475 -4 c-3 -3 -11
0 -18 7 -9 10 -8 11 6 5 10 -3 15 -9 12 -12z m515 -10 c12 -11 28 -18 36 -15
8 3 14 -1 14 -11 0 -22 -23 -20 -44 3 -10 10 -33 22 -52 25 -19 4 -34 11 -34
16 0 17 57 4 80 -18z m-580 3 c36 3 41 -3 22 -25 -20 -24 -60 -26 -68 -5 -8
20 5 53 14 39 4 -6 18 -10 32 -9z m474 -1 c17 -6 22 -39 8 -48 -5 -3 -18 -3
-30 1 -15 4 -21 12 -20 29 2 24 13 29 42 18z m396 -14 c0 -5 -4 -10 -10 -10
-5 0 -10 5 -10 10 0 6 5 10 10 10 6 0 10 -4 10 -10z m-1370 -25 c0 -8 -7 -15
-15 -15 -8 0 -15 7 -15 15 0 8 7 15 15 15 8 0 15 -7 15 -15z m123 -7 c4 -12 4
-24 2 -27 -7 -7 -34 32 -29 41 9 15 22 8 27 -14z m287 7 c0 -8 -4 -15 -10 -15
-5 0 -10 7 -10 15 0 8 5 15 10 15 6 0 10 -7 10 -15z m217 -11 c-9 -9 -28 6
-21 18 4 6 10 6 17 -1 6 -6 8 -13 4 -17z m148 17 c7 -12 -12 -24 -25 -16 -11
7 -4 25 10 25 5 0 11 -4 15 -9z m455 -5 c0 -19 -30 -25 -60 -13 l-25 10 30 7
c47 12 55 11 55 -4z m-210 -25 c0 -11 -61 -71 -72 -71 -4 0 -12 9 -18 21 -13
23 7 60 20 38 5 -8 15 -7 36 5 35 18 34 18 34 7z m753 -16 c-3 -8 -9 -15 -14
-15 -10 0 -12 24 -3 33 11 11 24 -3 17 -18z m-977 -23 c-17 -16 -18 -16 -5 5
7 12 15 20 18 17 3 -2 -3 -12 -13 -22z m278 3 c15 -14 25 -29 22 -34 -6 -9
-66 40 -66 53 0 13 18 5 44 -19z m-573 1 c-8 -10 -9 -16 -1 -21 5 -3 10 -11
10 -17 0 -7 -6 -6 -15 2 -10 8 -19 9 -27 3 -7 -6 -20 -10 -28 -11 -8 0 -30 -3
-49 -6 -30 -6 -33 -5 -21 9 7 8 27 15 45 15 49 0 68 9 54 26 -9 11 -6 14 16
14 22 0 25 -3 16 -14z m1629 -21 c0 -14 -4 -25 -10 -25 -5 0 -10 11 -10 25 0
14 5 25 10 25 6 0 10 -11 10 -25z m-1462 -42 c-26 -2 -71 -2 -100 0 -29 2 -8
3 47 3 55 0 79 -1 53 -3z m-336 -25 c-7 -7 -12 -8 -12 -2 0 6 3 14 7 17 3 4 9
5 12 2 2 -3 -1 -11 -7 -17z m639 0 c-8 -23 -31 -37 -31 -19 0 6 5 11 12 11 6
0 3 7 -8 15 -18 14 -18 14 8 15 24 0 26 -3 19 -22z m-537 -15 c11 15 17 15 38
5 21 -12 23 -17 16 -44 -10 -41 -31 -57 -67 -52 -18 3 -27 0 -24 -5 3 -5 0 -7
-8 -5 -8 3 -13 13 -13 22 1 9 -1 16 -6 16 -8 0 -30 45 -30 61 0 6 9 8 19 4 11
-3 23 0 27 6 5 9 11 7 21 -7 14 -18 15 -18 27 -1z m-107 -50 c-3 -10 -5 -4 -5
12 0 17 2 24 5 18 2 -7 2 -21 0 -30z m1321 -46 c0 -16 -6 -23 -19 -23 -22 0
-25 11 -6 20 9 5 9 7 -2 12 -11 5 -11 8 0 15 18 11 27 3 27 -24z m-1240 -53
c7 4 20 2 31 -3 14 -8 21 -8 24 2 3 7 6 5 6 -5 1 -13 -7 -18 -23 -18 -20 0
-23 -4 -20 -22 4 -22 4 -22 -5 -3 -6 11 -28 38 -51 60 -22 22 -40 44 -40 50 1
5 16 -8 34 -29 19 -22 38 -36 44 -32z m742 56 c0 -5 -5 -10 -11 -10 -5 0 -7 5
-4 10 3 6 8 10 11 10 2 0 4 -4 4 -10z m154 -30 c4 -25 3 -31 -4 -20 -5 8 -10
26 -10 39 0 32 6 24 14 -19z m533 3 c-3 -10 -5 -4 -5 12 0 17 2 24 5 18 2 -7
2 -21 0 -30z m-1512 -43 c-3 -5 -10 -10 -16 -10 -5 0 -9 5 -9 10 0 6 7 10 16
10 8 0 12 -4 9 -10z m330 0 c3 -5 1 -10 -4 -10 -6 0 -11 5 -11 10 0 6 2 10 4
10 3 0 8 -4 11 -10z m-258 -72 c-3 -8 -6 -5 -6 6 -1 11 2 17 5 13 3 -3 4 -12
1 -19z m308 2 c3 -5 1 -10 -4 -10 -6 0 -11 5 -11 10 0 6 2 10 4 10 3 0 8 -4
11 -10z"/>
<path d="M4480 4781 c0 -6 5 -13 10 -16 6 -3 10 -1 10 5 0 7 7 9 16 6 8 -3 12
-2 9 4 -8 13 -45 13 -45 1z"/>
<path d="M4630 4610 c0 -5 4 -10 9 -10 6 0 13 5 16 10 3 6 -1 10 -9 10 -9 0
-16 -4 -16 -10z"/>
<path d="M1293 4923 c-7 -3 -13 -12 -13 -21 0 -15 2 -15 17 1 18 18 16 27 -4
20z"/>
<path d="M1207 4904 c3 -8 11 -14 19 -14 21 0 17 17 -5 23 -14 3 -18 1 -14 -9z"/>
<path d="M1250 4900 c0 -5 5 -10 10 -10 6 0 10 5 10 10 0 6 -4 10 -10 10 -5 0
-10 -4 -10 -10z"/>
<path d="M2935 4860 c-3 -5 -1 -10 4 -10 6 0 11 5 11 10 0 6 -2 10 -4 10 -3 0
-8 -4 -11 -10z"/>
<path d="M2911 4834 c0 -11 3 -14 6 -6 3 7 2 16 -1 19 -3 4 -6 -2 -5 -13z"/>
<path d="M2423 4828 c-2 -5 51 -8 119 -7 90 0 115 3 93 10 -35 10 -205 8 -212
-3z"/>
<path d="M2795 4830 l-90 -5 93 -5 c69 -4 92 -2 92 8 0 6 -1 11 -2 10 -2 -1
-43 -4 -93 -8z"/>
<path d="M870 4819 c0 -5 5 -7 10 -4 6 3 10 8 10 11 0 2 -4 4 -10 4 -5 0 -10
-5 -10 -11z"/>
<path d="M2360 4780 c0 -5 5 -10 11 -10 5 0 7 5 4 10 -3 6 -8 10 -11 10 -2 0
-4 -4 -4 -10z"/>
<path d="M2801 4756 c-10 -12 -9 -20 3 -43 12 -23 16 -25 21 -11 4 9 13 14 21
11 9 -3 14 2 14 16 0 22 -20 30 -20 9 -1 -7 -6 -3 -14 10 -11 20 -14 21 -25 8z"/>
<path d="M1621 4714 c0 -11 3 -14 6 -6 3 7 2 16 -1 19 -3 4 -6 -2 -5 -13z"/>
<path d="M2870 4720 c0 -5 5 -10 10 -10 6 0 10 5 10 10 0 6 -4 10 -10 10 -5 0
-10 -4 -10 -10z"/>
<path d="M2855 4670 c-3 -5 -1 -10 4 -10 6 0 11 5 11 10 0 6 -2 10 -4 10 -3 0
-8 -4 -11 -10z"/>
<path d="M2547 4647 c-2 -7 3 -23 13 -35 16 -19 19 -20 31 -6 8 10 21 13 42 8
22 -5 28 -3 25 7 -3 8 -13 14 -24 14 -10 1 -24 4 -31 8 -7 4 -13 0 -16 -10 -4
-15 -6 -15 -12 5 -8 25 -20 29 -28 9z"/>
<path d="M2795 4650 c-3 -5 -4 -10 -1 -10 2 0 11 -3 20 -6 11 -4 16 -1 16 10
0 18 -25 22 -35 6z"/>
<path d="M1900 4646 c0 -2 7 -9 15 -16 9 -7 15 -8 15 -2 0 5 -7 12 -15 16 -8
3 -15 4 -15 2z"/>
<path d="M1590 4617 c0 -7 9 -22 19 -31 19 -18 20 -17 12 10 -8 29 -31 46 -31
21z"/>
<path d="M1972 4613 c-33 -4 -33 -5 -16 -24 9 -10 23 -19 30 -19 7 0 15 -8 17
-17 3 -10 5 1 6 25 0 23 0 41 -1 40 -2 0 -18 -3 -36 -5z"/>
<path d="M2815 4610 c-5 -8 -28 -11 -66 -8 l-59 4 0 -30 c0 -22 3 -27 9 -17 6
9 24 14 50 13 24 -1 41 3 41 9 0 6 7 8 15 5 9 -3 18 1 22 10 7 19 -2 30 -12
14z"/>
<path d="M7 4583 c-10 -10 -8 -25 2 -18 5 3 13 0 17 -6 6 -11 23 6 24 24 0 9
-34 9 -43 0z"/>
<path d="M1436 4545 c4 -8 8 -15 10 -15 2 0 4 7 4 15 0 8 -4 15 -10 15 -5 0
-7 -7 -4 -15z"/>
<path d="M2902 4535 c-18 -8 -31 -19 -28 -24 4 -5 2 -12 -4 -16 -5 -3 -10 -22
-10 -42 0 -31 -2 -34 -16 -22 -13 10 -17 10 -25 -2 -5 -8 -8 -18 -8 -24 0 -5
3 -4 6 3 9 22 25 13 21 -12 -4 -17 -1 -23 9 -19 7 3 13 1 13 -3 1 -46 107 -85
158 -58 35 18 48 18 32 -1 -9 -10 -9 -15 -1 -15 6 0 11 4 11 9 0 5 11 8 24 5
28 -5 39 15 30 52 -7 28 -16 30 -34 8 -21 -24 -48 -35 -99 -40 -64 -6 -96 18
-104 78 -3 23 -1 50 4 60 35 65 174 47 205 -27 16 -39 34 -38 34 1 0 27 -48
83 -72 85 -7 0 -20 2 -28 4 -65 13 -88 13 -118 0z m188 -196 c-7 -11 -14 -19
-16 -16 -7 7 7 37 17 37 6 0 5 -9 -1 -21z"/>
<path d="M3180 4541 c0 -17 18 -21 24 -6 3 9 0 15 -9 15 -8 0 -15 -4 -15 -9z"/>
<path d="M200 4520 c-25 -19 -23 -37 3 -27 11 4 33 48 24 47 -1 0 -13 -9 -27
-20z"/>
<path d="M1750 4510 c-8 -5 -11 -12 -7 -16 4 -4 13 -2 19 4 15 15 7 24 -12 12z"/>
<path d="M1315 4480 c-4 -6 7 -10 25 -10 18 0 29 4 25 10 -3 6 -15 10 -25 10
-10 0 -22 -4 -25 -10z"/>
<path d="M2130 4474 c0 -8 5 -12 10 -9 6 4 8 11 5 16 -9 14 -15 11 -15 -7z"/>
<path d="M1381 4476 c11 -9 69 -14 69 -6 0 6 -16 10 -37 10 -20 0 -34 -2 -32
-4z"/>
<path d="M2095 4470 c3 -5 8 -10 11 -10 2 0 4 5 4 10 0 6 -5 10 -11 10 -5 0
-7 -4 -4 -10z"/>
<path d="M2672 4388 c-1 -7 -4 -35 -7 -61 -3 -29 -2 -46 4 -43 5 3 12 -5 15
-19 4 -16 11 -22 21 -19 8 4 15 2 15 -4 0 -18 68 -82 91 -85 13 -2 25 -9 27
-15 2 -7 19 -12 38 -12 19 0 34 -4 34 -10 0 -5 -11 -10 -25 -10 -22 0 -37 -19
-17 -21 4 0 18 -2 32 -4 26 -3 53 12 45 24 -2 4 9 5 25 3 19 -3 27 -8 23 -16
-4 -6 1 -5 10 2 9 8 22 10 28 6 7 -4 9 -3 6 3 -8 13 20 26 35 17 5 -3 18 2 29
12 15 13 19 14 19 3 1 -8 13 0 29 19 15 17 33 32 39 32 7 0 12 9 12 19 0 21
-4 21 -80 -2 -72 -22 -209 -14 -262 14 -24 13 -46 28 -50 34 -4 5 -10 6 -14 3
-6 -7 -34 15 -34 26 0 3 -11 17 -25 32 -13 14 -22 30 -19 35 3 5 1 9 -5 9 -5
0 -13 9 -16 20 -7 22 -21 27 -23 8z"/>
<path d="M208 4369 c11 -28 52 -40 52 -14 0 9 -6 15 -12 12 -7 -2 -21 3 -31
11 -17 15 -17 14 -9 -9z"/>
<path d="M2480 4361 c0 -5 -11 -12 -25 -15 -29 -7 -32 -32 -10 -80 19 -39 195
-214 195 -193 0 8 -6 18 -12 21 -7 3 -1 4 15 2 40 -5 16 20 -28 28 -37 7 -79
49 -110 111 -11 22 -23 41 -27 43 -4 2 -1 11 8 19 9 9 14 26 11 39 -2 13 1 25
7 28 6 2 3 5 -6 5 -10 1 -18 -3 -18 -8z"/>
<path d="M2304 4324 c-28 -67 4 -123 121 -209 40 -30 81 -66 92 -81 17 -23 22
-25 40 -13 19 12 20 15 8 38 -14 28 -55 69 -55 56 0 -13 -39 31 -79 89 -28 42
-34 59 -32 95 2 49 -8 61 -52 61 -23 0 -31 -7 -43 -36z m192 -231 c-7 -7 -26
7 -26 19 0 6 6 6 15 -2 9 -7 13 -15 11 -17z"/>
<path d="M1660 4346 c0 -2 7 -6 15 -10 8 -3 15 -1 15 4 0 6 -7 10 -15 10 -8 0
-15 -2 -15 -4z"/>
<path d="M1935 4290 c-8 -14 8 -33 30 -36 20 -3 19 9 -4 30 -14 12 -21 14 -26
6z"/>
<path d="M1780 4261 c0 -5 5 -13 10 -16 6 -3 10 -2 10 4 0 5 -4 13 -10 16 -5
3 -10 2 -10 -4z"/>
<path d="M1840 4196 c0 -8 9 -20 21 -26 19 -11 20 -10 10 9 -15 27 -31 36 -31
17z"/>
<path d="M1618 4183 c7 -3 16 -2 19 1 4 3 -2 6 -13 5 -11 0 -14 -3 -6 -6z"/>
<path d="M2690 4150 c0 -5 -13 -10 -29 -10 l-29 0 30 -30 c30 -30 53 -38 60
-20 2 5 17 6 38 1 38 -8 63 -4 55 9 -3 5 -12 7 -19 4 -7 -3 -27 9 -44 25 -30
30 -62 41 -62 21z"/>
<path d="M1603 4143 c9 -2 23 -2 30 0 6 3 -1 5 -18 5 -16 0 -22 -2 -12 -5z"/>
<path d="M2250 4119 c0 -9 11 -28 25 -43 24 -25 37 -19 15 7 -6 7 -17 21 -25
32 -12 16 -14 17 -15 4z"/>
<path d="M3360 4097 c0 -37 -13 -49 -115 -102 l-30 -16 30 5 c17 3 47 8 68 12
23 4 52 20 73 40 l35 33 -20 20 c-12 12 -21 26 -21 31 0 6 -4 10 -10 10 -5 0
-10 -15 -10 -33z"/>
<path d="M1590 4110 c0 -5 7 -10 15 -10 8 0 15 5 15 10 0 6 -7 10 -15 10 -8 0
-15 -4 -15 -10z"/>
<path d="M2820 4116 c0 -2 7 -7 16 -10 8 -3 12 -2 9 4 -6 10 -25 14 -25 6z"/>
<path d="M4095 4083 c-142 -63 -194 -75 -316 -72 -60 1 -112 -1 -116 -5 -4 -4
-15 -26 -23 -49 -11 -31 -28 -50 -62 -72 -26 -17 -47 -38 -47 -48 -1 -17 1
-17 32 -1 19 10 61 19 102 20 87 4 134 13 160 30 11 8 26 14 33 14 12 0 11 -5
-2 -25 -9 -13 -16 -26 -16 -27 0 -8 52 -7 74 2 21 8 24 7 19 -8 -3 -9 -11 -23
-17 -31 -9 -12 -6 -13 21 -8 35 7 53 -7 34 -26 -17 -17 -13 -31 4 -17 12 10
15 10 15 -3 0 -9 -10 -23 -22 -31 -12 -9 -19 -16 -15 -16 16 0 52 24 72 47 11
12 29 23 40 23 14 0 16 3 8 11 -11 11 -6 49 6 49 4 0 8 6 9 13 1 6 3 28 6 47
6 59 17 100 26 100 10 0 62 99 58 111 -2 4 -39 -8 -83 -28z"/>
<path d="M1610 4078 c-15 -6 -20 -12 -12 -15 6 -3 10 -9 6 -14 -7 -12 3 -11
25 1 22 12 35 40 18 39 -7 0 -23 -5 -37 -11z"/>
<path d="M1732 4075 c-11 -13 -10 -15 5 -15 10 0 24 4 31 9 11 7 10 10 -3 15
-20 7 -17 8 -33 -9z"/>
<path d="M2940 4081 c0 -13 68 -53 79 -47 5 4 12 0 14 -6 3 -8 6 -6 6 5 1 9
-6 17 -14 17 -8 0 -15 5 -15 11 0 6 -9 8 -21 4 -13 -5 -19 -3 -15 3 3 5 -1 13
-10 16 -21 8 -24 8 -24 -3z"/>
<path d="M1890 4076 c0 -2 7 -7 16 -10 8 -3 12 -2 9 4 -6 10 -25 14 -25 6z"/>
<path d="M3436 4018 c-32 -33 -95 -63 -164 -79 -24 -5 -58 -17 -75 -25 -26
-14 -28 -18 -14 -26 10 -5 15 -13 12 -19 -9 -13 7 -11 47 6 20 8 64 17 99 20
120 12 189 50 189 105 0 31 -3 35 -40 43 -19 4 -32 -2 -54 -25z m-116 -98 c-7
-13 -21 -20 -41 -20 -33 0 -31 16 5 30 37 15 48 12 36 -10z"/>
<path d="M1632 4020 c-7 -11 -17 -20 -23 -20 -8 0 -8 4 1 14 9 12 8 15 -9 13
-14 -1 -20 -6 -16 -15 3 -7 5 -18 5 -23 0 -5 7 -9 16 -9 8 0 13 -3 11 -7 -2
-5 4 -16 15 -25 10 -10 18 -16 18 -13 0 3 9 -4 20 -15 12 -12 26 -17 37 -13
12 5 15 2 10 -10 -4 -10 3 -25 18 -39 26 -24 35 -55 13 -42 -10 6 -10 4 0 -8
10 -13 10 -17 -4 -22 -21 -8 -24 -8 -24 5 0 5 5 7 12 3 7 -5 8 -3 3 5 -5 10
-10 10 -19 1 -8 -8 -6 -15 7 -25 10 -7 14 -16 9 -19 -5 -3 -12 -15 -15 -26 -3
-11 -1 -18 4 -14 5 3 9 1 9 -5 0 -5 -6 -12 -12 -14 -10 -4 -10 -8 1 -15 10 -7
10 -11 1 -14 -10 -3 -10 -9 -1 -26 15 -29 29 -28 29 2 0 38 25 81 50 84 18 3
23 -1 20 -15 -2 -10 2 -17 10 -15 7 1 12 -9 12 -25 0 -16 3 -38 6 -50 5 -17 2
-23 -10 -23 -9 0 -19 -7 -22 -15 -8 -20 13 -79 36 -100 27 -24 25 -38 -2 -30
-36 10 -88 74 -95 117 -4 29 -10 38 -20 34 -8 -4 -17 -6 -19 -6 -3 0 0 -9 6
-21 7 -11 9 -23 6 -26 -3 -4 -1 -11 4 -18 5 -6 11 -20 13 -31 3 -20 26 -65 27
-52 0 4 10 -3 23 -15 13 -12 22 -26 22 -32 -1 -5 0 -7 2 -2 9 15 35 7 29 -9
-3 -8 -2 -13 3 -10 5 3 26 -1 46 -10 20 -8 47 -14 59 -13 39 3 57 -1 51 -11
-3 -5 -2 -10 4 -10 5 0 12 4 15 9 3 5 17 11 31 14 20 3 25 1 20 -11 -4 -12 -2
-12 8 -4 8 7 17 8 22 4 4 -4 2 4 -4 16 -8 14 -10 35 -6 50 12 43 12 74 -1 86
-6 6 -10 23 -9 36 1 14 -7 38 -18 54 -18 25 -18 29 -4 23 9 -3 17 -2 17 4 0 5
-7 12 -15 15 -8 4 -12 10 -9 15 3 5 1 9 -4 9 -5 0 -19 8 -31 19 -16 14 -18 20
-8 24 8 3 13 19 12 39 -1 30 -5 34 -46 44 -24 6 -37 13 -29 16 8 2 -4 8 -27
11 -38 7 -72 35 -57 49 7 8 -45 20 -56 13 -6 -4 -10 -2 -10 4 0 6 -7 8 -15 5
-10 -4 -15 0 -15 11 0 14 -3 15 -14 6 -17 -14 -32 2 -20 21 5 8 2 9 -9 5 -12
-5 -17 -1 -17 13 0 22 -16 27 -22 8 -5 -13 -58 29 -58 46 0 5 7 18 17 28 9 10
12 18 7 18 -5 0 -15 -9 -22 -20z m318 -327 c0 -2 -12 -15 -26 -28 -21 -19 -23
-25 -10 -25 17 0 21 -25 10 -79 -9 -41 -22 -39 -40 6 -17 39 -14 91 7 137 11
23 13 24 35 9 13 -8 24 -17 24 -20z m40 -62 c0 -5 3 -16 6 -25 4 -10 1 -16 -9
-16 -20 0 -30 17 -23 35 6 16 26 21 26 6z m40 -67 c0 -8 -4 -12 -10 -9 -5 3
-10 10 -10 16 0 5 5 9 10 9 6 0 10 -7 10 -16z"/>
<path d="M2335 4017 c-7 -28 4 -53 12 -29 11 29 19 7 17 -48 -1 -37 2 -58 8
-54 6 4 8 -11 5 -39 -2 -26 0 -44 3 -42 12 7 10 -85 -1 -109 -9 -19 -9 -19 4
-3 21 26 24 21 17 -28 -4 -28 -3 -45 3 -45 6 0 3 -8 -7 -19 -9 -10 -14 -25
-10 -35 4 -11 1 -16 -12 -16 -17 0 -16 -3 5 -19 14 -10 30 -17 37 -14 7 2 18
-5 24 -17 6 -11 15 -18 19 -16 7 5 33 -37 35 -56 1 -3 4 -10 9 -14 4 -4 -1
-16 -10 -27 -10 -11 -12 -17 -5 -13 22 13 13 -7 -20 -43 -18 -19 -26 -30 -18
-24 13 10 32 7 90 -11 72 -22 105 -29 291 -61 102 -18 112 -18 104 -4 -4 6 -4
26 -1 45 6 27 15 38 49 56 47 24 137 34 148 17 9 -15 29 -2 29 18 0 10 -6 13
-16 9 -14 -5 -15 -1 -9 31 10 52 14 124 8 139 -5 13 -49 -15 -115 -75 -16 -14
-28 -21 -28 -17 0 5 -10 2 -22 -6 -28 -18 -82 -29 -164 -33 -34 -2 -75 -6 -92
-10 -25 -5 -31 -3 -37 14 -6 20 -56 51 -82 51 -17 0 -32 14 -57 52 -10 15 -22
25 -27 23 -4 -3 -13 11 -19 32 -6 21 -17 47 -25 57 -8 11 -15 30 -15 42 0 13
-5 26 -11 30 -7 4 -9 20 -4 43 3 20 8 53 10 73 2 20 6 42 10 47 4 7 -1 9 -12
5 -16 -5 -15 -3 2 11 11 9 20 19 20 23 1 4 6 17 13 30 16 29 5 28 -39 -3 l-37
-24 -16 42 c-9 23 -25 53 -35 67 l-19 25 -7 -28z"/>
<path d="M3061 4024 c6 -8 22 -13 35 -12 31 3 13 26 -21 26 -20 0 -23 -3 -14
-14z"/>
<path d="M3154 3965 c-17 -13 -16 -14 14 -4 33 11 41 19 19 19 -7 0 -22 -7
-33 -15z"/>
<path d="M2659 3940 c-50 -25 -88 -73 -89 -111 0 -9 -7 -23 -16 -30 -11 -9
-14 -23 -11 -46 4 -24 2 -32 -6 -27 -8 5 -8 3 1 -7 6 -7 12 -21 12 -31 0 -10
29 -47 64 -83 52 -53 69 -65 95 -65 18 0 42 -5 53 -11 25 -13 137 -20 172 -11
28 8 96 60 96 74 0 5 -6 6 -12 2 -10 -6 -10 -5 -2 7 7 8 19 31 28 53 13 30 13
36 2 27 -12 -10 -13 -1 -9 59 3 44 1 75 -6 83 -9 12 -17 40 -20 70 -1 4 -6 7
-12 7 -5 0 -7 -4 -4 -10 3 -5 2 -10 -4 -10 -5 0 -13 9 -16 20 -4 11 -10 18
-15 15 -5 -3 -28 7 -51 22 -37 24 -53 28 -121 29 -65 0 -86 -4 -129 -26z m13
-72 c-34 -37 -57 -118 -33 -118 11 0 22 26 27 65 10 77 130 103 215 45 48 -32
69 -39 49 -15 -7 9 -10 18 -7 21 10 10 40 -46 48 -91 9 -51 0 -83 -36 -131
-35 -46 -62 -49 -81 -11 -15 28 -15 33 1 59 9 16 15 38 12 48 -3 11 -1 20 4
22 5 2 2 13 -6 26 -20 27 -56 28 -80 2 -10 -11 -31 -20 -47 -20 -27 0 -28 -2
-28 -45 0 -39 3 -46 30 -60 17 -9 30 -20 30 -25 0 -14 -34 -12 -49 3 -11 10
-13 8 -8 -10 7 -29 -3 -29 -38 -1 -72 56 -75 191 -5 245 24 19 25 15 2 -9z
m283 -318 c-3 -5 -12 -10 -18 -10 -7 0 -6 4 3 10 19 12 23 12 15 0z m-35 -14
c0 -3 -4 -8 -10 -11 -5 -3 -10 -1 -10 4 0 6 5 11 10 11 6 0 10 -2 10 -4z"/>
<path d="M4340 3960 c0 -5 5 -10 10 -10 6 0 10 5 10 10 0 6 -4 10 -10 10 -5 0
-10 -4 -10 -10z"/>
<path d="M4300 3950 c0 -13 18 -22 24 -11 3 5 -1 11 -9 15 -8 3 -15 1 -15 -4z"/>
<path d="M1883 3925 c0 -8 10 -23 21 -32 15 -14 18 -14 8 -2 -6 9 -10 18 -7
21 3 3 -1 10 -8 16 -10 9 -14 8 -14 -3z"/>
<path d="M1478 3883 c7 -3 16 -2 19 1 4 3 -2 6 -13 5 -11 0 -14 -3 -6 -6z"/>
<path d="M4340 3879 c0 -5 5 -7 10 -4 6 3 10 8 10 11 0 2 -4 4 -10 4 -5 0 -10
-5 -10 -11z"/>
<path d="M1480 3861 c0 -6 5 -13 10 -16 6 -3 10 1 10 9 0 9 -4 16 -10 16 -5 0
-10 -4 -10 -9z"/>
<path d="M4269 3855 c-2 -31 -9 -49 -21 -57 -8 -6 -1 -8 22 -4 18 4 38 12 42
19 6 9 12 7 23 -7 11 -15 27 -19 80 -19 36 0 65 -3 65 -7 0 -11 -165 -21 -168
-10 -7 19 -32 10 -32 -11 0 -12 4 -18 11 -13 7 4 10 1 7 -7 -3 -9 -16 -13 -32
-11 -15 2 -33 -1 -40 -7 -8 -7 -21 -4 -41 9 -39 26 -53 25 -30 0 10 -11 22
-17 28 -13 5 3 7 1 4 -4 -4 -6 1 -17 10 -24 15 -12 16 -12 10 4 -6 16 -4 16
23 2 l30 -15 -31 -43 c-17 -23 -47 -52 -67 -64 -20 -13 -30 -23 -21 -23 8 0
20 5 27 12 9 9 12 9 12 1 0 -7 -9 -15 -20 -18 -11 -3 -20 -11 -20 -16 0 -6 -4
-8 -9 -5 -5 3 -12 -5 -15 -18 -4 -18 -11 -22 -28 -19 -22 4 -23 1 -24 -51 0
-31 2 -56 5 -56 10 0 4 -183 -7 -217 -6 -17 -8 -34 -5 -37 3 -3 0 -12 -6 -20
-9 -10 -9 -16 -1 -21 8 -5 5 -11 -6 -20 -10 -7 -19 -21 -20 -31 -2 -11 -5 -31
-8 -46 -4 -21 -1 -28 17 -34 12 -5 25 -7 30 -6 7 2 11 -13 8 -30 0 -5 3 -8 9
-8 5 0 6 -8 3 -17 -6 -15 -4 -16 9 -5 13 11 16 9 16 -13 0 -14 -4 -28 -9 -31
-16 -10 -9 -23 9 -17 14 5 13 1 -5 -17 -20 -21 -20 -25 -6 -47 15 -22 14 -23
-3 -16 -17 6 -17 5 -5 -10 11 -14 11 -17 0 -17 -10 0 -10 -3 -1 -12 17 -17 15
-28 -5 -21 -11 4 -8 -2 8 -18 21 -21 22 -24 6 -27 -9 -2 -17 -8 -17 -13 0 -6
4 -8 9 -5 10 7 7 -39 -7 -99 -6 -27 -5 -47 2 -59 8 -14 8 -20 -1 -23 -7 -3
-13 -12 -13 -21 0 -15 -2 -15 -10 -2 -9 13 -11 13 -19 0 -6 -8 -7 -17 -3 -20
11 -8 8 -40 -4 -48 -11 -7 -27 -42 -19 -42 2 0 16 5 31 11 l28 10 -27 -25
c-15 -14 -27 -31 -27 -38 1 -8 6 -6 15 6 13 17 14 17 11 -5 -1 -13 -8 -34 -14
-46 -7 -12 -12 -30 -12 -40 0 -19 -32 -53 -50 -53 -6 0 -10 -4 -10 -10 0 -5 7
-7 15 -4 9 4 15 0 15 -10 0 -9 -7 -16 -15 -16 -8 0 -19 -9 -25 -19 -13 -26
-13 -34 3 -25 8 6 8 3 -1 -9 -12 -14 -6 -32 39 -127 44 -93 55 -109 71 -104
10 3 24 2 31 -4 7 -5 33 -8 59 -8 62 1 57 -14 -12 -36 -72 -24 -123 -15 -155
26 -33 44 -85 156 -85 185 0 25 0 25 -33 -7 -34 -33 -59 -44 -36 -15 13 15 12
15 -10 4 -18 -10 -21 -15 -10 -22 16 -9 14 -11 -26 -32 l-30 -16 30 -2 c17 -1
39 -1 50 0 15 1 17 -1 7 -11 -20 -20 -14 -27 28 -34 22 -4 40 -11 40 -16 0
-17 28 -38 50 -38 15 0 20 -5 17 -14 -4 -9 8 -18 34 -26 l39 -13 -32 -20 c-18
-10 -50 -35 -70 -55 l-38 -36 -25 24 c-17 16 -25 33 -24 50 6 65 -21 87 -112
90 -65 2 -79 -2 -176 -49 l-75 -37 -35 35 c-33 33 -36 34 -91 28 -32 -4 -75
-13 -95 -22 -35 -15 -39 -14 -59 5 -12 11 -37 23 -55 26 -38 7 -50 19 -30 31
8 4 19 17 26 28 10 18 11 17 5 -7 -9 -39 11 -35 26 5 7 17 14 26 17 20 7 -20
23 -15 23 6 0 12 7 18 17 17 13 -1 20 9 24 34 4 19 7 27 8 18 1 -25 21 -23 21
2 0 10 9 24 19 30 11 5 27 17 36 26 9 9 26 17 37 18 29 1 47 31 29 48 -11 10
-12 10 -7 1 9 -15 -10 -18 -19 -3 -4 6 -12 10 -18 9 -25 -3 -36 2 -65 26 -26
22 -30 23 -25 6 3 -10 0 -22 -6 -25 -7 -4 -11 1 -11 13 0 11 -5 23 -12 27 -7
5 -9 2 -5 -8 10 -27 -5 -29 -25 -3 -19 24 -46 36 -32 14 4 -8 0 -8 -15 0 -11
7 -21 17 -21 24 0 8 -4 6 -10 -3 -9 -13 -13 -11 -30 10 -15 19 -19 20 -13 6 6
-19 5 -18 -25 2 -17 13 -34 28 -38 34 -4 7 -9 6 -15 -3 -7 -12 -11 -12 -17 -1
-5 7 -13 12 -18 11 -17 -4 -64 20 -64 33 0 10 -2 10 -8 1 -10 -17 -35 4 -51
45 -7 17 -18 32 -23 32 -5 0 -4 -9 2 -19 17 -32 11 -38 -11 -12 -16 19 -22 22
-29 12 -6 -11 -10 -9 -19 8 -7 11 -21 21 -31 21 -14 0 -20 7 -20 24 0 25 -25
43 -34 23 -3 -9 -5 -9 -5 1 -1 6 -7 12 -15 12 -8 0 -21 17 -30 38 -13 30 -16
31 -11 9 9 -47 -11 -22 -25 30 -15 55 -30 78 -30 44 0 -12 -4 -19 -10 -16 -5
3 -10 15 -10 25 0 10 -8 25 -18 32 -10 7 -19 26 -20 43 -2 28 -22 62 -22 37 0
-6 -9 -16 -20 -22 -16 -9 -18 -8 -14 5 10 24 -4 18 -37 -17 -26 -28 -29 -30
-18 -8 10 21 10 23 -2 14 -8 -6 -27 -14 -42 -18 -15 -4 -25 -10 -23 -15 3 -5
-2 -15 -12 -22 -16 -13 -16 -13 -2 5 14 18 13 18 -8 12 -12 -3 -32 -9 -44 -12
-13 -4 -35 -20 -49 -35 -28 -31 -63 -43 -39 -14 15 18 0 20 -19 3 -11 -11 -13
-10 -8 4 9 25 -2 29 -40 13 -44 -19 -48 -19 -33 0 17 21 9 19 -65 -14 -49 -23
-65 -26 -69 -16 -6 16 -41 12 -99 -10 -43 -17 -47 -18 -47 -7 0 4 12 15 28 24
33 21 15 24 -24 3 -17 -9 -31 -11 -34 -5 -4 7 -24 5 -53 -4 -44 -13 -46 -13
-37 4 16 29 12 32 -12 10 -24 -22 -38 -26 -38 -9 0 8 -12 10 -36 6 -29 -5 -35
-3 -30 9 5 12 2 12 -15 3 -31 -16 -37 0 -9 21 14 11 20 20 14 20 -6 0 -19 -9
-29 -20 -11 -12 -21 -16 -25 -10 -8 14 -70 25 -70 12 0 -16 29 -35 45 -28 9 3
13 2 10 -4 -3 -6 -12 -10 -20 -10 -8 0 -17 -5 -21 -12 -5 -8 0 -9 14 -6 17 5
22 2 22 -12 0 -11 8 -24 18 -29 15 -9 15 -10 -6 -11 -20 0 -21 -2 -10 -21 11
-18 11 -23 0 -26 -10 -4 -6 -14 15 -36 15 -17 21 -26 11 -19 -9 7 -18 9 -21 5
-8 -12 24 -46 56 -61 15 -6 25 -17 22 -22 -4 -6 -11 -8 -16 -5 -5 3 -6 -1 -3
-9 8 -21 13 -20 40 10 28 30 28 22 9 109 -9 45 -11 73 -5 79 7 7 10 4 10 -6 0
-10 6 -15 18 -12 9 2 37 -2 61 -9 44 -14 44 -14 72 -99 43 -134 109 -255 171
-315 88 -85 229 -165 351 -199 37 -10 67 -21 67 -25 0 -3 -11 -12 -25 -19 -14
-8 -35 -29 -46 -47 -23 -37 -28 -38 -75 -21 -29 10 -32 15 -27 43 12 74 -46
111 -147 94 -72 -11 -72 -11 -167 76 -70 63 -157 189 -206 296 l-32 71 -26
-39 c-23 -35 -24 -42 -12 -59 7 -10 11 -24 9 -31 -3 -8 2 -13 12 -13 10 0 24
-6 30 -12 10 -10 15 -10 22 2 6 10 8 -3 6 -40 -3 -61 6 -80 38 -80 16 0 18 -2
7 -9 -7 -5 -10 -14 -7 -20 5 -8 -27 -11 -111 -11 -180 0 -381 -18 -428 -39
-37 -16 -46 -28 -94 -125 -93 -190 -119 -297 -85 -355 10 -17 23 -31 28 -31 5
0 2 -8 -7 -18 -20 -22 -22 -36 -4 -26 6 3 1 -4 -13 -18 -14 -13 -28 -24 -32
-24 -3 1 -19 -10 -34 -24 -26 -24 -26 -24 -15 -2 6 12 8 22 2 22 -5 0 -11 -7
-15 -15 -3 -8 -14 -15 -25 -15 -10 0 -26 -11 -35 -25 -16 -25 -44 -37 -30 -13
5 9 2 9 -9 -1 -18 -14 -23 -26 -8 -16 27 16 5 -101 -23 -124 -8 -7 -24 -7 -42
-2 -16 4 -39 5 -51 0 -17 -6 -25 -4 -32 9 -9 14 -10 11 -11 -15 0 -18 4 -33
10 -33 5 0 22 -14 37 -30 28 -32 46 -39 37 -15 -4 8 -1 15 6 15 7 0 10 -8 7
-19 -8 -31 24 -54 57 -41 15 5 40 10 56 10 32 0 90 29 90 46 0 6 10 16 23 23
l22 12 -22 -5 c-31 -6 -29 1 7 19 37 19 46 19 30 0 -15 -18 -8 -88 12 -112 7
-9 28 -22 46 -30 21 -9 32 -20 32 -33 0 -12 7 -32 16 -46 23 -34 9 -45 -63
-53 -67 -7 -83 -30 -37 -54 l27 -14 -44 -6 c-68 -10 -206 -55 -225 -74 -15
-16 -15 -18 12 -41 l29 -24 -38 5 c-20 3 -37 4 -37 1 0 -3 7 -21 15 -42 15
-33 14 -39 -2 -70 -12 -23 -28 -35 -48 -39 -25 -5 -26 -7 -10 -13 11 -4 24 -5
30 -2 5 3 26 5 45 4 26 -2 31 0 20 7 -12 9 -9 11 13 11 15 0 27 4 27 10 0 5 7
7 15 4 8 -4 15 -2 15 4 0 6 15 9 33 8 17 -2 40 -4 49 -5 10 0 17 -6 15 -13 -1
-6 10 -18 26 -25 15 -8 27 -19 27 -25 0 -5 8 -7 18 -4 9 3 4 -5 -13 -20 -18
-17 -31 -22 -33 -15 -3 9 -9 8 -22 -4 -10 -9 -21 -15 -26 -14 -22 5 -64 -22
-64 -41 0 -18 5 -20 40 -15 32 4 40 2 40 -11 0 -8 4 -13 9 -9 6 3 13 -1 18 -8
4 -7 35 -21 68 -29 33 -9 71 -19 84 -24 17 -5 22 -4 17 4 -4 7 -2 13 3 13 136
16 180 14 203 -9 l20 -20 -23 -13 c-13 -7 -26 -13 -29 -14 -3 0 -16 -8 -29
-17 -25 -17 -25 -18 -8 -53 9 -20 17 -42 17 -50 0 -8 6 -15 14 -15 9 0 17 16
21 42 4 23 13 48 20 55 18 17 26 16 19 -2 -5 -11 3 -17 25 -21 17 -4 34 -11
37 -15 3 -5 14 -9 25 -9 10 0 19 -7 19 -15 0 -8 13 -21 30 -30 25 -13 81 -15
387 -13 l358 3 0 25 c0 39 55 170 71 170 12 0 20 -28 14 -55 -1 -5 8 -1 19 9
11 10 25 15 32 10 7 -4 10 -3 5 4 -3 6 -3 13 2 16 5 3 9 0 9 -7 0 -7 2 -16 4
-22 3 -12 -31 -126 -43 -140 -17 -20 -7 33 17 84 19 40 21 50 9 40 -22 -18
-53 -87 -54 -116 0 -21 5 -23 45 -23 49 0 45 -6 49 81 2 35 26 65 37 47 7 -10
9 -10 9 1 0 8 3 12 6 9 3 -3 -3 -23 -14 -45 -29 -58 -36 -93 -17 -93 9 0 15 9
15 23 0 13 13 44 30 70 29 47 48 62 36 30 -4 -9 -2 -19 4 -23 8 -5 5 -19 -9
-46 -12 -21 -21 -42 -21 -46 0 -5 223 -8 495 -8 272 0 495 4 495 8 0 4 26 20
58 34 59 28 112 34 125 14 5 -8 10 -7 16 4 5 8 8 17 5 21 -2 4 3 10 12 13 14
5 14 8 0 21 -8 8 -26 15 -39 15 -16 0 -26 7 -30 20 -7 29 11 35 36 13 37 -33
51 -39 35 -14 -7 12 -16 21 -20 21 -5 0 -8 5 -8 10 0 6 7 10 15 10 8 0 12 6 9
14 -6 14 21 23 78 25 30 1 77 -47 58 -59 -7 -4 -3 -13 10 -25 11 -10 20 -15
20 -12 0 4 9 -2 20 -13 12 -12 25 -18 30 -15 6 4 13 -1 16 -10 5 -12 9 -13 20
-4 12 10 13 9 8 -5 -4 -10 0 -18 11 -22 9 -4 14 -13 11 -20 -3 -8 -2 -14 3
-14 5 0 11 9 14 19 3 11 17 22 36 26 37 8 41 13 34 47 -4 23 -8 25 -24 15 -10
-6 -22 -8 -26 -3 -11 11 28 38 48 33 9 -2 22 5 29 17 12 19 12 20 -3 7 -20
-16 -23 -2 -4 19 16 18 -12 -1 -67 -47 -22 -18 -47 -33 -55 -33 -9 0 -1 9 17
20 17 11 53 41 78 67 34 36 47 44 53 34 5 -7 23 -14 42 -15 18 -1 34 -7 37
-14 2 -8 9 -9 20 -3 31 15 72 22 72 11 0 -5 -7 -10 -16 -10 -8 0 -12 -4 -9
-10 10 -16 45 -12 45 6 0 8 5 12 10 9 6 -3 10 -1 10 4 0 6 -3 11 -8 11 -4 0
-12 10 -17 23 -6 12 -16 23 -22 23 -26 3 -28 5 -13 14 10 6 21 4 34 -8 18 -16
18 -16 8 4 -6 12 -7 26 -2 34 7 12 12 11 29 -4 11 -10 18 -23 14 -29 -3 -6 -1
-7 5 -3 7 4 12 14 12 22 0 8 5 12 10 9 13 -8 13 -62 1 -70 -5 -3 -12 -18 -16
-33 -4 -21 3 -44 32 -95 21 -36 43 -67 50 -67 7 0 17 -9 23 -21 11 -20 12 -20
25 -2 10 12 14 14 15 4 0 -8 6 -11 16 -7 8 3 12 2 9 -4 -3 -6 0 -10 9 -10 8 0
17 -6 20 -12 3 -7 3 -2 0 12 -9 38 -52 120 -85 163 l-30 37 171 0 c190 0 201
-2 299 -70 l61 -41 0 29 c0 36 35 90 77 118 17 11 65 29 107 38 l76 18 0 208
0 208 -40 7 c-47 8 -152 58 -171 82 -8 9 11 2 41 -15 43 -24 146 -62 167 -62
2 0 3 6 3 13 0 6 -28 20 -61 30 -34 10 -60 20 -57 22 2 2 26 -2 53 -10 26 -8
52 -15 57 -15 4 0 8 24 8 54 0 57 -18 78 -46 55 -15 -12 -74 -3 -74 12 0 25
-113 1 -140 -31 l-18 -21 -61 30 c-33 17 -66 31 -73 31 -18 0 -88 48 -88 60 0
6 10 10 23 10 27 0 41 10 50 33 8 21 27 22 27 1 0 -12 6 -15 23 -10 60 19 254
66 270 66 17 0 15 4 -8 32 -25 30 -27 36 -21 107 18 245 18 229 -1 201 -28
-40 -70 -80 -84 -80 -7 0 5 16 27 36 21 19 31 33 22 30 -24 -7 -23 -1 3 25 21
21 21 28 8 134 0 6 -4 -1 -9 -15 l-7 -25 -11 25 c-7 18 -11 21 -15 10 -14 -40
-17 -42 -12 -8 3 22 1 39 -6 43 -7 5 -8 20 -4 42 9 48 -11 34 -36 -24 -25 -58
-24 -74 2 -43 17 20 20 21 14 5 -4 -11 -8 -45 -9 -75 -5 -94 -5 -97 -16 -79
-5 9 -5 31 0 55 13 54 12 63 -4 35 l-13 -24 -5 34 c-3 19 -1 45 3 59 l9 25
-19 -23 c-21 -24 -61 -122 -61 -147 0 -8 5 -15 10 -15 6 0 10 -9 10 -20 0 -11
5 -20 11 -20 5 0 7 -5 3 -11 -4 -7 -9 -25 -10 -42 -4 -34 -22 -60 -35 -51 -5
3 -4 15 2 27 9 20 8 20 -9 -2 -12 -15 -25 -22 -36 -18 -17 7 -23 47 -6 47 6 0
10 -7 10 -15 0 -8 5 -15 10 -15 6 0 10 16 10 35 0 29 -6 39 -32 55 -42 26 -57
26 -27 0 l24 -20 -23 -6 c-21 -6 -22 -8 -7 -30 21 -33 19 -41 -15 -52 -27 -10
-31 -8 -45 16 -12 21 -15 22 -10 5 14 -52 -77 -55 -129 -4 -39 38 -62 36 -72
-5 -8 -33 23 -64 65 -64 24 -1 24 -2 7 -12 -11 -6 -41 -8 -75 -5 -43 5 -61 12
-78 31 -16 20 -22 22 -27 11 -3 -9 5 -22 20 -31 15 -10 23 -23 19 -32 -3 -9 0
-12 9 -9 8 3 18 -5 25 -20 6 -13 17 -23 24 -20 14 4 39 -61 31 -85 -4 -14 -1
-16 13 -11 15 6 16 4 6 -8 -10 -12 -9 -20 1 -40 7 -13 11 -31 9 -39 -3 -8 5
-4 16 10 11 14 21 20 21 13 0 -8 17 -6 57 8 65 22 63 22 63 11 0 -5 -18 -18
-40 -31 -22 -12 -44 -31 -50 -41 -5 -10 -10 -57 -10 -103 0 -69 -4 -89 -20
-109 -22 -29 -78 -58 -110 -58 -17 0 -20 4 -15 21 5 15 4 19 -4 15 -6 -4 -54
-2 -105 5 l-95 12 24 19 c35 28 22 48 -32 48 -41 0 -143 35 -143 49 0 3 20 14
45 24 25 11 45 24 45 30 0 7 4 5 10 -3 7 -12 12 -7 25 23 14 35 31 54 19 22
-11 -27 4 -16 26 21 16 25 21 44 16 66 -5 26 -4 29 9 18 25 -21 19 11 -8 40
-43 47 -77 97 -70 103 3 4 1 7 -6 7 -7 0 -11 6 -8 13 3 6 -14 32 -37 56 -22
24 -36 41 -30 38 14 -8 27 20 14 28 -6 4 -10 15 -10 27 0 16 3 18 14 9 16 -14
42 11 31 30 -5 8 -1 9 14 4 13 -4 21 -2 21 6 0 15 51 59 62 53 4 -3 8 2 8 10
0 8 -4 18 -10 21 -16 10 -12 28 5 21 18 -7 19 5 3 24 -9 9 -5 9 12 -2 19 -12
24 -23 22 -44 -2 -16 -8 -30 -13 -32 -11 -4 -12 -22 -1 -22 13 0 32 48 32 80
0 17 -5 30 -10 30 -11 0 -9 22 3 31 4 3 -3 21 -16 40 -13 19 -22 44 -19 55 11
46 4 78 -21 100 -14 12 -30 23 -36 25 -13 5 -27 89 -15 89 5 0 22 -20 38 -45
29 -47 84 -96 149 -133 21 -12 40 -22 43 -22 2 0 4 17 4 37 0 34 40 262 47
272 2 3 17 -11 33 -31 17 -20 65 -55 108 -78 42 -23 89 -53 104 -68 15 -14 29
-24 31 -21 1 2 16 22 32 43 35 48 54 99 55 149 0 20 2 37 5 37 9 0 129 -130
142 -154 7 -11 12 -30 12 -41 -1 -15 -4 -11 -15 13 -19 42 -28 41 -19 -4 4
-24 3 -34 -4 -29 -7 4 -11 -12 -11 -47 l0 -53 25 27 c14 15 25 37 25 50 0 17
3 19 9 9 12 -19 54 10 92 66 16 23 34 43 39 43 15 0 12 -13 -14 -50 -13 -19
-26 -44 -30 -56 -6 -20 -6 -21 44 -5 l50 15 0 992 c0 937 -1 993 -17 997 -17
4 -17 5 0 6 11 1 17 9 17 25 0 24 -2 25 -97 28 -54 2 -258 1 -453 -2 -258 -4
-358 -3 -365 5 -5 7 -16 10 -24 7 -7 -2 -17 2 -22 9 -5 8 -9 10 -10 4z m336
-74 c3 -6 -3 -9 -14 -8 -11 0 -17 5 -15 9 7 11 22 10 29 -1z m161 -4 c4 -4
-12 -6 -35 -5 -23 1 -44 4 -46 8 -5 8 72 6 81 -3z m54 -3 c0 -2 -9 -4 -20 -4
-11 0 -20 4 -20 9 0 5 9 7 20 4 11 -3 20 -7 20 -9z m120 6 c0 -5 -10 -10 -22
-9 -22 0 -22 1 -3 9 11 5 21 9 23 9 1 1 2 -3 2 -9z m130 -1 c0 -4 -21 -7 -47
-7 -34 0 -42 2 -28 8 23 9 75 8 75 -1z m130 2 c0 -4 -13 -8 -30 -9 -16 -1 -30
1 -30 5 0 5 14 8 30 9 17 1 30 -2 30 -5z m-930 -71 c8 -5 11 -10 5 -10 -5 0
-17 5 -25 10 -8 5 -10 10 -5 10 6 0 17 -5 25 -10z m-1713 -1247 c-3 -10 -5 -4
-5 12 0 17 2 24 5 18 2 -7 2 -21 0 -30z m-756 -137 c6 3 21 -2 35 -11 15 -9
34 -15 44 -12 14 4 20 -2 25 -25 8 -34 3 -41 -44 -57 -43 -14 -55 -4 -70 54
-11 45 -14 82 -4 57 2 -6 9 -9 14 -6z m157 -38 c10 14 11 12 6 -13 -5 -25 -4
-28 7 -17 19 17 36 15 104 -14 33 -14 80 -32 105 -39 l45 -13 -35 -2 c-19 -1
-60 -1 -90 0 -43 1 -62 -3 -80 -18 -29 -23 -22 -40 8 -21 16 10 31 10 76 0
l57 -13 -26 -20 c-25 -20 -50 -66 -41 -75 2 -3 15 2 28 10 27 18 128 40 137
31 3 -4 0 -9 -8 -12 -32 -11 -61 -51 -61 -84 l0 -32 16 22 c29 42 55 43 96 6
56 -50 142 -63 197 -29 18 10 51 -24 51 -53 0 -21 2 -22 15 -12 19 16 19 60 0
86 -8 10 -15 25 -15 32 0 17 109 -68 116 -91 3 -9 10 -15 15 -12 15 10 10 69
-8 95 -15 21 -15 23 0 17 8 -3 35 -11 59 -17 24 -6 51 -21 60 -33 l18 -22 0
21 c0 27 -24 48 -90 78 -49 22 -103 55 -90 56 3 0 23 -7 45 -15 22 -8 65 -15
95 -16 67 -1 103 -11 106 -27 1 -7 0 -8 -3 -2 -2 5 -14 10 -26 10 -21 0 -21
-1 3 -13 31 -16 60 -10 61 12 0 11 2 12 6 3 4 -10 8 -10 21 0 10 6 -5 -12 -33
-41 -56 -59 -115 -97 -190 -123 -43 -15 -46 -17 -20 -18 28 0 31 -4 42 -47 7
-31 8 -52 1 -58 -5 -5 -42 -10 -83 -10 -65 0 -74 2 -79 20 -12 41 -6 66 17 75
16 6 -2 9 -63 10 -111 1 -200 20 -291 64 -173 82 -268 198 -316 386 -2 8 3 3
10 -12 11 -25 14 -26 25 -10z m261 -24 c2 -2 -11 -4 -31 -4 -23 0 -35 5 -35
14 0 11 7 12 31 3 17 -5 33 -12 35 -13z m-253 -119 c15 -31 33 -60 41 -66 10
-9 7 -19 -18 -50 -17 -22 -37 -39 -45 -39 -29 0 -112 144 -101 174 5 14 51 33
84 35 7 1 25 -24 39 -54z m756 5 c17 0 20 -2 9 -9 -12 -7 -11 -10 5 -14 10 -2
6 -3 -11 0 -16 2 -39 13 -50 24 l-20 21 22 -11 c12 -6 32 -11 45 -11z m179
-67 c13 -16 12 -17 -3 -4 -17 13 -22 21 -14 21 2 0 10 -8 17 -17z m-741 -141
c0 -13 -50 -82 -59 -82 -14 0 -104 64 -114 81 -8 13 -2 26 23 57 l34 40 58
-45 c32 -24 58 -47 58 -51z m799 71 c-8 -9 -9 -14 -3 -10 7 4 34 3 60 -2 35
-7 53 -6 64 2 13 11 13 10 0 -7 -22 -29 -72 -76 -80 -76 -4 0 -21 17 -38 39
-28 35 -29 39 -14 55 21 21 28 21 11 -1z m244 -4 c14 -6 30 -23 36 -36 11 -24
7 -31 -77 -113 -82 -81 -95 -90 -160 -109 -39 -12 -97 -39 -129 -61 l-58 -39
-25 27 c-14 15 -36 34 -49 43 -25 15 -24 16 45 40 76 27 183 101 285 198 66
62 88 70 132 50z m-276 -71 c18 -18 33 -39 33 -48 0 -25 -126 -110 -164 -110
-15 0 -36 49 -36 86 0 17 11 28 45 45 25 13 53 31 62 41 21 24 21 23 60 -14z
m-1137 8 c0 -2 -8 -10 -17 -17 -16 -13 -17 -12 -4 4 13 16 21 21 21 13z m476
-50 c32 -13 59 -28 59 -33 -1 -28 -18 -72 -30 -77 -23 -8 -135 30 -135 47 0
16 33 87 40 87 4 0 33 -11 66 -24z m-455 -22 c48 -28 77 -84 62 -117 -13 -29
-15 -29 -186 -46 -141 -14 -357 -52 -357 -63 0 -4 30 -8 68 -8 37 -1 101 -7
142 -14 195 -35 280 -123 235 -244 -22 -56 -138 -177 -232 -240 -76 -52 -92
-58 -89 -39 1 9 38 42 81 75 190 142 249 246 190 336 -39 59 -177 96 -362 96
-95 0 -123 3 -123 13 0 23 38 56 77 67 62 18 363 60 430 60 34 0 68 3 77 6 24
9 19 40 -13 76 -29 33 -29 33 -141 36 -137 5 -425 -14 -459 -31 -45 -21 -161
-281 -161 -360 0 -31 -9 -30 142 -27 135 2 218 -12 255 -44 25 -22 26 -25 13
-55 -19 -48 -68 -104 -138 -160 -74 -60 -189 -126 -214 -124 -10 1 -16 -2 -13
-7 4 -6 -2 -7 -11 -3 -13 5 -15 3 -9 -7 5 -9 4 -11 -4 -6 -6 4 -19 2 -28 -6
-13 -10 -15 -10 -9 0 4 7 35 26 69 44 171 85 350 252 322 298 -12 20 -88 30
-229 30 -169 0 -186 6 -186 67 0 78 117 347 164 378 39 26 241 43 462 41 120
-2 145 -5 175 -22z m721 -37 c4 -6 5 -27 3 -47 -2 -19 -4 -39 -4 -44 -1 -11
-131 0 -144 13 -5 5 -7 29 -3 53 l7 44 67 -4 c37 -3 70 -9 74 -15z m-779 -8
c20 -5 37 -13 37 -17 0 -4 -73 -15 -162 -25 -190 -21 -340 -50 -373 -71 -27
-18 -69 -101 -61 -121 4 -12 30 -15 133 -15 232 -1 383 -47 383 -117 0 -5 -50
-10 -111 -11 -98 -2 -117 0 -158 20 -42 21 -61 23 -198 23 -95 0 -153 4 -153
10 0 57 109 291 142 305 52 22 455 38 521 19z m391 -75 c20 -20 20 -37 -4
-104 -11 -30 -19 -75 -19 -100 0 -54 21 -206 30 -215 12 -11 59 18 65 41 3 12
14 30 25 40 14 13 19 31 19 69 0 79 26 154 70 197 32 33 44 38 83 38 29 0 53
-7 68 -19 22 -18 23 -19 9 -104 -14 -90 -5 -194 22 -252 16 -36 26 -31 51 23
24 52 30 176 14 283 -10 63 4 89 49 89 59 0 174 -85 174 -128 0 -12 8 -8 33
14 80 76 172 114 279 116 70 1 108 -16 108 -49 0 -17 3 -17 43 7 18 11 59 25
90 31 49 10 60 9 83 -6 23 -15 26 -21 20 -56 l-6 -39 61 40 c115 74 253 109
304 76 31 -20 32 -50 3 -70 -12 -9 -18 -16 -12 -16 6 0 32 -18 57 -40 l46 -40
48 48 c59 59 140 100 226 115 57 9 68 9 92 -7 39 -25 30 -55 -29 -93 -69 -45
-163 -140 -186 -189 -14 -29 -20 -61 -20 -113 0 -121 -46 -180 -131 -168 -26
3 -42 0 -50 -9 -7 -9 -31 -14 -64 -14 -77 0 -195 62 -286 149 l-71 68 -26 -39
c-16 -25 -26 -53 -25 -74 2 -62 -65 -83 -141 -45 -37 19 -37 19 -74 -2 -57
-34 -178 -31 -252 5 -31 15 -68 41 -84 57 l-28 29 -46 -48 c-57 -58 -94 -70
-223 -70 -86 0 -102 3 -152 28 l-56 28 -18 -23 c-31 -41 -84 -52 -255 -53
-129 0 -159 3 -172 16 -21 20 -20 30 6 72 33 53 37 214 9 296 -30 84 -27 118
10 161 50 56 195 87 233 49z m402 -79 c0 -30 -4 -55 -8 -55 -4 0 -8 13 -8 28
0 16 -7 37 -15 48 -20 27 -19 34 8 34 20 0 22 -5 23 -55z m2385 -176 c-5 -13
-10 -19 -10 -12 -1 15 10 45 15 40 3 -2 0 -15 -5 -28z m-3071 -18 c0 -11 -4
-23 -10 -26 -6 -4 -10 5 -10 19 0 14 5 26 10 26 6 0 10 -9 10 -19z m3155 -81
c3 -5 -1 -10 -9 -10 -9 0 -16 5 -16 10 0 6 4 10 9 10 6 0 13 -4 16 -10z m-35
-19 c0 -5 -6 -14 -14 -20 -12 -10 -13 -8 -9 8 5 21 23 30 23 12z m-418 -111
c21 -19 41 -25 83 -22 19 2 19 1 2 -12 -22 -17 -67 -3 -99 31 -26 28 -15 30
14 3z m-3432 -25 c-7 -9 -15 -13 -19 -10 -3 3 1 10 9 15 21 14 24 12 10 -5z
m166 3 c13 -14 -209 -152 -261 -163 l-30 -6 25 15 c23 13 23 15 7 22 -17 6
-16 8 5 18 13 6 23 17 23 23 0 12 81 86 105 96 15 6 119 1 126 -5z m3574 -9
c0 -6 -4 -7 -10 -4 -5 3 -10 11 -10 16 0 6 5 7 10 4 6 -3 10 -11 10 -16z
m-126 -14 c11 -15 29 -25 45 -25 23 -1 24 -2 8 -11 -26 -15 -105 31 -91 53 9
14 18 9 38 -17z m96 -68 c0 -5 -4 -5 -10 -2 -5 3 -10 14 -10 23 0 15 2 15 10
2 5 -8 10 -19 10 -23z m-3054 -36 c-25 -47 -19 -48 14 -3 33 47 45 51 59 23 6
-10 24 -24 41 -31 33 -14 36 -20 18 -39 -11 -10 -10 -11 4 -6 17 7 17 4 3 -35
-14 -38 -13 -41 1 -30 13 12 14 10 3 -13 -7 -15 -15 -24 -20 -21 -4 2 -12 -3
-17 -12 -6 -11 -11 -13 -16 -5 -4 6 -36 11 -77 11 -48 0 -69 4 -69 12 0 7 -7
3 -15 -9 -8 -11 -24 -23 -35 -26 -19 -5 -21 -2 -14 26 12 57 28 86 79 141 27
30 51 53 53 51 2 -2 -4 -17 -12 -34z m-339 -27 c0 -8 -22 -26 -50 -40 -27 -14
-46 -21 -42 -15 9 15 -5 13 -35 -4 -14 -8 -29 -14 -35 -14 -9 -1 143 86 156
88 3 1 6 -6 6 -15z m1382 -26 l-11 -21 36 23 c26 16 45 20 64 16 15 -4 35 -7
46 -7 18 0 18 -1 0 -21 -13 -14 -14 -19 -4 -13 8 4 -7 -16 -35 -46 -27 -29
-36 -42 -20 -29 l30 25 -23 -27 c-20 -22 -30 -25 -62 -22 -43 5 -97 -14 -146
-51 l-32 -25 -41 23 -40 23 25 38 c14 21 24 40 21 42 -2 2 -16 -13 -30 -35
-25 -38 -28 -39 -59 -30 -51 16 -165 10 -227 -11 -31 -10 -56 -18 -56 -17 0 1
-6 12 -13 25 -7 13 -10 27 -7 32 3 6 0 7 -8 4 -8 -3 -18 -1 -21 4 -7 11 31 48
40 39 4 -3 16 -1 28 5 19 10 18 8 -4 -17 -23 -26 -20 -25 30 9 49 32 61 36
122 36 41 0 68 -4 70 -11 3 -9 9 -9 25 0 14 7 24 7 28 1 3 -5 13 -6 23 -3 9 3
1 -9 -18 -26 -29 -27 -30 -29 -7 -15 31 19 47 13 27 -11 -21 -25 5 -17 30 10
12 13 26 22 30 20 4 -2 17 6 30 20 12 13 30 23 39 23 9 0 25 3 35 7 14 6 17 5
11 -4 -4 -7 12 -2 36 12 24 14 45 26 47 26 1 1 -2 -9 -9 -21z m251 -38 c4 -7
15 -10 24 -7 15 6 15 4 4 -12 -7 -10 -45 -53 -84 -95 l-72 -77 -22 30 c-27 40
-22 54 44 124 55 58 86 69 106 37z m-1078 -11 c2 -6 32 -10 70 -10 59 0 66 -2
61 -17 -6 -15 -5 -15 10 -3 15 12 17 12 11 -3 -3 -9 -11 -15 -18 -14 -6 1 -38
-6 -71 -16 -49 -14 -69 -28 -113 -74 l-53 -57 5 59 c6 59 10 69 55 119 27 29
37 33 43 16z m1566 -15 c27 -19 29 -65 5 -86 -10 -8 -44 -30 -76 -47 -64 -36
-117 -78 -117 -92 0 -5 18 -9 40 -9 144 0 260 -68 260 -153 0 -101 -137 -254
-298 -334 -58 -29 -86 -37 -135 -38 -77 -3 -97 7 -97 45 0 24 8 35 43 56 69
44 143 111 176 161 17 25 31 50 31 54 0 11 -60 46 -92 54 l-28 7 0 -58 c-1
-130 -55 -204 -147 -204 -58 0 -104 25 -187 101 l-69 64 6 -35 c19 -106 19
-116 1 -134 -14 -14 -29 -17 -71 -14 -62 5 -103 31 -118 74 -5 16 -10 30 -11
32 -1 1 -16 -11 -35 -29 -60 -56 -125 -83 -204 -83 -79 1 -124 16 -177 63
l-35 31 -19 -21 c-49 -54 -195 -98 -230 -68 -10 8 -46 13 -102 14 -266 2 -272
3 -283 29 -10 20 -8 30 12 57 20 28 24 48 27 130 4 81 1 106 -17 153 -30 81
-28 111 12 151 78 78 263 87 243 11 -3 -12 -13 -50 -22 -85 -15 -56 -16 -74
-5 -155 20 -143 18 -138 53 -120 16 8 32 23 35 32 10 28 35 52 54 52 10 0 20
3 22 8 5 8 -32 126 -51 159 -40 73 41 152 174 169 86 10 115 -23 79 -92 -19
-36 -19 -82 -1 -125 12 -30 14 -31 20 -11 4 12 2 31 -4 42 -14 27 -5 58 29 93
41 44 86 59 181 61 92 1 148 -15 208 -60 l32 -25 26 31 c34 40 74 60 118 60
34 0 40 -6 119 -112 88 -118 123 -156 134 -144 4 3 2 49 -5 102 -6 53 -8 102
-6 109 8 20 60 38 90 31 20 -5 46 3 108 35 142 75 255 98 304 63z m384 -14
c-2 -7 5 -22 15 -34 17 -19 17 -20 0 -7 -37 29 -25 2 18 -43 50 -51 50 -51
-40 -61 -33 -3 -77 -14 -97 -25 l-38 -20 0 23 c0 18 -2 19 -10 7 -5 -8 -10
-32 -10 -53 0 -40 -19 -44 -21 -4 -1 17 -2 18 -6 5 -6 -22 -23 -24 -23 -2 0 8
-4 13 -9 10 -11 -7 -33 42 -25 56 4 6 2 13 -4 17 -16 10 12 79 45 111 20 19
39 27 67 28 21 1 41 3 43 5 2 3 25 3 51 2 31 -2 46 -7 44 -15z m-289 -23 c21
13 36 12 30 -2 -2 -8 -11 -11 -19 -8 -9 3 -14 -2 -14 -13 0 -16 -2 -17 -10 -4
-5 8 -9 22 -9 30 0 10 2 11 6 2 2 -6 10 -9 16 -5z m-2786 -3 c-3 -3 -12 -4
-19 -1 -8 3 -5 6 6 6 11 1 17 -2 13 -5z m2828 -34 c-9 -16 -17 -30 -20 -30 -2
0 1 14 6 30 6 17 15 30 20 30 5 0 3 -13 -6 -30z m-2179 -95 l41 -6 11 -62 c5
-34 9 -63 7 -65 -1 -1 -17 3 -35 10 -30 10 -32 12 -14 19 18 7 18 8 -3 8 -12
1 -24 9 -28 21 -3 10 -20 31 -36 44 -31 26 -31 51 -1 42 10 -2 36 -7 58 -11z
m-132 -19 c27 -8 56 -22 67 -32 20 -18 26 -64 8 -64 -5 0 -8 -4 -5 -9 4 -5 1
-11 -6 -13 -20 -7 19 -58 43 -58 12 0 32 9 46 20 49 38 73 23 73 -45 0 -24 -6
-38 -20 -45 -18 -10 -24 -7 -21 12 0 4 -6 5 -14 2 -8 -4 -15 -2 -15 4 0 6 -22
10 -50 9 -27 -1 -50 -5 -50 -9 0 -5 6 -8 13 -8 9 0 9 -2 -1 -9 -10 -6 -9 -14
4 -38 12 -20 15 -36 9 -49 -4 -10 -7 -23 -6 -27 1 -5 -3 -6 -9 -2 -5 3 -24 -3
-41 -15 -16 -12 -45 -22 -64 -23 -18 0 -32 -4 -29 -8 2 -4 -8 -3 -23 2 -16 5
-47 14 -71 20 -23 5 -40 13 -38 18 3 4 -10 7 -29 6 -18 0 -32 2 -29 6 5 9 -83
22 -96 14 -5 -3 -10 -2 -10 4 0 13 51 23 102 20 25 -1 56 4 75 14 36 19 89 22
127 7 40 -15 31 -26 -19 -23 -49 3 -63 -8 -39 -31 37 -38 159 -3 150 42 -6 33
-18 52 -33 52 -8 0 -12 4 -8 9 3 5 0 13 -6 17 -8 5 -9 3 -4 -6 6 -9 2 -10 -16
-5 -13 4 -28 11 -33 15 -11 11 -38 1 -30 -11 9 -15 -8 -10 -20 5 -10 13 -16
13 -46 -1 -19 -9 -41 -15 -47 -14 -7 1 -13 -3 -13 -9 0 -5 -5 -10 -11 -10 -5
0 -8 3 -6 8 3 4 -23 6 -57 6 -61 -1 -166 15 -176 26 -3 4 -30 7 -60 7 -72 2
-70 2 -70 13 0 14 149 58 232 68 48 6 95 6 138 -1 36 -6 98 -11 138 -12 71 0
75 1 103 33 29 32 39 60 17 46 -7 -5 -9 -2 -5 8 12 32 -96 51 -145 26 -14 -7
-16 -12 -7 -27 8 -12 23 -17 52 -17 22 1 42 -4 44 -10 6 -18 -116 -11 -154 9
-34 18 -57 22 -50 10 3 -5 -26 -9 -64 -11 -43 -2 -69 1 -69 8 0 5 15 10 33 10
17 0 61 14 97 31 111 53 159 60 244 35z m2727 -25 c32 -17 77 -34 99 -37 22
-4 43 -11 46 -15 7 -12 -39 -11 -106 3 -52 10 -59 10 -86 -11 -32 -23 -73 -29
-112 -17 -36 12 -25 28 18 25 51 -4 67 10 41 37 -14 15 -27 20 -50 16 -17 -2
-31 -9 -31 -14 0 -7 -5 -6 -13 1 -11 8 -21 5 -43 -14 -16 -14 -23 -25 -16 -25
6 0 12 -9 12 -20 0 -30 56 -60 110 -60 25 0 82 7 128 15 64 11 100 12 155 5
132 -19 304 -82 210 -77 -47 2 -134 -13 -128 -23 3 -5 -9 -8 -27 -8 -38 1 -93
-8 -108 -17 -5 -3 -16 -3 -22 2 -19 11 -37 12 -44 2 -3 -5 -10 -9 -16 -9 -7 0
-7 4 0 13 8 9 7 13 -6 13 -9 0 -42 4 -72 8 -69 10 -78 10 -128 -4 -32 -8 -40
-14 -35 -27 4 -11 3 -14 -5 -9 -7 4 -12 2 -12 -4 0 -6 -4 -8 -10 -5 -14 8 -13
3 6 -34 19 -39 41 -51 91 -51 40 0 63 14 63 38 0 10 -12 12 -45 9 -48 -4 -58
5 -24 24 26 13 112 7 133 -10 8 -7 48 -13 90 -14 43 -2 81 -8 88 -15 9 -9 3
-11 -28 -8 -38 3 -122 -15 -156 -34 -10 -6 -27 -10 -38 -10 -11 0 -20 -4 -20
-8 0 -14 -133 -3 -142 11 -4 6 -8 8 -8 4 0 -15 -40 14 -40 29 0 10 -6 14 -15
10 -21 -8 -19 23 2 54 10 14 18 30 19 37 3 16 -22 36 -38 30 -7 -2 -20 -1 -29
4 -12 6 -25 1 -43 -16 -34 -32 -39 -31 -32 3 4 15 2 42 -3 60 -11 38 3 43 42
12 14 -11 33 -20 42 -20 24 0 56 20 50 31 -4 5 -2 9 4 9 13 0 3 31 -16 46 -31
26 17 77 92 97 51 14 147 -1 206 -32z m-1081 25 c0 -2 -8 -10 -17 -17 -16 -13
-17 -12 -4 4 13 16 21 21 21 13z m1030 -574 c0 -13 -12 -22 -22 -16 -10 6 -1
24 13 24 5 0 9 -4 9 -8z m-420 -23 c-7 -11 -14 -19 -16 -16 -7 7 7 37 17 37 6
0 5 -9 -1 -21z m334 -43 c-3 -8 -12 -17 -20 -20 -11 -4 -12 -2 -1 14 14 23 29
27 21 6z m-1409 -56 c-3 -5 -11 -10 -16 -10 -6 0 -7 5 -4 10 3 6 11 10 16 10
6 0 7 -4 4 -10z"/>
<path d="M2638 1863 c7 -3 16 -2 19 1 4 3 -2 6 -13 5 -11 0 -14 -3 -6 -6z"/>
<path d="M2049 1740 c-57 -10 -105 -34 -119 -59 -15 -29 -12 -61 11 -127 28
-81 24 -243 -9 -298 -25 -42 -28 -66 -9 -66 6 -1 75 -1 151 0 187 1 220 16
235 109 l6 34 25 -39 c41 -62 96 -84 207 -84 108 0 155 17 198 75 53 68 57
239 10 339 -19 40 -86 86 -125 86 -20 0 -22 -4 -16 -32 17 -91 18 -215 2 -271
-20 -68 -67 -127 -96 -120 -52 14 -92 186 -71 308 7 41 9 79 6 85 -3 5 -21 10
-40 10 -67 0 -115 -92 -115 -222 0 -42 -4 -67 -10 -63 -5 3 -20 -12 -34 -34
-18 -27 -38 -44 -68 -55 -59 -21 -84 -24 -80 -8 1 7 -4 56 -13 107 -20 126
-19 174 6 247 19 57 20 90 2 87 -4 -1 -29 -5 -54 -9z m16 -52 c-4 -13 -10 -73
-12 -134 -5 -111 -5 -111 -29 -106 -18 3 -24 11 -24 31 0 14 -11 57 -25 94
-13 38 -21 76 -18 84 6 16 77 52 102 53 9 0 11 -7 6 -22z m633 -46 c34 -32 52
-85 52 -152 l0 -46 -39 4 -38 4 -7 95 c-4 52 -10 101 -13 109 -8 23 13 16 45
-14z m-284 -64 c-7 -107 -12 -130 -27 -125 -7 2 -19 1 -28 -4 -24 -12 -31 35
-15 104 15 64 40 107 61 107 12 0 13 -15 9 -82z"/>
<path d="M3655 1711 c-27 -10 -68 -29 -90 -42 -54 -31 -163 -117 -175 -137
-18 -31 -11 24 11 90 27 80 21 92 -37 84 -61 -8 -102 -34 -114 -72 -6 -18 -12
-73 -13 -123 -2 -86 -3 -91 -24 -91 -13 0 -24 -8 -28 -20 -10 -30 -68 -70
-102 -70 -68 0 -143 91 -143 174 0 75 63 141 110 116 10 -5 26 -28 36 -50 35
-79 94 -31 94 78 0 67 -13 76 -93 68 -114 -13 -223 -81 -268 -168 -26 -51 -25
-139 2 -195 77 -159 325 -194 395 -55 l22 41 6 -49 c7 -55 28 -73 74 -68 23 3
28 9 32 44 6 43 45 118 77 147 19 16 21 15 52 -28 63 -88 190 -178 290 -205
35 -9 46 -9 57 2 17 16 10 26 -45 63 -63 42 -231 249 -231 283 0 17 72 66 79
54 4 -6 28 -23 55 -37 113 -60 151 -109 186 -240 25 -93 38 -110 74 -101 39
10 56 53 56 142 0 58 5 89 21 120 26 54 114 145 186 190 30 20 52 41 50 47 -7
22 -100 11 -165 -18 -63 -28 -143 -102 -156 -143 -10 -31 -20 -28 -56 17 -48
62 -92 84 -151 79 -55 -6 -53 -2 24 38 27 14 47 30 44 37 -6 19 -87 18 -142
-2z m-511 -69 c-1 -50 -11 -64 -27 -37 -6 11 -23 32 -39 47 l-29 27 28 4 c61
10 68 5 67 -41z m227 9 c-14 -25 -44 -179 -38 -194 3 -9 -5 -12 -29 -9 l-34 4
0 68 c0 93 13 125 58 143 42 17 56 13 43 -12z m289 24 c0 -3 -17 -15 -37 -29
-21 -13 -58 -41 -82 -63 l-45 -40 27 -46 c15 -25 27 -47 27 -50 0 -9 -61 7
-71 19 -17 20 -49 17 -76 -8 -39 -37 -36 -13 6 39 42 54 110 108 194 154 56
31 57 31 57 24z m422 -63 c-32 -33 -74 -84 -92 -114 -32 -54 -34 -55 -67 -48
-18 5 -35 4 -38 -1 -3 -4 -22 10 -43 33 -20 23 -63 58 -94 79 -60 38 -59 49 3
49 33 0 90 -47 134 -110 33 -47 52 -51 65 -12 27 73 73 127 138 161 59 32 58
25 -6 -37z m-1163 -28 c-15 -29 -19 -52 -16 -91 3 -49 3 -51 -18 -43 -14 5
-27 4 -34 -3 -21 -21 -17 53 6 97 14 27 74 89 80 83 1 -2 -7 -21 -18 -43z"/>
<path d="M2996 1561 c-22 -41 -20 -87 5 -138 23 -47 68 -78 100 -68 11 4 31
24 46 46 14 21 30 39 34 39 5 0 9 18 9 39 l0 39 -30 -15 c-43 -21 -79 -6 -105
42 -26 50 -40 53 -59 16z"/>
<path d="M3601 1531 c-15 -10 11 -54 102 -169 49 -62 133 -139 142 -130 3 3
-5 42 -19 87 -27 94 -65 142 -151 192 -56 32 -55 32 -74 20z"/>
<path d="M1681 964 c0 -11 3 -14 6 -6 3 7 2 16 -1 19 -3 4 -6 -2 -5 -13z"/>
<path d="M1390 1070 c-19 -11 -31 -19 -27 -20 11 0 67 29 67 35 0 7 -1 7 -40
-15z"/>
<path d="M3443 985 c-69 -19 -178 -69 -221 -102 -29 -21 -38 -24 -53 -15 -22
14 -56 16 -63 3 -4 -5 -1 -42 5 -83 14 -87 5 -188 -17 -188 -25 0 -92 70 -174
181 -44 59 -84 110 -90 114 -15 9 -79 -25 -97 -51 -10 -16 -13 -34 -9 -56 10
-48 10 -59 2 -214 -8 -139 -8 -140 16 -168 18 -21 35 -29 72 -33 l49 -6 -6 44
c-3 24 -11 74 -17 111 -6 37 -10 78 -8 92 3 22 10 16 73 -56 95 -109 175 -168
226 -168 76 0 109 62 109 207 l0 82 53 -18 c70 -24 108 -44 130 -69 17 -18 17
-22 3 -57 -20 -48 -137 -162 -199 -195 -35 -19 -47 -31 -47 -48 0 -16 -4 -21
-12 -16 -9 5 -9 2 1 -9 15 -18 26 -23 16 -7 -4 6 7 8 27 4 72 -12 83 -13 71
-8 -7 3 22 23 65 44 193 98 333 282 277 366 -24 37 -87 61 -189 74 -49 6 -98
16 -110 22 -19 10 -18 13 28 55 27 24 80 62 118 85 77 46 91 64 63 84 -22 17
-26 17 -92 -1z m7 -39 c0 -2 -19 -15 -43 -29 -68 -40 -127 -104 -127 -138 0
-41 32 -57 131 -69 96 -12 165 -34 178 -58 8 -15 1 -17 -65 -16 -40 1 -79 6
-86 11 -39 31 -225 100 -237 88 -2 -3 -4 -27 -2 -53 2 -44 0 -47 -24 -47 -24
0 -25 2 -25 71 0 39 -3 87 -7 105 -6 34 -6 34 15 16 20 -18 21 -18 66 16 39
31 74 49 176 95 26 11 50 15 50 8z m-548 -200 l85 -114 -33 5 c-25 4 -34 2
-34 -8 -1 -8 -21 8 -46 36 -37 42 -47 48 -62 39 -9 -6 -18 -25 -20 -43 -6 -59
-22 -31 -22 40 0 39 -5 80 -11 92 -10 18 -8 24 15 44 15 13 31 23 35 23 5 0
47 -51 93 -114z"/>
<path d="M2075 904 c-22 -8 -50 -26 -62 -40 -25 -27 -31 -70 -11 -76 6 -2 12
-11 13 -19 2 -7 12 -45 24 -83 11 -37 21 -85 21 -105 0 -54 -25 -149 -45 -171
-44 -49 17 -65 100 -26 82 38 89 52 81 148 -12 142 -22 199 -35 208 -16 9 -7
79 15 122 24 46 18 58 -23 57 -21 0 -56 -7 -78 -15z m61 -31 c-3 -10 -8 -30
-12 -45 -7 -33 -10 -33 -59 -12 -35 14 -37 17 -21 32 15 15 67 39 89 41 5 1 6
-7 3 -16z m4 -202 c0 -32 -3 -37 -21 -36 -16 1 -25 15 -40 56 -10 30 -18 55
-19 57 0 1 18 -7 40 -18 36 -18 40 -24 40 -59z"/>
<path d="M1722 897 c-80 -25 -100 -78 -61 -168 18 -42 21 -63 17 -148 -3 -85
-7 -105 -26 -131 -42 -56 -34 -61 129 -66 166 -6 207 4 232 53 23 43 32 120
17 138 -18 22 -39 18 -50 -9 -13 -34 -57 -65 -104 -73 -23 -3 -43 -4 -46 -2
-2 2 -6 24 -8 49 -1 25 -7 69 -12 99 -15 81 -12 140 10 201 11 30 19 58 20 63
0 10 -79 7 -118 -6z m63 -34 c-5 -10 -11 -70 -15 -133 -4 -63 -7 -109 -8 -101
-1 8 -10 11 -21 8 -15 -4 -20 3 -24 37 -4 23 -15 64 -27 91 -11 27 -18 55 -16
62 6 14 81 52 105 53 9 0 11 -6 6 -17z"/>
<path d="M2347 876 c-75 -28 -108 -85 -67 -118 l21 -17 -21 -21 c-31 -31 -60
-99 -60 -143 0 -121 125 -230 246 -213 60 8 111 36 161 88 56 58 83 119 83
191 0 97 -47 174 -135 220 -51 26 -173 33 -228 13z m188 -32 c65 -23 121 -80
132 -136 17 -83 -14 -105 -43 -30 -20 53 -65 107 -108 129 -39 20 -130 20
-179 0 -40 -17 -48 -10 -18 17 41 37 138 46 216 20z m-40 -78 c71 -30 119
-137 95 -210 -13 -41 -62 -86 -93 -86 -31 0 -96 40 -121 73 -26 36 -28 108 -3
156 9 19 17 45 17 58 0 20 5 23 35 23 20 0 51 -6 70 -14z m-163 -58 c-5 -7
-13 -28 -17 -46 -5 -23 -11 -32 -21 -28 -8 3 -14 0 -14 -6 0 -6 -3 -9 -6 -5
-14 14 35 97 58 97 7 0 7 -4 0 -12z"/>
<path d="M2421 704 c-46 -91 -36 -145 35 -193 40 -28 57 -23 84 21 25 41 25
81 1 133 -20 44 -34 59 -72 74 -24 9 -28 6 -48 -35z"/>
<path d="M183 3832 l-183 -2 0 -1185 0 -1184 37 21 c63 35 103 79 103 110 0
15 5 28 10 28 6 0 10 -15 10 -32 0 -18 9 -62 20 -96 11 -35 20 -75 20 -88 0
-17 8 -28 26 -36 23 -11 29 -10 46 12 10 13 22 37 25 52 6 29 23 49 23 26 0
-34 -32 -236 -42 -260 -5 -15 -21 -34 -33 -42 -22 -15 -24 -14 -23 7 1 12 8
31 15 42 16 24 17 12 2 -17 -8 -15 -8 -19 0 -14 18 12 38 58 46 106 l7 45 -46
-45 c-25 -24 -46 -50 -46 -57 0 -6 -7 -16 -15 -20 -8 -5 -26 -24 -40 -43 -14
-19 -25 -30 -25 -26 0 5 14 26 31 48 17 21 29 41 27 43 -11 11 -77 -62 -83
-90 l-6 -30 63 2 c68 2 68 2 176 129 18 21 30 30 26 19 -6 -15 -4 -17 10 -12
10 4 29 7 42 7 28 0 33 26 7 33 -12 3 -8 5 9 6 17 1 32 -7 43 -21 15 -22 14
-23 -7 -30 -21 -6 -21 -6 5 -7 54 -2 28 -61 -53 -114 -13 -10 -43 -17 -67 -17
-23 0 -45 -4 -48 -10 -6 -9 -235 -15 -235 -7 0 2 7 18 16 36 14 29 14 35 1 69
l-16 37 -7 -33 c-4 -19 -10 -29 -14 -22 -3 6 -14 8 -23 4 -15 -5 -16 -43 -17
-366 l0 -360 30 4 c40 6 49 -8 10 -17 -16 -4 -33 -11 -36 -17 -5 -7 0 -9 14
-6 12 4 24 3 27 -2 3 -4 -6 -11 -20 -14 -24 -6 -25 -10 -24 -81 1 -59 4 -75
16 -75 8 0 12 -4 9 -9 -3 -5 1 -12 10 -15 9 -3 12 -2 9 4 -4 6 12 3 34 -6 22
-8 48 -14 58 -12 11 2 -8 13 -45 27 -35 12 -62 24 -60 27 3 2 30 -5 61 -16 31
-11 66 -20 78 -20 22 0 22 0 3 21 -19 22 -19 22 11 16 17 -2 45 -9 63 -15 26
-9 32 -8 32 4 0 8 8 14 18 15 10 0 7 4 -9 9 -14 4 -61 6 -105 5 l-79 -3 110
19 c61 11 121 24 135 29 l25 10 -25 -5 c-49 -10 -251 -27 -256 -22 -3 3 25 8
63 11 37 4 90 11 116 16 27 6 59 10 73 10 13 0 24 5 24 11 0 8 -11 9 -32 5
-31 -5 -32 -5 -14 9 19 15 19 15 -2 15 -12 0 -21 6 -19 12 1 8 -14 15 -38 18
l-40 6 32 8 c36 8 87 -12 115 -48 29 -35 22 -72 -22 -120 -37 -40 -47 -45
-123 -60 -142 -29 -141 -29 -178 -7 -44 27 -61 27 -29 0 24 -20 24 -21 2 -16
-22 5 -22 3 -22 -84 l0 -89 213 0 c176 0 216 3 235 16 19 13 22 13 22 0 0 -25
54 34 90 99 32 58 46 105 31 105 -14 0 -43 63 -43 95 0 39 40 125 58 125 7 0
16 14 19 31 5 23 9 28 16 18 6 -10 9 -8 9 9 0 26 17 30 23 5 3 -10 5 2 6 26 0
24 -2 42 -5 38 -8 -8 -33 16 -27 25 2 4 -4 5 -13 1 -13 -5 -15 -3 -9 7 5 8 4
11 -2 7 -17 -11 -60 16 -55 33 4 12 3 13 -10 2 -14 -11 -17 -8 -27 19 -14 40
-14 39 4 39 8 0 15 3 15 8 -1 14 -82 67 -98 64 -13 -2 -14 -1 -3 6 10 7 11 14
2 31 -7 11 -15 21 -19 21 -6 0 -8 56 -2 63 1 1 4 27 7 57 2 30 11 62 19 71 16
18 19 33 4 24 -22 -14 -8 26 20 57 17 18 30 38 30 46 0 7 5 10 10 7 6 -3 10 3
10 14 0 14 5 19 15 15 9 -4 19 3 27 20 6 15 14 22 18 16 10 -16 40 0 40 22 0
10 -5 16 -10 13 -6 -4 -7 -11 -4 -17 4 -6 2 -8 -4 -4 -16 10 -10 48 12 70 23
23 5 36 -20 15 -17 -14 -64 -19 -64 -7 0 15 22 19 37 6 12 -9 15 -9 9 -1 -4 7
-9 22 -11 33 -3 16 2 20 23 21 15 0 20 3 12 6 -8 3 -23 15 -33 27 l-19 21 5
-23 c8 -34 -4 -18 -20 26 -15 45 -17 65 -3 57 6 -4 7 -11 4 -17 -4 -6 -2 -8 3
-5 6 4 9 25 7 47 -4 41 3 49 24 28 15 -15 16 0 2 38 -9 23 -9 25 4 15 12 -10
15 -7 21 18 3 17 4 35 1 40 -4 5 7 15 22 22 16 7 34 26 40 42 7 19 16 28 25
24 8 -3 30 8 48 23 36 31 54 38 44 18 -4 -7 6 1 20 17 16 17 25 23 21 13 -8
-27 1 -21 18 10 9 15 15 20 16 12 0 -10 7 -7 20 10 13 17 20 20 20 10 0 -8 10
0 21 18 20 31 30 40 28 25 -4 -27 1 -33 20 -21 11 7 17 16 14 22 -4 5 -1 6 6
1 9 -5 6 -14 -11 -34 -44 -49 -58 -95 -34 -112 10 -8 79 51 71 59 -3 3 10 15
28 26 84 52 97 62 97 69 0 5 7 16 16 25 11 10 13 17 5 20 -6 2 3 15 19 29 17
13 30 31 30 39 0 8 5 14 12 14 6 0 19 7 29 15 14 13 15 22 7 55 -6 22 -13 38
-17 36 -3 -2 -6 34 -6 80 0 58 -3 80 -10 71 -5 -7 -18 -11 -27 -9 -20 4 -24
18 -8 25 6 3 6 5 -1 3 -11 -2 -88 -198 -89 -226 0 -21 -59 -139 -80 -163 -13
-14 -20 -15 -25 -6 -6 8 -4 10 5 4 9 -6 10 -1 5 16 -5 20 -4 21 5 9 10 -12 11
-11 7 8 -3 14 -1 20 6 15 7 -4 8 0 4 11 -5 11 -3 15 5 10 8 -5 9 -2 5 10 -4 9
-3 15 2 12 10 -6 25 24 16 32 -3 3 -5 -1 -5 -8 0 -7 -2 -11 -5 -8 -9 9 7 38
17 32 6 -4 8 -1 6 7 -3 8 3 29 14 46 11 18 16 38 12 44 -5 8 -3 9 6 4 9 -6 10
-2 5 15 -5 17 -4 21 6 15 9 -6 11 -3 6 9 -8 20 2 68 12 62 4 -3 6 34 6 82 -1
57 -5 87 -13 90 -7 2 -12 10 -12 18 0 8 -10 14 -22 14 -19 0 -20 2 -8 10 11 7
11 10 2 10 -7 0 -10 5 -7 10 6 9 -8 14 -27 11 -5 0 -8 3 -8 8 0 5 -3 17 -6 25
-4 12 -2 15 9 11 8 -4 17 0 20 8 4 10 -3 12 -26 9 l-31 -5 17 26 c21 32 21 38
2 31 -9 -4 -15 0 -15 10 0 9 -4 16 -9 16 -5 0 -7 9 -4 20 3 13 14 20 29 20 13
0 24 5 24 10 0 6 -9 10 -20 10 -11 0 -20 5 -20 11 0 7 -10 9 -25 7 -31 -6 -32
3 -4 20 15 10 19 10 14 1 -6 -8 -4 -10 4 -4 7 4 11 18 8 31 -2 13 0 24 5 24 5
0 6 10 3 21 -5 16 -4 19 6 14 12 -8 12 -7 -6 38 -4 10 3 14 25 14 16 0 30 -4
30 -9 0 -5 -4 -6 -10 -3 -6 3 -7 -1 -4 -9 7 -19 9 -19 37 -4 12 7 33 11 47 10
20 -2 22 -1 10 7 -8 6 -27 11 -42 11 -14 0 -28 5 -30 11 -2 6 -21 11 -43 11
-36 0 -38 1 -20 14 10 8 22 14 26 14 4 0 6 11 4 25 -1 16 3 25 11 25 20 0 17
20 -3 36 -17 13 -17 13 1 14 15 0 16 3 6 15 -10 12 -10 15 1 16 8 0 3 5 -11
11 -14 6 -20 12 -13 15 7 2 9 11 6 19 -3 8 1 14 8 14 8 0 20 4 28 9 12 8 11
12 -4 28 -18 17 -18 18 4 21 22 3 22 4 5 23 -16 18 -16 19 4 19 15 0 20 5 16
15 -4 9 0 15 9 15 18 0 29 41 23 88 -4 31 6 43 20 21 9 -14 29 33 39 90 5 33
10 40 20 31 7 -6 16 -22 19 -36 4 -14 12 -24 19 -21 16 5 21 62 8 99 -9 26 -9
29 4 18 8 -6 17 -20 20 -30 3 -11 16 -22 28 -26 12 -4 25 -11 28 -17 11 -16
31 4 27 27 -4 19 -1 22 17 18 15 -2 24 4 33 23 16 34 15 40 -2 25 -13 -10 -14
0 -11 72 2 46 6 95 10 109 7 29 10 29 -99 29 -93 0 -77 12 19 15 42 2 79 6 82
9 3 3 14 -5 25 -17 11 -12 17 -16 13 -9 -9 17 20 43 39 36 10 -4 16 -1 16 8 0
21 -32 18 -52 -5 -16 -17 -18 -18 -24 -4 -3 9 -20 19 -37 22 -35 6 -928 12
-1214 7z m-138 -52 c3 -5 1 -10 -4 -10 -6 0 -11 5 -11 10 0 6 2 10 4 10 3 0 8
-4 11 -10z m70 0 c3 -5 -1 -10 -10 -10 -9 0 -13 5 -10 10 3 6 8 10 10 10 2 0
7 -4 10 -10z m140 0 c3 -6 -4 -10 -17 -10 -18 0 -20 2 -8 10 19 12 18 12 25 0z
m49 2 c2 -4 -4 -9 -15 -9 -10 -1 -19 2 -19 8 0 11 27 12 34 1z m132 -5 c4 -4
-11 -7 -34 -7 -23 0 -42 4 -42 8 0 10 66 9 76 -1z m54 3 c0 -5 -10 -10 -22 -9
-22 0 -22 1 -3 9 11 5 21 9 23 9 1 1 2 -3 2 -9z m30 0 c0 -5 -5 -10 -11 -10
-5 0 -7 5 -4 10 3 6 8 10 11 10 2 0 4 -4 4 -10z m50 -2 c0 -4 -9 -8 -21 -8
-11 0 -18 4 -15 8 3 5 12 9 21 9 8 0 15 -4 15 -9z m120 -4 c0 -2 -7 -4 -15 -4
-8 0 -15 4 -15 10 0 5 7 7 15 4 8 -4 15 -8 15 -10z m270 0 c0 -2 -7 -4 -15 -4
-8 0 -15 4 -15 10 0 5 7 7 15 4 8 -4 15 -8 15 -10z m90 6 c0 -5 -5 -10 -11
-10 -5 0 -7 5 -4 10 3 6 8 10 11 10 2 0 4 -4 4 -10z m44 2 c2 -4 -4 -9 -15 -9
-10 -1 -19 2 -19 8 0 11 27 12 34 1z m31 -2 c3 -5 1 -10 -4 -10 -6 0 -11 5
-11 10 0 6 2 10 4 10 3 0 8 -4 11 -10z m40 0 c3 -5 -1 -10 -10 -10 -9 0 -13 5
-10 10 3 6 8 10 10 10 2 0 7 -4 10 -10z m75 -6 c0 -2 -11 -4 -25 -4 -14 0 -25
4 -25 9 0 4 11 6 25 3 14 -2 25 -6 25 -8z m-407 -1 c-7 -2 -19 -2 -25 0 -7 3
-2 5 12 5 14 0 19 -2 13 -5z m402 -1723 c-3 -5 -12 -10 -18 -10 -7 0 -6 4 3
10 19 12 23 12 15 0z m-815 -730 c13 -8 13 -10 -2 -10 -9 0 -20 5 -23 10 -8
13 5 13 25 0z m-210 -164 c0 -3 -15 -14 -32 -26 l-33 -22 30 26 c31 27 35 29
35 22z m5 -726 c-3 -5 -10 -10 -16 -10 -5 0 -9 5 -9 10 0 6 7 10 16 10 8 0 12
-4 9 -10z m32 -264 c9 -9 -50 -7 -65 3 -8 5 0 7 23 6 20 -1 39 -5 42 -9z"/>
<path d="M3420 3807 c-85 -36 -150 -74 -150 -88 0 -20 -17 -7 -33 26 -9 19
-24 35 -32 35 -9 0 -13 -4 -10 -10 3 -5 1 -10 -4 -10 -7 0 -11 -29 -11 -76 0
-64 -2 -75 -15 -70 -20 7 -19 -8 1 -25 11 -9 15 -26 12 -56 -2 -24 -1 -43 2
-43 3 0 14 25 24 54 11 30 25 57 32 60 7 3 22 22 33 43 11 21 20 34 21 28 0
-5 11 7 25 28 14 20 30 36 34 34 5 -1 32 15 60 36 28 20 51 33 51 27 0 -13 38
10 44 27 7 18 1 16 -84 -20z m-167 -147 c-3 -12 -8 -19 -11 -16 -5 6 5 36 12
36 2 0 2 -9 -1 -20z"/>
<path d="M1994 3818 c-4 -7 -3 -8 4 -4 7 4 12 2 12 -4 0 -6 5 -8 10 -5 11 7 4
25 -10 25 -5 0 -12 -5 -16 -12z"/>
<path d="M4039 3739 c-19 -17 -28 -28 -21 -24 6 3 12 1 12 -4 0 -6 -6 -11 -14
-11 -7 0 -19 -6 -25 -14 -18 -21 6 -25 62 -9 42 13 47 17 47 42 0 48 -22 56
-61 20z"/>
<path d="M1430 3710 c0 -5 5 -10 10 -10 6 0 10 5 10 10 0 6 -4 10 -10 10 -5 0
-10 -4 -10 -10z"/>
<path d="M4144 3702 c19 -22 19 -22 -5 -22 -33 -1 -72 -24 -75 -45 -2 -12 2
-15 14 -9 9 4 31 9 47 12 17 3 33 10 37 16 5 8 8 7 8 -1 0 -7 4 -13 9 -13 5 0
9 11 9 24 0 15 -11 29 -32 41 l-31 18 19 -21z m-4 -48 c0 -2 -9 -4 -21 -4 -11
0 -18 4 -14 10 5 8 35 3 35 -6z"/>
<path d="M1423 3670 c1 -11 5 -20 11 -20 5 0 1 -9 -9 -20 -10 -11 -13 -20 -8
-20 28 0 39 47 17 68 -10 9 -12 7 -11 -8z"/>
<path d="M3818 3664 c-16 -8 -28 -17 -28 -19 0 -7 60 17 66 26 8 13 -7 10 -38
-7z"/>
<path d="M1455 3588 l-16 -33 20 25 c20 24 26 40 16 40 -2 0 -12 -15 -20 -32z"/>
<path d="M2281 3607 c-8 -10 -7 -18 2 -31 11 -15 13 -14 15 13 3 34 0 37 -17
18z"/>
<path d="M4068 3603 c-10 -2 -18 -13 -18 -23 0 -13 -5 -17 -15 -14 -24 9 -18
-6 13 -32 15 -13 22 -24 17 -24 -6 0 -16 5 -23 12 -6 6 -15 8 -19 4 -9 -9 17
-27 36 -23 21 3 33 57 18 76 -10 12 -9 14 6 8 11 -4 17 -2 17 8 0 15 -2 16
-32 8z"/>
<path d="M3475 3544 l-30 -26 32 16 c17 9 35 20 38 26 11 18 -9 10 -40 -16z"/>
<path d="M3538 3533 c12 -2 30 -2 40 0 9 3 -1 5 -23 4 -22 0 -30 -2 -17 -4z"/>
<path d="M3664 3522 c3 -6 -3 -12 -16 -15 -13 -2 2 -4 32 -4 30 0 66 -3 80 -6
20 -6 21 -5 5 2 -19 8 -19 9 5 13 14 3 3 6 -27 7 -28 0 -59 4 -69 8 -11 4 -15
3 -10 -5z"/>
<path d="M2130 3505 c-8 -9 -8 -15 -2 -15 12 0 26 19 19 26 -2 2 -10 -2 -17
-11z"/>
<path d="M3521 3506 c-9 -11 -4 -12 29 -6 53 10 62 20 18 20 -20 0 -41 -6 -47
-14z"/>
<path d="M3980 3510 c8 -5 20 -10 25 -10 6 0 3 5 -5 10 -8 5 -19 10 -25 10 -5
0 -3 -5 5 -10z"/>
<path d="M3496 3456 c-15 -13 -24 -26 -18 -30 5 -3 12 1 16 9 3 8 12 15 20 15
7 0 29 7 47 15 l34 14 -35 0 c-22 0 -46 -8 -64 -23z"/>
<path d="M3867 3454 c15 -14 23 -23 16 -19 -7 3 -26 -1 -44 -10 -24 -13 -37
-14 -61 -6 -40 14 -43 14 -28 -4 11 -14 10 -14 -14 -5 -39 14 -55 12 -26 -5
14 -7 51 -17 82 -20 32 -4 55 -11 52 -16 -11 -19 39 2 63 27 19 19 16 30 -18
58 -40 34 -59 34 -22 0z m33 -42 c0 -11 -41 -34 -48 -28 -3 4 3 13 14 21 21
16 34 19 34 7z"/>
<path d="M3990 3476 c0 -2 8 -10 18 -17 15 -13 16 -12 3 4 -13 16 -21 21 -21
13z"/>
<path d="M1280 3460 c0 -5 5 -10 11 -10 5 0 7 5 4 10 -3 6 -8 10 -11 10 -2 0
-4 -4 -4 -10z"/>
<path d="M1480 3424 c0 -56 12 -79 50 -99 32 -17 80 -20 80 -6 0 5 -15 20 -32
32 -49 34 -61 48 -63 72 -4 34 -4 34 -20 41 -12 4 -15 -4 -15 -40z"/>
<path d="M3960 3435 c22 -14 23 -15 3 -10 -28 8 -35 -6 -14 -27 15 -15 18 -15
37 7 18 20 19 24 5 28 -9 3 -25 8 -36 12 -14 4 -13 2 5 -10z"/>
<path d="M4045 3440 c-3 -5 -1 -10 4 -10 6 0 11 5 11 10 0 6 -2 10 -4 10 -3 0
-8 -4 -11 -10z"/>
<path d="M3500 3430 c0 -5 7 -10 16 -10 8 0 12 5 9 10 -3 6 -10 10 -16 10 -5
0 -9 -4 -9 -10z"/>
<path d="M3600 3406 c0 -2 11 -6 25 -8 13 -3 22 -1 19 3 -5 9 -44 13 -44 5z"/>
<path d="M3518 3393 c7 -3 16 -2 19 1 4 3 -2 6 -13 5 -11 0 -14 -3 -6 -6z"/>
<path d="M3666 3391 c-4 -5 3 -7 14 -4 23 6 26 13 6 13 -8 0 -17 -4 -20 -9z"/>
<path d="M3373 3374 c-16 -12 -14 -13 22 -13 37 0 92 15 70 19 -42 8 -77 6
-92 -6z"/>
<path d="M3535 3369 c-55 -6 -118 -35 -109 -50 3 -5 2 -9 -3 -8 -17 4 -83 -14
-83 -22 0 -5 5 -9 10 -9 20 0 9 -20 -20 -35 -18 -10 -27 -20 -24 -30 3 -8 2
-20 -2 -27 -4 -7 -8 -24 -8 -37 -1 -18 -13 -31 -46 -51 -25 -14 -46 -32 -46
-38 -1 -7 -2 -16 -3 -22 0 -5 -8 -10 -16 -10 -8 0 -15 -5 -15 -11 0 -6 9 -8
23 -3 12 4 28 7 35 7 6 0 12 6 12 14 0 7 7 13 16 13 14 0 15 2 3 17 -13 15
-11 15 19 -1 18 -9 32 -12 32 -6 0 6 11 3 25 -6 14 -9 25 -13 25 -9 0 5 9 0
20 -10 11 -10 20 -15 20 -10 0 4 7 1 16 -6 9 -7 23 -15 33 -17 50 -12 79 -13
85 -3 4 7 -1 11 -12 11 -11 0 -25 6 -31 13 -9 11 -3 16 27 25 21 7 57 32 86
61 38 38 50 59 57 97 11 56 15 62 37 48 26 -17 28 -88 3 -130 l-20 -34 24 0
c14 0 25 5 25 10 0 6 -4 10 -10 10 -18 0 -10 22 10 27 20 5 29 23 35 71 2 15
8 26 15 24 9 -2 7 5 -4 23 -9 14 -12 25 -7 25 8 0 22 37 25 65 1 6 10 9 20 8
10 0 14 3 10 7 -11 11 -221 17 -289 9z m91 -74 c4 -8 1 -22 -6 -30 -10 -12
-15 -12 -35 1 -14 9 -21 22 -18 30 7 19 52 18 59 -1z m-112 -17 c-10 -35 -26
-51 -35 -37 -8 14 0 41 15 51 20 14 27 8 20 -14z m86 -50 c0 -5 -6 -21 -14
-36 -15 -29 -76 -71 -76 -52 0 6 -4 8 -10 5 -5 -3 -15 -3 -21 1 -17 10 66 89
96 90 14 1 25 -2 25 -8z m10 -73 c-7 -9 -15 -13 -17 -11 -7 7 7 26 19 26 6 0
6 -6 -2 -15z"/>
<path d="M3180 3330 c0 -5 5 -10 11 -10 5 0 7 5 4 10 -3 6 -8 10 -11 10 -2 0
-4 -4 -4 -10z"/>
<path d="M2410 3309 c0 -6 -11 -25 -25 -43 -14 -18 -25 -38 -25 -44 0 -6 -5
-12 -11 -14 -7 -2 -9 -13 -4 -27 4 -14 12 -20 21 -17 17 6 18 1 3 -26 -6 -11
-7 -18 -1 -14 6 3 8 -13 7 -42 -4 -62 -14 -92 -31 -92 -26 0 -14 -16 22 -29
44 -16 51 -9 37 30 -10 26 -10 29 3 19 12 -11 14 -1 14 69 0 103 1 97 -16 93
-11 -2 -13 4 -9 25 l6 28 -15 -25 c-25 -41 -18 1 7 45 31 54 38 75 27 75 -6 0
-10 -5 -10 -11z"/>
<path d="M1615 3290 c-4 -6 6 -10 22 -10 22 0 25 2 13 10 -19 12 -27 12 -35 0z"/>
<path d="M2211 3284 c0 -11 3 -14 6 -6 3 7 2 16 -1 19 -3 4 -6 -2 -5 -13z"/>
<path d="M2070 3269 c0 -21 31 -34 41 -17 6 9 11 9 21 0 9 -7 25 -8 43 -4 26
7 27 9 10 17 -34 14 -56 15 -77 4 -16 -9 -23 -8 -29 2 -7 11 -9 11 -9 -2z"/>
<path d="M1697 3254 c6 -17 5 -17 -10 -5 -14 11 -23 11 -42 3 -34 -16 -31 -32
5 -32 17 0 30 -5 30 -11 0 -7 18 -10 49 -7 37 2 47 0 43 -10 -3 -8 -17 -12
-36 -10 -22 2 -30 -1 -28 -11 2 -9 -4 -12 -15 -9 -12 3 -19 0 -19 -11 0 -9 -4
-26 -8 -38 -11 -35 29 -41 62 -10 30 28 102 63 102 48 0 -5 -7 -14 -15 -21
-20 -17 -19 -33 5 -47 17 -11 25 -8 65 27 26 22 49 40 53 40 16 0 63 50 57 60
-3 6 -1 9 7 8 17 -4 17 24 -1 30 -8 3 -11 0 -7 -7 5 -7 1 -9 -8 -5 -9 3 -16 1
-16 -6 0 -6 -4 -9 -9 -6 -5 4 -11 0 -14 -6 -3 -11 -9 -11 -26 0 -17 10 -21 10
-21 0 -1 -8 -6 -5 -15 6 -7 10 -19 15 -25 11 -6 -4 -17 -1 -25 5 -10 8 -15 9
-15 2 0 -15 -49 -10 -58 5 -5 7 -22 16 -40 19 -29 6 -32 4 -25 -12z"/>
<path d="M2027 3240 c4 -16 8 -18 20 -9 11 10 11 14 1 20 -21 14 -26 10 -21
-11z"/>
<path d="M2578 3240 c-11 -38 -10 -56 3 -43 6 6 9 23 7 39 l-3 29 -7 -25z"/>
<path d="M3940 3248 c0 -6 -8 -17 -17 -24 -17 -13 -17 -14 0 -8 19 7 24 -12 5
-19 -8 -4 -7 -6 3 -6 23 -1 44 25 27 32 -10 4 -10 6 0 6 17 1 15 18 -3 25 -8
3 -15 0 -15 -6z"/>
<path d="M2250 3241 c0 -10 36 -21 44 -14 3 3 3 10 0 14 -7 12 -44 12 -44 0z"/>
<path d="M2655 3225 c0 -13 3 -21 8 -18 4 2 7 10 7 18 0 8 -3 16 -7 18 -5 3
-8 -5 -8 -18z"/>
<path d="M2303 3225 c-3 -9 -2 -19 2 -23 4 -4 10 -1 12 6 3 6 11 12 19 12 8 0
14 5 14 10 0 16 -40 11 -47 -5z"/>
<path d="M2777 3213 c-11 -10 -8 -73 3 -73 6 0 10 18 10 40 0 41 -2 45 -13 33z"/>
<path d="M4045 3200 c-3 -6 1 -7 9 -4 18 7 21 14 7 14 -6 0 -13 -4 -16 -10z"/>
<path d="M2968 3165 c12 -65 -29 -103 -47 -42 l-9 32 -1 -36 c-1 -46 -38 -154
-68 -200 -24 -36 -23 -63 3 -73 14 -5 47 33 43 50 -1 5 3 22 9 37 7 16 12 34
12 42 0 7 7 15 15 19 8 3 15 15 15 26 0 11 5 20 10 20 6 0 10 -8 10 -17 0 -14
4 -13 23 5 13 12 26 19 29 16 4 -3 5 2 3 13 -2 10 -4 37 -4 60 -1 24 -8 48
-17 57 -22 23 -32 20 -26 -9z"/>
<path d="M3950 3180 c-8 -5 -12 -12 -9 -15 4 -3 12 1 19 10 14 17 11 19 -10 5z"/>
<path d="M2871 3138 c-9 -18 -10 -31 -3 -45 7 -12 7 -25 1 -34 -5 -7 -9 -9 -9
-4 -1 6 -8 -3 -17 -20 -20 -36 -29 -18 -14 27 6 17 11 38 10 47 0 9 -8 -9 -18
-39 -19 -59 -58 -137 -45 -91 l6 25 -32 -25 c-51 -38 -80 -67 -80 -79 0 -16
35 -12 61 8 13 10 32 22 42 25 15 6 16 4 7 -13 -9 -16 -8 -20 5 -20 9 0 13 -4
10 -10 -3 -5 -4 -10 -1 -10 3 0 12 16 20 35 8 19 20 35 25 35 15 0 53 136 49
177 l-3 37 -14 -26z"/>
<path d="M3040 3156 c0 -2 7 -6 15 -10 8 -3 15 -1 15 4 0 6 -7 10 -15 10 -8 0
-15 -2 -15 -4z"/>
<path d="M2477 3101 c-4 -17 -14 -30 -25 -33 -38 -10 -30 -108 8 -108 11 0 21
30 14 41 -3 5 -1 9 4 9 5 0 12 -8 14 -18 3 -10 20 -29 38 -42 31 -22 33 -22
27 -4 -6 16 -4 15 13 -5 11 -13 20 -34 20 -47 0 -12 4 -25 9 -29 18 -11 59 17
64 44 4 18 21 37 47 55 23 15 40 30 37 33 -8 7 -59 -27 -83 -56 -18 -21 -21
-22 -27 -7 -9 22 6 49 38 70 22 15 38 55 16 41 -5 -3 -12 4 -16 15 -8 26 -40
26 -58 0 -8 -11 -17 -17 -22 -12 -4 4 -5 -6 -1 -23 5 -22 4 -26 -4 -15 -5 8
-10 11 -10 6 0 -5 -9 -1 -20 9 -24 22 -25 15 -4 -28 l16 -32 -26 30 c-14 17
-29 48 -35 70 -8 35 -9 37 -10 11 -1 -16 -4 -26 -8 -22 -4 4 -6 23 -4 42 3 41
-4 45 -12 5z m133 -131 c0 -11 -7 -20 -15 -20 -18 0 -19 6 -2 25 16 19 17 18
17 -5z"/>
<path d="M3914 3081 c0 -11 4 -17 8 -15 4 3 8 12 8 20 0 8 -4 14 -8 14 -4 0
-8 -9 -8 -19z"/>
<path d="M3634 3055 c-14 -14 -30 -25 -37 -25 -7 0 -4 -5 6 -11 14 -8 25 -4
52 18 18 15 34 31 34 36 2 16 -31 6 -55 -18z"/>
<path d="M3140 3030 c0 -5 5 -10 10 -10 6 0 10 5 10 10 0 6 -4 10 -10 10 -5 0
-10 -4 -10 -10z"/>
<path d="M3550 3010 c0 -4 9 -10 21 -13 12 -3 19 -1 17 5 -5 13 -38 20 -38 8z"/>
<path d="M2309 2988 c-12 -23 -12 -23 10 -4 23 21 26 26 11 26 -5 0 -15 -10
-21 -22z"/>
<path d="M1755 2970 c-4 -6 -5 -12 -4 -13 2 -2 12 -9 22 -16 15 -12 17 -11 14
10 -4 26 -21 36 -32 19z"/>
<path d="M1810 2953 c0 -5 7 -18 15 -29 13 -18 14 -18 8 4 -5 22 -23 41 -23
25z"/>
<path d="M3270 2950 c0 -5 5 -10 11 -10 5 0 7 5 4 10 -3 6 -8 10 -11 10 -2 0
-4 -4 -4 -10z"/>
<path d="M1850 2942 c0 -5 7 -15 15 -22 8 -7 15 -8 15 -2 0 5 -7 15 -15 22 -8
7 -15 8 -15 2z"/>
<path d="M1902 2928 c5 -15 28 -23 28 -10 0 5 -7 13 -16 16 -10 4 -14 1 -12
-6z"/>
<path d="M1960 2925 c34 -20 60 -20 34 0 -10 8 -28 14 -39 14 -18 0 -17 -1 5
-14z"/>
<path d="M3350 2869 c0 -5 5 -7 10 -4 6 3 10 8 10 11 0 2 -4 4 -10 4 -5 0 -10
-5 -10 -11z"/>
<path d="M3326 2844 c-4 -10 -2 -22 4 -28 16 -16 12 -30 -5 -16 -8 7 -15 8
-15 2 0 -14 25 -33 33 -25 4 3 7 -3 7 -14 0 -34 33 -67 59 -58 16 5 20 11 15
23 -16 38 -15 69 1 86 10 9 15 20 11 23 -3 4 -12 1 -18 -5 -14 -14 -32 -16
-24 -3 3 5 -2 11 -12 14 -9 2 -24 8 -33 11 -11 5 -19 1 -23 -10z"/>
<path d="M2875 2839 c-4 -6 1 -17 11 -24 28 -21 34 -18 21 10 -13 27 -22 31
-32 14z"/>
<path d="M3700 2840 c-25 -4 -47 -6 -50 -5 -3 2 -11 -3 -18 -11 -11 -12 -8
-14 15 -14 15 0 39 -7 53 -15 47 -27 51 -27 71 -9 25 22 21 58 -6 60 -11 1
-40 -2 -65 -6z"/>
<path d="M3442 2809 c-12 -18 -10 -26 13 -59 14 -20 30 -53 36 -73 6 -22 18
-38 30 -42 25 -8 26 -7 34 27 6 22 0 34 -33 70 -22 24 -44 56 -47 71 -9 32
-16 34 -33 6z"/>
<path d="M3505 2815 c-20 -15 -19 -15 9 -38 16 -12 46 -39 68 -60 45 -45 83
-45 94 -1 8 33 -16 60 -64 70 -22 4 -30 9 -19 11 9 3 17 8 17 13 0 12 -29 20
-35 9 -4 -5 -10 -7 -15 -4 -5 3 -12 0 -16 -7 -5 -8 -9 -7 -13 5 -6 16 -8 16
-26 2z"/>
<path d="M1096 2804 c-9 -24 -7 -28 9 -14 17 14 20 30 6 30 -5 0 -12 -7 -15
-16z"/>
<path d="M1099 2769 c-36 -38 -37 -52 -4 -37 14 6 25 16 25 21 0 6 3 8 6 5 3
-4 1 -16 -6 -27 -6 -12 -7 -21 -2 -21 9 0 35 52 38 78 4 23 -28 12 -57 -19z"/>
<path d="M2930 2769 c0 -5 5 -7 10 -4 6 3 10 8 10 11 0 2 -4 4 -10 4 -5 0 -10
-5 -10 -11z"/>
<path d="M3520 2747 c0 -2 14 -16 31 -33 26 -24 30 -25 20 -7 -10 19 -51 51
-51 40z"/>
<path d="M3227 2654 c3 -8 -1 -14 -11 -15 -9 -1 -20 -3 -26 -4 -5 -1 -18 -4
-27 -5 -10 -1 -2 -6 17 -9 19 -4 43 -3 53 2 11 5 23 4 31 -2 20 -17 27 -1 8
18 -24 25 -53 34 -45 15z"/>
<path d="M1151 2649 c-1 -9 6 -19 14 -23 8 -3 15 -13 15 -23 1 -17 1 -17 11 0
12 20 4 37 -16 37 -7 0 -16 6 -18 13 -4 7 -6 6 -6 -4z"/>
<path d="M1205 2600 c3 -5 8 -10 11 -10 2 0 4 5 4 10 0 6 -5 10 -11 10 -5 0
-7 -4 -4 -10z"/>
<path d="M3280 2595 c-16 -9 -19 -14 -9 -15 8 0 24 7 35 15 24 18 7 19 -26 0z"/>
<path d="M3365 2560 c-16 -7 -17 -9 -3 -9 9 -1 20 4 23 9 7 11 7 11 -20 0z"/>
<path d="M1390 2521 c-12 -24 -13 -34 -1 -27 5 4 11 1 13 -5 2 -5 11 -7 21 -4
9 4 15 11 12 16 -3 4 -13 5 -21 2 -13 -5 -15 -1 -9 15 8 27 -1 29 -15 3z"/>
<path d="M1510 2530 c0 -5 5 -10 11 -10 5 0 7 5 4 10 -3 6 -8 10 -11 10 -2 0
-4 -4 -4 -10z"/>
<path d="M1980 2480 c-9 -6 -10 -10 -3 -10 6 0 15 5 18 10 8 12 4 12 -15 0z"/>
<path d="M3917 2241 c-25 -5 -27 -8 -15 -24 13 -17 15 -17 37 7 25 27 24 28
-22 17z"/>
<path d="M3497 2069 c7 -7 15 -10 18 -7 3 3 -2 9 -12 12 -14 6 -15 5 -6 -5z"/>
<path d="M3758 1863 c7 -3 16 -2 19 1 4 3 -2 6 -13 5 -11 0 -14 -3 -6 -6z"/>
<path d="M4651 1800 c40 -48 59 -61 59 -41 0 6 -5 13 -10 16 -6 4 -8 15 -5 25
6 20 -27 46 -45 35 -5 -3 -11 -1 -15 5 -3 5 -11 10 -16 10 -6 0 9 -22 32 -50z
m29 15 c7 -8 8 -15 2 -15 -5 0 -15 7 -22 15 -7 8 -8 15 -2 15 5 0 15 -7 22
-15z"/>
<path d="M4612 1802 c58 -79 102 -132 106 -128 10 11 -91 146 -109 146 -6 0
-4 -8 3 -18z"/>
<path d="M4710 1808 c0 -4 4 -18 10 -32 6 -17 6 -26 0 -26 -13 0 -13 -37 -1
-44 5 -4 12 12 16 35 5 31 3 45 -9 57 -9 9 -16 13 -16 10z"/>
<path d="M4550 1754 c0 -27 -4 -43 -10 -39 -5 3 -10 16 -10 28 -1 17 -2 19 -9
7 -5 -8 -9 -34 -8 -58 0 -32 5 -45 19 -53 18 -10 19 -8 13 20 -4 19 -3 31 3
31 6 0 13 8 16 18 3 9 3 0 0 -21 -5 -40 8 -67 33 -67 11 0 11 4 3 20 -6 11 -7
20 -2 20 6 0 12 -9 15 -20 3 -11 13 -23 24 -26 10 -4 25 -13 35 -21 14 -13 17
-11 28 21 18 55 -9 92 -49 67 -9 -6 -12 -19 -8 -37 5 -26 4 -25 -9 6 -9 19
-22 39 -30 43 -8 5 -12 12 -9 17 6 9 -31 90 -40 90 -3 0 -5 -21 -5 -46z"/>
<path d="M4590 1790 c0 -22 33 -89 46 -94 31 -12 25 25 -10 64 -20 22 -36 36
-36 30z"/>
<path d="M4854 1764 c-17 -40 -9 -54 29 -54 26 0 77 -32 77 -47 0 -7 5 -13 10
-13 7 0 10 27 8 73 -3 70 -4 72 -28 71 -14 0 -36 -4 -49 -8 -16 -6 -21 -5 -17
3 4 6 2 11 -4 11 -6 0 -18 -16 -26 -36z m61 -4 c3 -5 1 -10 -4 -10 -6 0 -11 5
-11 10 0 6 2 10 4 10 3 0 8 -4 11 -10z m45 3 c0 -5 -7 -17 -15 -27 -15 -20
-20 -10 -9 18 6 16 24 22 24 9z"/>
<path d="M5190 1733 c0 -5 -18 -19 -40 -33 -22 -13 -40 -28 -40 -32 0 -5 20 5
45 22 25 17 45 35 45 40 0 12 -10 14 -10 3z"/>
<path d="M4858 1678 c6 -6 18 -8 28 -6 14 3 12 5 -9 10 -19 3 -25 2 -19 -4z"/>
<path d="M5149 1672 c-37 -19 -65 -64 -54 -90 6 -15 8 -14 15 4 5 12 25 38 45
59 20 20 35 38 33 40 -2 3 -20 -3 -39 -13z"/>
<path d="M4908 1664 c-8 -12 2 -64 12 -64 4 0 13 6 19 14 9 10 7 19 -7 36 -10
13 -21 19 -24 14z"/>
<path d="M4413 1653 c4 -6 2 -13 -4 -15 -16 -5 94 -103 117 -105 10 0 49 -4
87 -7 37 -3 67 -2 67 2 -1 19 -49 63 -66 61 -10 -1 -28 2 -39 6 -36 14 -140
56 -154 62 -9 4 -12 2 -8 -4z m66 -54 c24 -21 42 -41 40 -43 -2 -3 -27 15 -54
39 -28 24 -45 44 -40 44 6 0 30 -18 54 -40z m104 -36 c-7 -2 -21 -2 -30 0 -10
3 -4 5 12 5 17 0 24 -2 18 -5z m47 -13 c6 -11 9 -20 7 -20 -2 0 -12 9 -22 20
-10 11 -13 20 -7 20 6 0 16 -9 22 -20z"/>
<path d="M5186 1626 c-9 -14 -16 -31 -16 -38 0 -7 10 2 21 20 12 18 19 35 17
38 -3 2 -13 -7 -22 -20z"/>
<path d="M4846 1623 c-6 -14 -5 -15 5 -6 7 7 10 15 7 18 -3 3 -9 -2 -12 -12z"/>
<path d="M5224 1629 c-6 -8 -21 -36 -32 -62 l-21 -48 32 -19 32 -20 3 40 c2
22 2 59 0 82 -2 32 -5 38 -14 27z"/>
<path d="M4866 1594 c-3 -9 -6 -32 -6 -52 l0 -37 -19 25 c-16 20 -21 22 -35
11 -9 -7 -16 -10 -16 -5 0 5 -5 16 -10 24 -8 13 -11 12 -25 -5 -15 -19 -16
-18 -9 14 4 23 3 31 -5 27 -6 -4 -11 -14 -11 -22 0 -8 -5 -14 -11 -14 -16 0
-6 -45 11 -46 39 -3 80 -18 99 -35 24 -22 31 -24 31 -6 0 7 9 30 21 51 13 24
18 48 15 62 -7 28 -21 31 -30 8z"/>
<path d="M5054 1599 c-3 -6 -1 -16 5 -22 8 -8 11 -5 11 11 0 24 -5 28 -16 11z"/>
<path d="M4405 1590 c3 -5 8 -10 11 -10 2 0 4 5 4 10 0 6 -5 10 -11 10 -5 0
-7 -4 -4 -10z"/>
<path d="M4800 1576 c0 -9 5 -16 10 -16 6 0 10 4 10 9 0 6 -4 13 -10 16 -5 3
-10 -1 -10 -9z"/>
<path d="M4430 1567 c0 -22 11 -47 20 -47 14 0 6 53 -8 58 -6 2 -12 -3 -12
-11z"/>
<path d="M4400 1551 c0 -5 5 -13 10 -16 6 -3 10 -2 10 4 0 5 -4 13 -10 16 -5
3 -10 2 -10 -4z"/>
<path d="M4415 1509 c-4 -6 -5 -12 -2 -15 2 -3 7 2 10 11 7 17 1 20 -8 4z"/>
<path d="M4806 1416 c33 -30 60 -53 62 -52 6 7 -18 53 -41 79 -16 16 -37 27
-53 27 -25 0 -22 -4 32 -54z"/>
<path d="M39 1426 c-29 -9 -35 -16 -37 -45 -3 -29 -1 -33 11 -23 12 10 16 9
20 -8 7 -29 24 -25 47 13 11 17 20 28 20 22 0 -5 -9 -23 -20 -40 -24 -37 -25
-49 -4 -41 14 5 15 4 5 -8 -6 -7 -8 -21 -5 -30 6 -16 8 -16 25 0 11 9 19 14
19 10 0 -4 20 7 45 24 25 17 45 38 45 47 0 11 -5 9 -18 -8 -19 -22 -19 -22
-14 37 4 55 3 58 -12 39 -8 -11 -16 -14 -16 -8 0 9 -7 10 -25 3 -21 -8 -25 -7
-25 9 0 20 -14 22 -61 7z"/>
<path d="M258 1345 c-15 -13 -24 -25 -22 -28 9 -9 -89 -78 -118 -84 -21 -4
-28 -11 -28 -29 0 -25 14 -32 25 -14 4 6 34 33 68 61 60 50 113 106 106 114
-2 2 -16 -7 -31 -20z"/>
<path d="M4675 1349 c-4 -6 -14 -8 -22 -5 -8 3 -25 3 -38 0 -29 -7 -29 -37 -1
-62 11 -9 16 -11 12 -4 -4 6 -2 12 3 12 18 0 50 33 44 43 -4 6 1 8 10 4 11 -4
17 -1 17 8 0 17 -16 20 -25 4z"/>
<path d="M4733 1324 c-7 -18 20 -49 36 -40 7 5 7 14 -1 31 -13 29 -26 32 -35
9z"/>
<path d="M5170 1311 c0 -36 33 -129 56 -157 15 -18 15 -18 10 9 -3 15 -9 39
-12 53 -5 19 -4 25 5 20 7 -5 11 1 11 17 0 14 -14 36 -35 56 l-35 31 0 -29z"/>
<path d="M5140 1270 c0 -28 6 -59 12 -70 10 -16 10 -24 0 -40 -21 -33 18 -85
65 -85 31 -1 29 7 -14 78 -26 44 -38 75 -41 114 -6 67 -22 69 -22 3z m45 -120
c3 -5 1 -10 -4 -10 -6 0 -11 5 -11 10 0 6 2 10 4 10 3 0 8 -4 11 -10z"/>
<path d="M630 1295 c-8 -9 -8 -15 -2 -15 12 0 26 19 19 26 -2 2 -10 -2 -17
-11z"/>
<path d="M4675 1289 c-4 -6 -5 -13 -2 -16 7 -7 27 6 27 18 0 12 -17 12 -25 -2z"/>
<path d="M4357 1246 c-45 -27 -58 -40 -33 -30 11 4 21 2 26 -7 5 -7 10 -11 12
-9 8 12 37 70 35 70 -1 0 -19 -11 -40 -24z"/>
<path d="M4270 1199 c0 -5 5 -7 10 -4 6 3 10 8 10 11 0 2 -4 4 -10 4 -5 0 -10
-5 -10 -11z"/>
<path d="M5105 1040 c-11 -4 -47 -14 -80 -21 l-60 -12 60 -13 c66 -13 86 -9
58 12 -22 17 -12 18 21 3 14 -7 23 -16 19 -22 -3 -6 3 -17 13 -25 20 -16 20
-16 -72 3 -23 4 -25 3 -9 -4 20 -9 20 -10 1 -10 -44 -2 3 -19 64 -24 36 -3 77
-8 93 -12 27 -7 27 -6 27 40 0 34 -5 52 -17 61 -17 13 -17 14 0 8 11 -4 17 -1
17 8 0 7 -11 15 -25 16 -14 1 -25 -3 -25 -8 0 -6 -7 -10 -15 -10 -25 0 -17
-19 18 -40 50 -31 16 -23 -44 10 -46 25 -50 29 -25 27 16 -1 31 4 33 11 5 14
-21 15 -52 2z"/>
<path d="M4530 955 c-7 -8 -8 -15 -2 -15 5 0 15 7 22 15 7 8 8 15 2 15 -5 0
-15 -7 -22 -15z"/>
<path d="M5008 933 c7 -3 16 -2 19 1 4 3 -2 6 -13 5 -11 0 -14 -3 -6 -6z"/>
<path d="M820 920 c-13 -8 -12 -10 3 -10 9 0 17 5 17 10 0 12 -1 12 -20 0z"/>
<path d="M4154 825 c-10 -8 -14 -15 -8 -15 6 0 17 7 24 15 16 19 9 19 -16 0z"/>
<path d="M4470 760 c-9 -6 -10 -10 -3 -10 6 0 15 5 18 10 8 12 4 12 -15 0z"/>
<path d="M4451 729 c-30 -16 -49 -29 -42 -29 16 0 88 37 96 50 3 5 5 9 3 9 -2
-1 -27 -15 -57 -30z"/>
<path d="M690 565 c0 -8 2 -15 4 -15 2 0 6 7 10 15 3 8 1 15 -4 15 -6 0 -10
-7 -10 -15z"/>
<path d="M5145 272 c-44 -15 -80 -32 -80 -39 0 -15 -13 -28 -28 -28 -19 0 -37
-49 -40 -109 -2 -56 -2 -57 -39 -67 -21 -5 -38 -14 -38 -20 0 -6 8 -6 21 1 12
7 25 8 32 2 16 -12 117 -15 117 -4 0 5 -15 13 -32 17 -18 4 -27 9 -20 12 8 3
33 0 58 -7 35 -10 47 -10 59 0 18 15 20 -1 3 -18 -7 -7 -8 -12 -2 -12 5 0 27
20 48 45 27 33 36 53 34 72 l-3 27 -37 -33 c-21 -18 -38 -39 -38 -46 0 -11
-20 -25 -37 -25 -3 0 15 23 39 52 30 36 37 50 23 45 -11 -5 -3 6 18 23 72 61
34 62 -43 2 -25 -20 -39 -29 -32 -22 14 16 17 34 4 26 -13 -8 -7 31 7 48 8 9
23 16 34 16 19 0 18 -2 -9 -32 -33 -35 -18 -29 39 16 27 21 37 37 37 58 0 15
-3 28 -7 27 -5 0 -44 -12 -88 -27z m5 -32 c0 -6 -12 -15 -27 -21 -16 -6 -43
-25 -62 -42 -27 -26 -31 -28 -22 -9 12 22 86 82 103 82 4 0 8 -5 8 -10z m-54
-147 c-1 -18 -19 -43 -31 -43 -3 0 1 14 10 30 18 34 23 38 21 13z m38 -8 c-9
-14 -19 -23 -22 -20 -5 4 26 45 35 45 2 0 -4 -11 -13 -25z m-112 -7 c-7 -7
-12 -8 -12 -2 0 14 12 26 19 19 2 -3 -1 -11 -7 -17z m30 0 c-7 -7 -12 -8 -12
-2 0 14 12 26 19 19 2 -3 -1 -11 -7 -17z m158 -2 c0 -2 -8 -10 -17 -17 -16
-13 -17 -12 -4 4 13 16 21 21 21 13z"/>
<path d="M706 233 c-4 -4 -13 -8 -19 -8 -6 0 -13 -12 -14 -27 -1 -16 3 -28 9
-28 7 0 7 -4 0 -13 -6 -7 -22 -46 -36 -85 l-24 -72 97 0 c56 0 118 6 145 14
48 15 81 12 70 -5 -3 -5 3 -9 13 -9 40 0 81 91 47 104 -14 5 -15 4 -5 -8 14
-16 -2 -32 -20 -20 -7 4 -24 7 -38 8 -14 1 -25 6 -24 12 1 7 -6 10 -16 7 -10
-2 -26 3 -35 12 -11 12 -28 16 -51 13 -18 -2 -32 -1 -29 3 2 4 -3 10 -12 13
-9 4 -15 9 -12 12 3 2 17 0 32 -6 18 -6 25 -6 21 0 -3 6 -13 10 -21 10 -8 0
-23 15 -34 33 -11 17 -20 28 -21 22 0 -5 -4 -2 -8 8 -3 10 -10 14 -15 10z
m-22 -136 c-17 -49 -31 -65 -20 -22 10 40 26 78 31 73 3 -2 -2 -26 -11 -51z"/>
<path d="M4340 229 c0 -5 5 -7 10 -4 6 3 10 8 10 11 0 2 -4 4 -10 4 -5 0 -10
-5 -10 -11z"/>
<path d="M4480 206 c0 -2 23 -37 50 -79 28 -42 50 -84 50 -93 0 -10 3 -14 7
-11 3 4 12 -1 19 -11 7 -9 14 -12 14 -6 0 6 -10 23 -21 38 -12 15 -19 29 -17
32 3 2 18 -14 33 -36 29 -41 48 -53 39 -22 -5 16 -5 16 9 0 8 -10 20 -18 27
-18 7 0 2 10 -11 23 -14 12 -49 51 -79 87 l-54 65 62 -60 c39 -37 62 -53 62
-43 0 9 -7 19 -16 22 -9 4 -14 9 -11 12 3 4 22 -4 41 -16 20 -12 36 -19 36
-17 0 10 -179 118 -209 127 -17 5 -31 7 -31 6z m89 -90 c-3 -3 -11 5 -18 17
-13 21 -12 21 5 5 10 -10 16 -20 13 -22z m72 -73 c13 -16 12 -17 -3 -4 -10 7
-18 15 -18 17 0 8 8 3 21 -13z"/>
<path d="M4584 180 c40 -29 111 -59 166 -70 73 -14 101 -32 38 -24 -54 8 -60
-1 -23 -36 37 -35 30 -43 -11 -15 -59 40 -103 25 -55 -19 15 -13 33 -16 82
-13 35 2 73 8 84 14 11 5 41 16 68 23 26 7 47 16 47 19 0 4 -7 17 -16 30 -15
21 -18 21 -26 7 -5 -9 -6 -21 -3 -26 3 -6 3 -10 -2 -10 -4 1 -21 20 -37 43
-27 40 -27 41 -3 19 15 -14 27 -19 31 -13 7 11 -46 54 -89 72 -17 7 -83 12
-151 13 -111 1 -119 0 -100 -14z m209 -31 c12 -6 35 -23 51 -38 23 -21 28 -22
22 -7 -6 16 -4 17 9 6 9 -7 14 -19 11 -26 -3 -7 -1 -16 4 -19 6 -4 10 -12 10
-18 0 -7 -17 6 -37 29 -21 23 -53 49 -70 58 -18 9 -33 19 -33 21 0 8 10 6 33
-6z m165 -84 c-3 -3 -9 2 -12 12 -6 14 -5 15 5 6 7 -7 10 -15 7 -18z"/>
<path d="M4262 170 c-13 -11 -21 -23 -18 -28 3 -5 -6 -14 -19 -20 -14 -7 -25
-16 -25 -22 0 -5 -10 -10 -21 -10 -19 0 -20 -2 -8 -17 13 -16 12 -17 -3 -5
-23 18 -72 12 -76 -10 -2 -12 2 -15 17 -11 12 3 21 1 21 -6 0 -7 9 -9 25 -5
14 3 25 2 25 -3 0 -16 64 -32 137 -32 73 -1 73 -1 53 19 -11 11 -24 20 -29 20
-12 0 -41 86 -41 122 0 33 -7 34 -38 8z"/>
<path d="M5210 155 c-7 -8 -8 -15 -2 -15 5 0 15 7 22 15 7 8 8 15 2 15 -5 0
-15 -7 -22 -15z"/>
<path d="M1035 134 c-12 -9 -24 -10 -34 -4 -11 5 -23 5 -32 -1 -12 -9 -12 -10
1 -6 8 2 25 -5 38 -16 18 -17 22 -18 22 -4 0 11 14 19 43 25 42 8 42 8 11 13
-18 3 -40 0 -49 -7z"/>
<path d="M2486 55 c-3 -9 -6 -22 -5 -28 0 -7 5 -1 10 12 5 13 8 26 5 28 -2 2
-6 -3 -10 -12z"/>
<path d="M4050 60 c-13 -8 -13 -10 2 -10 9 0 20 5 23 10 8 13 -5 13 -25 0z"/>
<path d="M2300 47 c-8 -7 -21 -20 -29 -29 -12 -16 -11 -18 12 -18 19 0 26 6
30 27 6 34 6 34 -13 20z"/>
<path d="M5210 15 l-25 -14 28 -1 c17 0 27 5 27 15 0 18 1 18 -30 0z"/>
</g>
</svg>
