<svg width="74" height="87" viewBox="0 0 74 87" fill="none" xmlns="http://www.w3.org/2000/svg">
<g id="Group">
<path id="Vector" d="M72.9442 59.1166L64.2818 36.074V11.1188C64.2818 7.9308 61.9343 5.28988 59.1004 5.28988H52.7048L52.0565 3.65016C50.9231 0.735363 47.9277 -0.721387 45.256 0.553696L35.3789 5.28988H24.6112C21.7774 5.28988 19.4298 7.9308 19.4298 11.1188V12.9402L13.5199 15.7634C10.9289 17.0385 9.63394 20.4082 10.7674 23.4138L19.4304 46.4563V48.2777C18.7019 48.1869 17.9734 48.0954 17.1635 48.0954C7.6912 48.0954 0 56.7476 0 67.4038C0 78.0598 7.69105 86.7122 17.1635 86.7122C23.0734 86.7122 28.2549 83.3425 31.4123 78.2423L31.6551 78.8802C32.465 81.0662 34.4076 82.4322 36.4316 82.4322C37.0794 82.4322 37.8079 82.2498 38.4556 81.9767L48.4136 77.2405H59.1812C62.0151 77.2405 64.3627 74.5996 64.3627 71.4115V69.5901L70.2726 66.7669C72.7828 65.4919 73.9971 62.0314 72.9443 59.1166H72.9442ZM46.0655 2.55756C46.4705 2.37523 46.8754 2.28438 47.361 2.28438C48.6565 2.28438 49.79 3.10393 50.3564 4.4704L50.68 5.28994H40.3171L46.0655 2.55756ZM12.5481 22.4124C11.8196 20.591 12.6289 18.4049 14.2486 17.6762L19.43 15.217V40.8097L12.5481 22.4124ZM17.1626 50.0999C19.2674 50.0999 21.2106 50.5554 22.9917 51.375L21.7775 54.7447C20.4013 54.1068 18.7821 53.7428 17.1625 53.7428L17.1626 50.0999ZM11.4147 51.4658L12.6289 54.8355C11.1719 55.5642 9.87636 56.4746 8.74292 57.7503L6.39479 55.2002C7.85236 53.5604 9.55223 52.2854 11.4147 51.4658H11.4147ZM3.15663 60.7559L6.152 62.1218C5.58501 63.67 5.26141 65.4915 5.26141 67.3135H2.0233C1.94255 64.9452 2.3469 62.7596 3.15671 60.7559L3.15663 60.7559ZM6.39474 79.4267C5.01849 77.8785 3.88512 75.9656 3.07523 73.871L6.07061 72.5051C6.71836 74.1442 7.60899 75.6016 8.66161 76.8767L6.39474 79.4267ZM17.1624 84.4355C15.1384 84.4355 13.1144 83.98 11.3333 83.1604L12.5475 79.7907C13.9237 80.4286 15.5428 80.7926 17.1625 80.7926L17.1624 84.4355ZM7.12366 67.313C7.12366 61.0285 11.6573 56.0192 17.1628 56.0192C22.7492 56.0192 27.202 61.1194 27.202 67.313C27.202 73.5975 22.6684 78.6067 17.1628 78.6067C11.6573 78.6061 7.12366 73.5059 7.12366 67.313ZM25.6635 57.7497L27.9304 55.1995C29.3066 56.7477 30.44 58.6606 31.2499 60.7552L28.2545 62.1211C27.6875 60.4821 26.7969 59.0247 25.6635 57.7496V57.7497ZM23.0731 83.1602L21.7776 79.7905C23.2346 79.0618 24.5301 78.1515 25.6635 76.8757L27.9304 79.4259C26.5541 80.9748 24.935 82.2498 23.0731 83.1602H23.0731ZM28.2545 72.4134C28.8215 70.8652 29.1451 69.0437 29.1451 67.2217H32.3832C32.3832 69.4986 31.9783 71.7756 31.2498 73.7793L28.2545 72.4134ZM37.6454 79.8815C36.0264 80.6102 34.083 79.7906 33.4354 77.9685L33.1118 77.149H43.3938L37.6454 79.8815ZM62.3382 71.3207C62.3382 73.3244 60.8812 74.9634 59.1001 74.9634H32.95C33.8406 72.5956 34.3263 70.0456 34.3263 67.3131C34.3263 58.2963 28.7399 50.646 21.2917 48.5512L21.2923 11.1184C21.2923 9.1147 22.7493 7.47564 24.5304 7.47564H59.0193C60.8005 7.47564 62.2574 9.1147 62.2574 11.1184L62.258 71.3205L62.3382 71.3207ZM69.4628 64.7631L64.2814 67.2224V41.7207L71.1633 60.0273C71.8105 61.7579 71.0819 63.9433 69.4628 64.7634V64.7631Z" fill="#FFD59A"/>
<path id="Vector_2" d="M42.5036 29.5162C42.18 29.1522 41.613 29.1522 41.2081 29.5162L33.517 38.1684C31.493 40.4454 31.493 44.2706 33.517 46.5475C34.5697 47.7317 35.8646 48.2782 37.2415 48.2782C38.2128 48.2782 39.1847 48.005 40.0754 47.3671L38.1322 52.285C37.9701 52.7405 38.2129 53.196 38.6992 53.196H45.014C45.419 53.196 45.7426 52.7405 45.581 52.285L43.6379 47.3671C44.5284 48.005 45.4998 48.2782 46.4717 48.2782C47.848 48.2782 49.2242 47.6403 50.2769 46.4568C52.22 44.0889 52.1388 40.3546 50.1148 38.0777L42.5036 29.5162Z" fill="#FFD59A"/>
<path id="Vector_3" d="M27.8499 10.4813C27.7691 10.3905 27.5263 10.3905 27.445 10.4813L24.854 13.3961C24.2062 14.2157 24.2062 15.4908 24.854 16.2194C25.1776 16.5834 25.6638 16.7657 26.1495 16.7657C26.4731 16.7657 26.7972 16.6749 27.1208 16.4926L26.4731 18.1316C26.3923 18.314 26.4731 18.4048 26.6351 18.4048H28.74C28.902 18.4048 28.9828 18.2225 28.902 18.1316L28.2543 16.4926C28.5779 16.6749 28.902 16.8566 29.2256 16.8566C29.7113 16.8566 30.197 16.6743 30.5211 16.2187C31.1689 15.3992 31.1689 14.215 30.4404 13.3955L27.8499 10.4813Z" fill="#FFD59A"/>
<path id="Vector_4" d="M57.6428 65.5829C57.3192 65.5829 56.995 65.6737 56.6714 65.856L57.3192 64.217C57.4 64.0346 57.3192 63.9438 57.1571 63.9438H55.0523C54.8902 63.9438 54.8095 64.1261 54.8902 64.217L55.538 65.856C55.2144 65.6737 54.8902 65.492 54.5666 65.492C54.081 65.492 53.5953 65.6743 53.2711 66.1299C52.6234 66.9494 52.6234 68.1336 53.3519 68.9531L55.9429 71.8679C56.0237 71.9587 56.2665 71.9587 56.3478 71.8679L58.9388 68.9531C59.6673 68.1335 59.6673 66.8585 58.9388 66.1299C58.5334 65.7652 58.0477 65.5829 57.6428 65.5829H57.6428Z" fill="#FFD59A"/>
<path id="Vector_5" d="M17.73 66.1296H16.5966C15.706 66.1296 15.0582 65.31 15.1396 64.3082C15.2203 63.4886 15.9494 62.8508 16.678 62.8508H18.0536C18.5393 62.8508 18.9442 63.2148 19.025 63.7618C19.025 63.9442 19.1871 64.035 19.2678 64.035H20.7248C20.8869 64.035 21.0484 63.8527 21.0484 63.671C20.8863 62.0319 19.6722 60.6654 18.1339 60.5745L18.135 58.8432C18.135 58.6609 17.9729 58.4792 17.8114 58.4792H16.4346C16.2725 58.4792 16.111 58.6615 16.111 58.8432V60.4823C14.249 60.7555 12.8729 62.6683 13.0344 64.8538C13.1964 66.9485 14.8963 68.4059 16.6774 68.4059H17.6488C18.5393 68.4059 19.1871 69.2254 19.1057 70.2272C19.025 71.0468 18.2959 71.6846 17.5674 71.6846H16.2719C15.7862 71.6846 15.3813 71.3206 15.3005 70.7736C15.3005 70.5913 15.1385 70.5004 15.0577 70.5004H13.6007C13.4386 70.5004 13.2771 70.6827 13.2771 70.8644C13.4392 72.5035 14.6534 73.87 16.1917 73.9609V75.6C16.1917 75.7823 16.3537 75.964 16.5153 75.964H17.9723C18.1343 75.964 18.2958 75.7817 18.2958 75.6V73.8693C19.9149 73.5962 21.2104 72.1387 21.3725 70.3173C21.4538 68.1331 19.8347 66.1294 17.73 66.1294L17.73 66.1296Z" fill="#FFD59A"/>
</g>
</svg>
