<?xml version="1.0" encoding="UTF-8"?>
<!-- Uploaded to: SVG Repo, www.svgrepo.com, Generator: SVG Repo Mixer Tools -->
<svg width="800px" height="800px" viewBox="0 -0.5 34 34" version="1.1" xmlns="http://www.w3.org/2000/svg" xmlns:xlink="http://www.w3.org/1999/xlink">
    
    <title>casino-chips</title>
    <desc>Created with Sketch.</desc>
    <g id="icons" stroke="none" stroke-width="1" fill="none" fill-rule="evenodd">
        <g id="ui-gambling-website-lined-icnos-casinoshunter" transform="translate(-343.000000, -543.000000)" fill="#252528" fill-rule="nonzero">
            <g id="square-filled" transform="translate(50.000000, 120.000000)">
                <path d="M308.473054,423 C313.45358,423 317.698484,426.533134 318.656197,431.349126 C323.470838,432.307322 327,436.555566 327,441.537037 C327,447.274662 322.351268,451.925926 316.616766,451.925926 C315.097403,451.925926 313.624142,451.59903 312.275045,450.976802 L312.240429,451.035476 C310.364617,454.095332 307.037867,456 303.383234,456 C297.648732,456 293,451.348736 293,445.611111 C293,441.713059 295.165014,438.202407 298.539643,436.419476 C298.242546,435.447082 298.08982,434.428542 298.08982,433.388889 C298.08982,427.651264 302.738552,423 308.473054,423 Z M307.256846,450.009337 L307.03555,450.195187 C306.283934,450.795601 305.395106,451.203753 304.440832,451.377932 L304.152657,451.423125 L304.152263,454.427923 C306.000125,454.268609 307.725037,453.53627 309.114531,452.351997 L309.371079,452.12468 L307.256846,450.009337 Z M299.67331,450.148538 L297.554871,452.268014 C298.874293,453.425636 300.505493,454.167884 302.261412,454.390385 L302.614204,454.427924 L302.61381,451.423126 C301.625504,451.293323 300.697501,450.914567 299.906443,450.33003 L299.67331,450.148538 Z M297.574342,446.380653 L294.571217,446.380539 C294.712909,448.026179 295.308189,449.576099 296.276675,450.880988 L296.489891,451.156802 L298.6208,449.026416 C298.123796,448.333888 297.783126,447.541623 297.625022,446.69893 L297.574342,446.380653 Z M312.195253,446.380514 L309.192175,446.38028 L309.146,446.674385 C309.021102,447.356194 308.776742,448.005715 308.426242,448.597023 L308.269567,448.846801 L310.409262,450.987766 C311.358267,449.748396 311.964861,448.281119 312.159805,446.717095 L312.195253,446.380514 Z M313.716969,446.631848 L313.672276,447.016225 C313.551527,447.90958 313.315865,448.777459 312.972205,449.603042 C313.762856,449.961353 314.603893,450.201334 315.473408,450.313592 L315.847737,450.353856 L315.847343,447.349055 C315.201873,447.264295 314.580582,447.07315 314.002388,446.784347 L313.716969,446.631848 Z M320.490379,445.935263 C319.694579,446.637556 318.724067,447.112261 317.674364,447.303858 L317.38619,447.349051 L317.385796,450.353849 C319.233658,450.194535 320.95857,449.462196 322.348064,448.277923 L322.604612,448.050606 L320.490379,445.935263 Z M303.383234,441.288066 C300.996981,441.288066 299.062542,443.223559 299.062542,445.611111 C299.062542,447.998663 300.996981,449.934156 303.383234,449.934156 C305.769486,449.934156 307.703925,447.998663 307.703925,445.611111 C307.703925,443.223559 305.769486,441.288066 303.383234,441.288066 Z M325.428785,442.30644 L322.425708,442.306206 L322.379533,442.600311 C322.254635,443.28212 322.010275,443.931641 321.659775,444.522949 L321.5031,444.772727 L323.642795,446.913692 C324.5918,445.674322 325.198394,444.207045 325.393338,442.643021 L325.428785,442.30644 Z M313.545,446.176 L313.543,446.217 L313.546,446.176 L313.545,446.176 Z M313.545,446.174 L313.546,446.174 L313.550417,446.110675 L313.550417,446.110675 L313.552,446.063 L313.545,446.174 Z M318.032397,437.451269 L317.889772,437.771605 C317.005214,439.67093 315.560013,441.265469 313.754617,442.33512 L313.43232,442.518389 L313.317263,442.579176 C313.531659,443.283267 313.670919,444.011064 313.731567,444.753299 C314.516634,445.460982 315.535027,445.860082 316.616766,445.860082 C319.003019,445.860082 320.937458,443.924589 320.937458,441.537037 C320.937458,439.747859 319.841411,438.172602 318.228402,437.52454 L318.032397,437.451269 Z M313.557784,445.314722 L313.561,445.49 L313.560335,445.381328 L313.560335,445.381328 L313.557784,445.314722 Z M313.73792,444.835014 L313.535,444.849 L313.631,444.934 L313.744282,444.926664 L313.73792,444.835014 Z M313.534816,444.849129 C313.536736,444.875146 313.538477,444.899957 313.540128,444.924793 L313.534816,444.849129 Z M310.176447,439.943222 L308.051913,442.068787 C308.602781,442.794425 308.97788,443.63797 309.144391,444.539131 L309.192125,444.84157 L312.195249,444.841683 C312.048558,443.138068 311.415721,441.537516 310.387365,440.205909 L310.176447,439.943222 Z M296.489847,440.065474 L296.276636,440.341287 C295.377344,441.552966 294.799844,442.975916 294.60849,444.490593 L294.571215,444.841708 L297.574293,444.841942 C297.686267,443.987589 297.984007,443.177473 298.441299,442.460872 L298.620212,442.196626 L296.489847,440.065474 Z M312.966,442.17 L313.005,442.283 L313.006,442.283 L312.999915,442.263569 L312.999915,442.263569 L312.966,442.17 Z M312.942,442.103 L312.965,442.168 L312.954718,442.135287 L312.942,442.103 Z M312.34666,437.787108 C311.963742,438.124976 311.538393,438.411757 311.081413,438.639447 C311.756511,439.385258 312.320908,440.225251 312.755299,441.133766 C313.247256,440.861234 313.712169,440.541939 314.143649,440.18094 L314.460891,439.902449 L312.34666,437.787108 Z M302.614244,436.794295 L302.26145,436.831833 C300.622579,437.039494 299.092352,437.699922 297.822859,438.728252 L297.554871,438.954208 L299.673932,441.074306 C300.435631,440.448774 301.343443,440.024613 302.319588,439.845393 L302.614403,439.799018 L302.614244,436.794295 Z M304.152218,436.794294 L304.151984,439.799007 C305.082665,439.921126 305.960299,440.264022 306.720963,440.792559 L306.970098,440.975565 L309.092533,438.851611 C307.791159,437.749904 306.201534,437.044811 304.495027,436.83057 L304.152218,436.794294 Z M323.40998,435.869148 L321.285446,437.994713 C321.836314,438.720351 322.211413,439.563896 322.377924,440.465057 L322.425658,440.767496 L325.428782,440.767609 C325.282091,439.063993 324.649254,437.463442 323.620898,436.131835 L323.40998,435.869148 Z M317.285073,434.158292 L314.281995,434.158058 L314.235821,434.452163 C314.110922,435.133972 313.866563,435.783493 313.516062,436.374801 L313.359388,436.624579 L315.499082,438.765544 C316.448087,437.526174 317.054681,436.058896 317.249625,434.494873 L317.285073,434.158292 Z M309.939326,437.554656 L309.810598,437.712474 L309.812063,437.713668 L309.829,437.707 L309.94848,437.562131 L309.939326,437.554656 Z M308.473054,429.065844 C306.086802,429.065844 304.152362,431.001337 304.152362,433.388889 C304.152362,433.975144 304.269003,434.544308 304.491485,435.070799 L304.593283,435.293751 L304.811231,435.31969 C306.668023,435.575276 308.402718,436.327559 309.852874,437.484905 C311.592667,436.901032 312.793746,435.261845 312.793746,433.388889 C312.793746,431.001337 310.859306,429.065844 308.473054,429.065844 Z M318.007,436.962 L317.989,437.009 L317.99,437.009 L317.992432,437.004061 L318.007,436.962 Z M318.848045,432.971187 C318.853535,433.11006 318.856287,433.249311 318.856287,433.388889 C318.856287,434.077 318.789394,434.756469 318.657228,435.422802 L318.570108,435.820989 L318.525316,435.992756 L318.82502,436.10544 C319.219957,436.266449 319.595696,436.470176 319.94588,436.71254 L320.203627,436.901495 L322.326061,434.777541 C321.317684,433.923973 320.131071,433.304831 318.848045,432.971187 Z M298.80776,436.510275 L298.785255,436.521659 C298.794977,436.516729 298.801367,436.513499 298.80776,436.510275 Z M298.725,436.323 L298.693642,436.339744 L298.783,436.516 L298.725,436.323 Z M299.136191,436.351998 C299.132564,436.353666 299.128938,436.355336 299.125314,436.357008 L299.125314,436.357008 L299.135734,436.352204 Z M299.526542,436.182307 L299.447466,436.215147 L299.447466,436.215147 L299.553,436.172 L299.526542,436.182307 Z M299.635,436.138 L299.573,436.164 L299.636,436.139 L299.635,436.138 Z M302.664158,434.15843 L299.661032,434.158317 C299.709115,434.717091 299.809517,435.266058 299.960231,435.799861 C300.904419,435.470311 301.895246,435.278407 302.909773,435.232835 C302.823471,434.971974 302.755525,434.704497 302.70665,434.432228 L302.664158,434.15843 Z M304.21,435.459 L304.209,435.46 L304.222,435.461 L304.221,435.46 L304.21,435.459 Z M304.134,435.453 L304.205,435.46 L304.205,435.459 L304.134,435.453 Z M304.05447,435.447909 L304.131227,435.453004 L304.134,435.453 L304.05447,435.447909 L304.05447,435.447909 Z M303.690184,435.430486 L303.840231,435.436006 C303.7904,435.433843 303.740339,435.43198 303.690184,435.430486 Z M315.266268,427.721 L313.141734,429.846565 C313.692602,430.572202 314.0677,431.415748 314.234212,432.316909 L314.281945,432.619347 L317.28507,432.619461 C317.138378,430.915845 316.505541,429.315294 315.477185,427.983687 L315.266268,427.721 Z M301.579668,427.843251 C300.558296,429.112371 299.904383,430.63718 299.69831,432.268371 L299.661036,432.619486 L302.664113,432.61972 C302.776087,431.765367 303.073827,430.955251 303.53112,430.23865 L303.710032,429.974404 L301.579668,427.843251 Z M318.482284,431.523142 L318.482,431.525 L318.491,431.575 L318.482284,431.523142 Z M318.682574,431.486599 L318.485,431.523 L318.629,431.551 L318.692346,431.540215 L318.682574,431.486599 Z M307.704064,424.572073 L307.35127,424.609611 C305.712399,424.817272 304.182172,425.477699 302.912679,426.506029 L302.644691,426.731986 L304.763752,428.852084 C305.525452,428.226552 306.433264,427.802391 307.409408,427.62317 L307.704224,427.576796 L307.704064,424.572073 Z M309.242038,424.572072 L309.241804,427.576785 C310.172486,427.698903 311.050119,428.0418 311.810784,428.570337 L312.059919,428.753343 L314.182353,426.629389 C312.880979,425.527682 311.291354,424.822589 309.584847,424.608347 L309.242038,424.572072 Z" id="casino-chips">
</path>
            </g>
        </g>
    </g>
</svg>