<svg width="32" height="20" viewBox="0 0 32 20" fill="none" xmlns="http://www.w3.org/2000/svg">
<g id="Frame">
<path id="Vector" d="M19.8404 10.9207L18.4301 10.9326C16.6964 9.98198 13.536 9.3457 9.92419 9.3457C6.13188 9.3457 2.83724 10.0472 1.16926 11.0775L0.00817871 11.0872V12.6027C0.00817871 12.606 0.00817871 12.6093 0.00817871 12.6128C0.00817871 14.4166 4.44851 15.8789 9.92419 15.8789C15.3999 15.8789 19.8404 14.4166 19.8404 12.6128C19.8404 12.6093 19.8404 12.606 19.8404 12.6027V10.9207Z" fill="url(#paint0_linear_48_2161)"/>
<path id="Vector_2" d="M9.92419 14.2835C15.4007 14.2835 19.8402 12.8211 19.8402 11.0171C19.8402 9.21315 15.4007 7.75073 9.92419 7.75073C4.44772 7.75073 0.00817871 9.21315 0.00817871 11.0171C0.00817871 12.8211 4.44772 14.2835 9.92419 14.2835Z" fill="#FF922E"/>
<path id="Vector_3" d="M9.92427 13.0239C13.2891 13.0239 16.0168 12.1254 16.0168 11.0171C16.0168 9.90871 13.2891 9.01025 9.92427 9.01025C6.55949 9.01025 3.83179 9.90871 3.83179 11.0171C3.83179 12.1254 6.55949 13.0239 9.92427 13.0239Z" fill="white"/>
<path id="Vector_4" d="M9.93042 8.95439H9.64796C9.42814 8.95747 9.21177 8.96436 8.99883 8.97504L9.06786 9.12725C9.3512 9.11341 9.64158 9.10638 9.93042 9.10638V8.95264V8.95439ZM8.0879 9.0451L8.06592 9.04752H8.05911H8.05493H8.05229H8.04834H8.04526H8.04152H8.03845H8.03449H8.03163H8.02767H8.01273H8.01009H7.97953H7.9769H7.96569H7.96305H7.95513H7.95272H7.94964H7.9437H7.94063H7.93755H7.93447H7.9281H7.92172H7.91425H7.91095H7.90787H7.90458H7.89974H7.89644H7.89337H7.89007H7.88325H7.87644H7.86963H7.86303H7.85622C7.63699 9.08793 7.42434 9.12426 7.2183 9.15646L7.42098 9.29527C7.68014 9.25419 7.95074 9.21927 8.22529 9.1916L8.08812 9.04422L8.0879 9.0451ZM6.40893 9.3102C6.15988 9.36621 5.92379 9.42771 5.70222 9.49447L5.69694 9.49623L5.69166 9.49777H5.68925H5.68705H5.68463H5.68265H5.68045L5.99787 9.61066C6.20912 9.54631 6.43751 9.48679 6.67447 9.43342L6.41069 9.30603L6.40893 9.3102ZM5.04122 9.72751C4.85976 9.80091 4.68312 9.88562 4.51234 9.98118L4.91658 10.0585C5.07466 9.9702 5.23809 9.89177 5.4059 9.82371L5.0421 9.72707L5.04122 9.72751ZM4.10436 10.2579C4.01867 10.3278 3.94031 10.4062 3.87047 10.4918C3.86981 10.4926 3.86922 10.4934 3.86871 10.4943C3.86825 10.4951 3.86766 10.4958 3.86695 10.4964L3.86519 10.4986L3.86365 10.5008L3.8619 10.503L3.86014 10.5052L3.85838 10.5074V10.5085V10.5096V10.5107V10.5118V10.5131C3.85842 10.5137 3.85842 10.5142 3.85838 10.5147L3.85684 10.5171L3.85398 10.521L4.30945 10.5557C4.38273 10.4543 4.46914 10.3629 4.56641 10.2841L4.13183 10.2274L4.10436 10.2579ZM3.68516 10.8558C3.67859 10.8833 3.67373 10.9113 3.67065 10.9394C3.67065 10.9394 3.67065 10.941 3.67065 10.9419V10.9443V10.9467V10.9482V10.9496V10.9531V10.9564V10.9862V10.9886V10.9897V10.9908V10.9933V10.997V10.9994V11.0005V11.0016V11.004V11.0051V11.0062V11.0086V11.0097V11.0108V11.0119V11.0152V11.0163V11.0174V11.0185V11.0196V11.0207V11.0229V11.024V11.0262C3.67065 11.0262 3.67065 11.0286 3.67065 11.0297V11.0319C3.67197 11.0572 3.67461 11.0823 3.67857 11.1073C3.67844 11.108 3.67844 11.1087 3.67857 11.1094V11.1105V11.1125V11.1176V11.1198C3.67989 11.1268 3.68121 11.1336 3.68274 11.1406L4.14898 11.1299C4.1288 11.0356 4.12992 10.9381 4.15228 10.8443L3.68626 10.8325L3.68516 10.8558ZM4.27274 11.4341L3.81639 11.4677C3.86194 11.5342 3.91344 11.5965 3.97027 11.6537L3.97246 11.6559L3.97466 11.6581L3.97686 11.6605H3.97796V11.6616L3.97906 11.6627H3.98016H3.98126L3.98236 11.6638V11.6649V11.666H3.98346L3.98455 11.6671L3.98675 11.6691L3.98895 11.6711L3.99115 11.6732L3.99335 11.6754C3.99506 11.6768 3.99667 11.6783 3.99818 11.6798C4.01753 11.6976 4.03753 11.7154 4.05819 11.733L4.49431 11.6774C4.41094 11.6055 4.33653 11.5238 4.27274 11.4341ZM4.89482 11.9634L4.48904 12.0398L4.51454 12.0545L4.51827 12.0565L4.52157 12.0583H4.52311H4.52465H4.52619H4.52751H4.52861H4.52992H4.53124H4.53256H4.5341H4.53608L4.53938 12.06L4.54267 12.0618C4.62957 12.1095 4.72183 12.1558 4.81943 12.2006L4.8236 12.2026L4.82756 12.2043H4.82998H4.8313H4.83349H4.83481H4.83679L4.84031 12.2059H4.84185H4.84295H4.84426H4.84536H4.84646H4.84778H4.8491H4.85042H4.85218H4.85372H4.85548H4.85701H4.85899L4.86295 12.2076L4.86713 12.2094L4.87152 12.2111C4.90905 12.2281 4.94743 12.2447 4.98671 12.2608L5.35358 12.1654C5.18758 12.097 5.02605 12.0181 4.86998 11.9293L4.89482 11.9634ZM5.96358 12.4092L5.64352 12.5215L5.72662 12.5467L5.73189 12.5483L5.73717 12.5498H5.73959H5.742H5.74464H5.74706H5.74948L5.75431 12.5511H5.75673H5.75915H5.76135H5.76355H5.76596H5.76794H5.77014H5.77234H5.77476H5.77695H5.77871H5.78091H5.78289H5.78509H5.78663H5.78882H5.79058H5.79256H5.79366H5.7952H5.79652H5.79806H5.79916H5.80113H5.80245H5.80355H5.80553H5.80663H5.80795H5.80905H5.81103H5.81212H5.81344H5.81476H5.81652H5.81806H5.8196H5.82092H5.82224H5.82356H5.82531H5.82641H5.82751H5.82949H5.83059H5.83191H5.83301H5.83499H5.83718H5.83916H5.84026H5.8418H5.844H5.84554H5.84796H5.84927H5.85037H5.85257H5.85477H5.85697H5.85961H5.86114H5.86378H5.86532H5.86774H5.86928H5.87214L5.87675 12.5524L5.88181 12.5538H5.88466H5.8862H5.88928H5.89082H5.89368L5.89851 12.5551L5.90357 12.5564H5.90643H5.90797H5.91104H5.91258H5.91544L5.9205 12.5579L5.92555 12.5593H5.92863H5.93039H5.93368H5.93544H5.93896L5.94424 12.5608L5.94951 12.5623L5.95479 12.5636L5.9638 12.5661L5.96908 12.5674L5.97435 12.5689L5.97963 12.5702L5.98864 12.5727L5.99391 12.5742L5.99919 12.5755L6.00447 12.5768L6.01348 12.5792L6.01897 12.5808L6.02447 12.5821L6.02975 12.5836L6.03524 12.585H6.03876L6.04403 12.5863L6.04953 12.5876L6.0548 12.5889H6.0581H6.05986H6.06316H6.06492H6.06843L6.07371 12.5902L6.07876 12.5915H6.08184H6.0836H6.08646H6.08822H6.09151L6.09657 12.5929L6.10163 12.5942H6.10492H6.10756H6.1102H6.11174H6.1146H6.11745H6.12031L6.12515 12.5955H6.12756H6.1291H6.13152H6.13306H6.13416H6.13636H6.18516H6.18648H6.18867H6.18977H6.19131H6.19307H6.19549H6.19769H6.19923H6.20164H6.20274H6.20406H6.20626H6.20868H6.21022H6.21197H6.21329H6.21439H6.21659H6.21791H6.21923H6.22121H6.22253H6.22912H6.23066H6.23242H6.23352H6.23528H6.23659H6.23813H6.23923H6.24165H6.24341H6.24561H6.24737H6.24956H6.25066H6.25242H6.25462H6.25572H6.25748H6.25946H6.26187H6.26385H6.26627H6.26825H6.27067H6.27264H6.27506H6.27748H6.28012H6.28276H6.28517H6.28781H6.29023H6.29309H6.29573H6.29836L6.30386 12.5968H6.3065H6.30913H6.31177H6.31463H6.31727L6.32298 12.5981L6.3287 12.5994L6.33441 12.6008L6.35244 12.6049L6.61842 12.4782C6.38211 12.4244 6.1557 12.3642 5.94599 12.2992L5.96358 12.4092ZM7.38097 12.7321L7.17434 12.8707C7.21742 12.8777 7.26073 12.8845 7.30425 12.8911H7.31063H7.31656H7.32228H7.32513H7.32887H7.33151H7.34228H7.34426H7.35371H7.35635H7.35833H7.3658H7.36866H7.37086H7.37372H7.37723H7.38031H7.38317H7.38624L7.3924 12.8922H7.39877H7.40515C7.60943 12.9215 7.81929 12.9475 8.03471 12.9702L8.17539 12.8233C7.9015 12.7949 7.63178 12.7593 7.3735 12.7176L7.38097 12.7321ZM9.02411 12.903L8.95157 13.055H9.00345H9.01026H9.0351H9.05708C9.32702 13.0673 9.60289 13.0741 9.88272 13.0747L9.88624 12.921C9.5974 12.921 9.30746 12.9124 9.02433 12.8979L9.02411 12.903ZM11.5927 12.8468C11.3175 12.874 11.0335 12.8944 10.7486 12.9076L10.8145 13.06L10.9036 13.0558H10.9106H10.9176H11.0904H11.0972H11.104H11.1108H11.1179C11.3244 13.0428 11.527 13.0265 11.7257 13.0069L11.5927 12.8468ZM13.1514 12.6052C12.9123 12.6579 12.6592 12.7051 12.3994 12.7455L12.5988 12.8848C12.7521 12.861 12.9017 12.8353 13.0477 12.8077L13.0696 12.8033L13.0756 12.8022L13.0815 12.8011L13.0875 12.8H13.0912H13.0936H13.0971H13.0991H13.1026H13.1081L13.1136 12.7989H13.1167H13.1198H13.1226H13.1242H13.1314H13.1338H13.1365H13.138H13.1413H13.1426H13.1448H13.1488H13.151H13.1523H13.1536H13.1549H13.1571H13.16H13.1613H13.1646H13.1664H13.1679H13.1697H13.1719H13.1738H13.1763H13.1798H13.1824H13.1844H13.1868H13.189H13.1916H13.1938H13.1963H13.1989H13.2015H13.2042H13.2064H13.209H13.2112H13.2139H13.2163H13.2189H13.2244H13.2273H13.2301H13.233H13.2358H13.2387H13.2415H13.2444L13.2503 12.7978L13.2561 12.7967L13.262 12.7956L13.2679 12.7943C13.311 12.7853 13.3537 12.7762 13.3959 12.7668L13.1534 12.6047L13.1514 12.6052ZM14.4264 12.2226C14.2448 12.2961 14.0448 12.3658 13.8329 12.4294L14.1476 12.5434C14.3782 12.4743 14.5928 12.3996 14.7897 12.3199L14.4283 12.2221L14.4264 12.2226ZM15.3056 11.7339C15.1854 11.8299 15.057 11.9152 14.9221 11.9891L15.3243 12.0675C15.3481 12.0543 15.3714 12.0411 15.394 12.0277L15.3962 12.0264H15.3973L15.3991 12.0253H15.4004H15.4015H15.4028H15.4041H15.4054H15.4068H15.4083H15.4096H15.4112H15.4125H15.414H15.4153H15.4171H15.4186L15.4204 12.0242L15.4237 12.022L15.427 12.0201C15.4835 11.9857 15.5373 11.9506 15.5881 11.9148L15.5912 11.9126L15.5943 11.9105L15.5973 11.9083L15.6002 11.9063H15.6015H15.6031L15.6044 11.9052H15.6057H15.6068H15.6081H15.6092H15.6105H15.6116H15.6129H15.6143H15.6156L15.618 11.9032L15.6206 11.9012L15.6233 11.8993C15.6481 11.8806 15.6721 11.8619 15.6954 11.843L15.2621 11.785L15.3056 11.7339ZM15.7062 11.1819C15.6784 11.2834 15.6318 11.3787 15.5688 11.4628L16.0236 11.4986C16.0461 11.4678 16.0669 11.4357 16.086 11.4027L16.0873 11.4005V11.3991V11.3978V11.3967V11.3954V11.3943V11.3928V11.3917V11.3906V11.3895V11.3873C16.0873 11.3866 16.0873 11.3858 16.0873 11.3851L16.0886 11.3829C16.0886 11.3829 16.0886 11.3814 16.0886 11.3807L16.09 11.3785C16.1151 11.3294 16.1352 11.2779 16.15 11.2248V11.2237V11.2223V11.2212V11.2201L15.6842 11.2072L15.7062 11.1819ZM16.055 10.5819L15.598 10.6142C15.6553 10.6997 15.6954 10.7955 15.7158 10.8964L16.1825 10.8872C16.1785 10.8652 16.1735 10.845 16.1678 10.8241V10.8217V10.8193V10.8182V10.8171V10.816V10.8149V10.8138V10.8127V10.8116V10.8092V10.7872V10.7861V10.785V10.7837V10.7824V10.7809V10.7793V10.7778V10.7754C16.1679 10.7746 16.1679 10.7738 16.1678 10.773V10.7706V10.7681C16.1677 10.7673 16.1677 10.7665 16.1678 10.7657V10.7633C16.1444 10.704 16.1149 10.6474 16.0798 10.5942L16.055 10.5819ZM15.3955 10.0086L14.988 10.084C15.1175 10.1587 15.2399 10.2451 15.3536 10.342L15.7912 10.2867L15.7604 10.2606L15.7589 10.2592L15.7574 10.2579L15.7558 10.2568L15.7545 10.2557V10.2546L15.7532 10.2535V10.2524L15.7519 10.2513H15.7506H15.7492L15.7466 10.2494L15.744 10.2472C15.634 10.159 15.5175 10.0793 15.3955 10.0086ZM14.2525 9.52413L13.93 9.63526C14.1384 9.70115 14.3334 9.77187 14.5101 9.84655L14.879 9.75211C14.7924 9.71543 14.7018 9.67963 14.6079 9.64492L14.6031 9.64317L14.5985 9.64163L14.5939 9.64009H14.5915H14.5895H14.5875H14.586H14.584H14.5824H14.5805H14.5785H14.5767H14.5747H14.5734H14.5717H14.5703H14.5686H14.5675H14.566H14.5646H14.5627H14.5613H14.5591L14.5547 9.63856L14.5503 9.63702L14.5475 9.63592H14.5459H14.5431L14.5385 9.63438L14.5339 9.63262C14.4478 9.60232 14.3593 9.57304 14.2683 9.54477L14.2525 9.52413ZM12.7285 9.17117L12.5194 9.30888C12.7762 9.35105 13.025 9.40025 13.2616 9.45472L13.5306 9.32777C13.4036 9.29849 13.2731 9.2706 13.1393 9.24409L13.1332 9.24277H13.127L13.105 9.23838H13.0987L13.0925 9.23706H13.0894L13.0769 9.23465H13.0705L13.0644 9.23333L13.0424 9.22916L13.0362 9.22806L13.0301 9.22674L13.0237 9.22564L13.0143 9.22389L13.0081 9.22257L12.9995 9.21795L12.9934 9.21686L12.9872 9.21554L12.9778 9.21378L12.9714 9.21268L12.965 9.21159L12.9589 9.21049H12.9527L12.9463 9.20939H12.9433H12.9371H12.9309L12.9248 9.20829L12.9184 9.20719L12.912 9.2061H12.909L12.9026 9.205L12.8964 9.2039L12.8903 9.2028H12.8874H12.8843H12.8815H12.8786H12.8758H12.8729H12.8698L12.8639 9.2017H12.8582H12.8553H12.8527H12.8498H12.8474H12.8448H12.8426H12.8399H12.8375H12.8351H12.8322H12.8298H12.827H12.8248H12.8221H12.8202H12.8175H12.8164H12.8144H12.812H12.8098H12.8054H12.8032H12.7797H12.7773H12.7731H12.7709H12.7665H12.7643H12.7617H12.7595H12.7553H12.7525H12.7507H12.7476H12.7459H12.7421L12.7362 9.2006H12.7313L12.7285 9.17117ZM10.9563 8.98185L10.8805 9.13384C11.1643 9.14921 11.4467 9.17183 11.72 9.20104L11.8642 9.05455C11.8039 9.04796 11.7435 9.04203 11.6824 9.0361H11.6758H11.6694H11.6663H11.6147H11.6114H11.6079H11.601H11.5942H11.5874C11.3814 9.01765 11.1715 9.00258 10.9576 8.99085L10.9563 8.98185Z" fill="#FF922E"/>
<path id="Vector_5" d="M9.92428 8.69781C10.841 8.69548 11.7568 8.75641 12.6652 8.88011C13.5036 8.99695 14.2567 9.16409 14.9034 9.37714C15.5501 9.59019 16.0577 9.83837 16.4124 10.1145C16.7795 10.4 16.9657 10.7042 16.9657 11.0172C16.9657 11.3301 16.7804 11.6341 16.4124 11.9196C16.0577 12.1957 15.5501 12.4439 14.9034 12.6567C14.2567 12.8695 13.5036 13.0371 12.6652 13.154C11.7568 13.2775 10.841 13.3383 9.92428 13.3361C9.00761 13.3383 8.09187 13.2775 7.18358 13.154C6.3452 13.0371 5.5921 12.8698 4.94539 12.6567C4.29869 12.4437 3.79091 12.1961 3.43744 11.9196C3.07034 11.6341 2.88416 11.3299 2.88416 11.0167C2.88416 10.7035 3.07034 10.4 3.43744 10.114C3.79201 9.83771 4.29979 9.58975 4.94649 9.3767C5.5932 9.16366 6.34629 8.99651 7.18468 8.87967C8.09295 8.75597 9.00869 8.69507 9.92538 8.69737M9.92538 8.65894C5.97216 8.65894 2.76721 9.7145 2.76721 11.0167C2.76721 12.3189 5.97107 13.3751 9.92428 13.3751C13.8775 13.3751 17.0827 12.3194 17.0827 11.0172C17.0827 9.71494 13.8788 8.65937 9.92428 8.65937L9.92538 8.65894Z" fill="#F7FAF6"/>
<path id="Vector_6" d="M9.9242 8.83966C10.7849 8.83748 11.6446 8.89465 12.4974 9.01075C13.2846 9.12057 13.9922 9.27739 14.5986 9.47747C15.2051 9.67756 15.6826 9.91037 16.0154 10.1695C16.3603 10.4379 16.535 10.7232 16.535 11.0171C16.535 11.311 16.3592 11.5963 16.0154 11.8647C15.6826 12.1241 15.2058 12.3569 14.5986 12.5569C13.9915 12.757 13.2852 12.9139 12.4974 13.0237C11.6446 13.1398 10.7849 13.1969 9.9242 13.1948C9.06398 13.1969 8.20467 13.1397 7.35232 13.0237C6.56515 12.9139 5.85756 12.7568 5.25086 12.5569C4.64416 12.3571 4.16605 12.1241 3.83303 11.8647C3.48835 11.5963 3.3136 11.3112 3.3136 11.0171C3.3136 10.723 3.48835 10.4379 3.83303 10.1695C4.16605 9.91037 4.64262 9.67734 5.24976 9.47747C5.8569 9.27761 6.56405 9.12035 7.35122 9.01075C8.20392 8.89465 9.06363 8.83748 9.9242 8.83966ZM9.9242 8.80122C6.20927 8.80122 3.19775 9.79331 3.19775 11.0171C3.19775 12.2409 6.20927 13.2332 9.9253 13.2332C13.6413 13.2332 16.6531 12.2411 16.6531 11.0171C16.6531 9.79309 13.6398 8.80078 9.9242 8.80078V8.80122Z" fill="#F7FAF6"/>
<path id="Vector_7" d="M13.2087 11.8519C13.1388 11.8427 13.0676 11.8551 13.0049 11.8875H11.9986L11.8564 12.0182C11.825 12.0469 11.7419 12.0663 11.6489 12.0663L11.8434 11.8886H11.6961L11.5544 12.0179C11.5227 12.0467 11.4396 12.066 11.3466 12.066L11.541 11.8886H11.3948L11.2532 12.0177C11.2216 12.0465 11.1385 12.0658 11.0455 12.0658L11.2396 11.8888H10.1543H9.41201C9.43927 11.8545 9.53335 11.8306 9.64085 11.8306H10.2031L11.065 10.8308H9.54566C9.14999 11.2464 8.75432 11.7155 8.35864 12.1418C8.2927 12.2138 8.45383 12.3024 8.68222 12.303C10.0831 12.3083 11.4838 12.298 12.8847 12.303C12.9647 12.303 13.0353 12.2859 13.0562 12.2604L13.3309 11.9272C13.3571 11.8956 13.3046 11.8616 13.2087 11.8519Z" fill="#FF922E"/>
<path id="Vector_8" d="M12.0102 9.73157V9.73047H10.4555C10.31 9.73047 10.1917 9.76938 10.1917 9.8184H10.965C10.929 9.85049 10.8375 9.87225 10.7335 9.87313L10.437 9.87621C10.3034 10.0192 10.1699 10.1625 10.0365 10.306H11.5179L11.9375 9.81796H11.9784C12.0461 9.81796 12.1061 9.80169 12.1136 9.77949C12.121 9.75729 12.0744 9.73618 12.0102 9.73157Z" fill="url(#paint1_linear_48_2161)"/>
<path id="Vector_9" d="M13.2531 10.4698C13.2531 10.4654 13.2511 10.4613 13.2498 10.4569C13.1678 10.1553 12.3892 9.92603 11.4693 9.92603H8.80882C8.58768 9.92603 8.39116 9.97171 8.31467 10.04L8.1054 10.2069H7.87327C7.71302 10.2069 7.56179 10.2315 7.46419 10.2728H8.78156L9.12558 10.2746C9.29681 10.2757 9.41881 10.3269 9.39287 10.38L9.08205 10.6609H8.93565L9.23197 10.3903H9.13898L8.84267 10.6622H8.65538L8.95214 10.3917C8.46238 10.3886 8.06583 10.3853 7.5763 10.3822C7.45825 10.3822 7.349 10.4029 7.29427 10.4371C7.27429 10.4487 7.25703 10.4645 7.24371 10.4835C7.22744 10.5087 7.29163 10.5324 7.36945 10.5291H7.37208C7.45693 10.525 7.49342 10.5004 7.49606 10.4986H8.34852C8.34852 10.5206 8.2929 10.5395 8.22454 10.5395H7.77897C7.16172 11.1437 6.72934 11.579 6.54974 11.7136C6.37015 11.8483 6.52337 11.9038 6.65394 11.9249C6.71401 11.9342 6.77473 11.9387 6.83551 11.9383H7.9601L8.70748 11.2184H8.48766C8.36786 11.2184 8.2707 11.1865 8.2707 11.147H9.5263C10.0585 11.3936 10.5907 11.6429 11.1228 11.8898C11.6344 11.8898 12.1457 11.8871 12.6572 11.8871L10.8819 11.1009L11.4686 11.1061C12.3479 11.1061 13.1045 10.8964 13.2364 10.6102C13.2573 10.5665 13.2632 10.5172 13.2531 10.4698ZM8.73672 10.7589H8.5646L8.64857 10.6824H8.82025L8.73672 10.7589ZM8.97544 10.7589H8.84487L8.92818 10.6829H9.05875L8.97544 10.7589ZM9.7448 10.7589C9.5773 10.7589 9.37287 10.7589 9.13151 10.7589L9.21526 10.6833H9.82812L9.7448 10.7589ZM9.2379 10.6625L9.5263 10.4C9.77514 10.4011 9.98155 10.4015 10.1339 10.4018L9.84812 10.6622L9.2379 10.6625ZM10.0385 10.7595H9.89934L9.98309 10.6833H10.1225L10.0385 10.7595ZM10.0055 10.6625L10.2913 10.402H10.4306L10.1449 10.6622L10.0055 10.6625ZM10.8129 10.7134C10.6081 10.7452 10.4011 10.7606 10.1939 10.7593L10.2776 10.6829C10.4342 10.6855 10.5682 10.6846 10.6733 10.6829C10.8694 10.6794 10.9591 10.6728 11.0452 10.6572C11.0804 10.6512 11.1152 10.6434 11.1494 10.6337C11.0392 10.6687 10.9263 10.6953 10.812 10.7132L10.8129 10.7134ZM11.2468 10.5654C11.2114 10.6093 11.0729 10.6313 10.9989 10.642C10.8993 10.6572 10.8122 10.6592 10.6423 10.6625C10.5082 10.6651 10.3919 10.6642 10.2998 10.6625L10.5843 10.4029C10.6228 10.4007 10.9292 10.3853 11.1228 10.4531C11.1481 10.4619 11.289 10.5114 11.2459 10.5652L11.2468 10.5654Z" fill="#FF922E"/>
<path id="Vector_10" d="M10.1348 10.4019C9.98246 10.4019 9.77606 10.4019 9.52722 10.4001L9.23706 10.6626H9.84969L10.1348 10.4019ZM9.3373 10.6393L9.57602 10.4234L10.0352 10.4248L9.80024 10.6393H9.3373Z" fill="white"/>
<path id="Vector_11" d="M8.84558 10.7587L8.97549 10.7585L9.05946 10.6826H8.92867L8.84558 10.7587Z" fill="white"/>
<path id="Vector_12" d="M8.5647 10.7591H8.73681L8.82035 10.6829H8.64867L8.5647 10.7591ZM8.69791 10.7057H8.71989L8.68692 10.7358H8.66493L8.69791 10.7057Z" fill="white"/>
<path id="Vector_13" d="M13.3231 10.4699C13.3222 10.4654 13.3211 10.4609 13.3198 10.4565C13.2787 10.3052 13.0659 10.1652 12.721 10.0629C12.3761 9.96055 11.9332 9.90454 11.47 9.90454H8.8089C8.55984 9.90454 8.33519 9.95638 8.24946 10.0332L8.14527 10.1163L8.05866 10.1844H7.87335C7.69266 10.1844 7.51878 10.2125 7.40866 10.2597L7.32073 10.2968H8.78054L9.12302 10.2986C9.17534 10.2977 9.22743 10.3059 9.27689 10.3229C9.30942 10.3357 9.32635 10.3517 9.32525 10.368H9.08983L9.07312 10.3833L8.79351 10.639H8.75548L8.86385 10.5402L9.01773 10.3994L9.05092 10.3691H8.9531L8.26221 10.3645L7.5777 10.3601H7.57C7.42778 10.3601 7.29809 10.3858 7.23192 10.4275C7.2091 10.4405 7.18943 10.4585 7.17433 10.48C7.16268 10.4982 7.17631 10.5169 7.21192 10.5314C7.25746 10.5472 7.30549 10.5546 7.3537 10.5533C7.36161 10.5533 7.36997 10.5533 7.37788 10.5533H7.38206C7.43387 10.5522 7.48506 10.542 7.53329 10.523H7.72387L7.71332 10.5334C7.59374 10.6505 7.4812 10.761 7.37568 10.865C6.94264 11.2907 6.62984 11.5981 6.48652 11.7058C6.27747 11.8624 6.483 11.9243 6.6239 11.9474C6.69425 11.9581 6.76531 11.9633 6.83647 11.963H8.00964L8.0259 11.9474L8.77329 11.2274L8.80494 11.1969H8.48708C8.44275 11.199 8.39854 11.1903 8.35827 11.1716H9.48946C9.74862 11.292 10.0117 11.4145 10.2663 11.5331C10.5169 11.65 10.7754 11.7703 11.0304 11.8887H11.1163C10.5861 11.6427 10.0559 11.3943 9.52551 11.1486H8.27012C8.27012 11.1881 8.36728 11.2199 8.48708 11.2199H8.7069L7.95952 11.9399H6.83559C6.77481 11.9403 6.71409 11.9358 6.65402 11.9265C6.52345 11.9045 6.36825 11.8512 6.54982 11.7152C6.73139 11.5793 7.1618 11.1453 7.77905 10.541H8.22374C8.2921 10.541 8.34772 10.5226 8.34772 10.5002H7.49526C7.49263 10.5019 7.45614 10.5265 7.37129 10.5307H7.35392C7.28292 10.5307 7.22796 10.5088 7.24401 10.4848C7.25733 10.4659 7.27459 10.4501 7.29457 10.4385C7.34842 10.4046 7.45482 10.3836 7.57044 10.3836H7.5766C8.06613 10.3866 8.46268 10.3899 8.95244 10.393L8.65568 10.6636H8.84297L9.13929 10.393H9.23227L8.93595 10.6636H9.08235L9.39296 10.382C9.41889 10.3289 9.29689 10.2777 9.12566 10.2766L8.78164 10.2748H7.46427C7.56187 10.2331 7.7131 10.209 7.87335 10.209H8.10548L8.31475 10.042C8.39036 9.97373 8.58776 9.92804 8.8089 9.92804H11.47C12.3893 9.92804 13.1679 10.1573 13.2505 10.4589C13.2519 10.4633 13.253 10.4675 13.2538 10.4719C13.2635 10.5191 13.2573 10.5682 13.2363 10.6115C13.1044 10.8971 12.3475 11.1075 11.4685 11.1075L10.8818 11.1022L12.657 11.8885H12.745L12.714 11.8749L11.6808 11.4174L11.0244 11.1266L11.4667 11.1305H11.4685C11.9114 11.1305 12.3409 11.0787 12.6775 10.9845C13.014 10.8903 13.2391 10.7585 13.3053 10.6148C13.327 10.5698 13.3332 10.5189 13.3231 10.4699ZM9.32459 10.3763L9.29316 10.404L9.29799 10.3994L9.32459 10.3752V10.3763Z" fill="white"/>
<path id="Vector_14" d="M9.13062 10.7584H9.3234H9.74391L9.82722 10.6824H9.21437L9.13062 10.7584ZM9.26251 10.7059H9.72632L9.69379 10.7356H9.22997L9.26251 10.7059Z" fill="white"/>
<path id="Vector_15" d="M11.1487 10.6335C11.1144 10.6432 11.0796 10.6511 11.0445 10.6571C10.9565 10.6727 10.8686 10.679 10.6725 10.6828C10.6152 10.6828 10.549 10.6843 10.4747 10.6843C10.4134 10.6843 10.347 10.6843 10.2769 10.6828L10.1931 10.7593C10.4004 10.7606 10.6073 10.7452 10.8121 10.7133C10.9262 10.6953 11.0387 10.6686 11.1487 10.6335ZM10.2958 10.7347L10.3263 10.7065C10.3764 10.7065 10.4268 10.7076 10.4765 10.7076C10.5424 10.7076 10.611 10.7076 10.6774 10.7059H10.6969C10.5639 10.723 10.4299 10.7326 10.2958 10.7347Z" fill="white"/>
<path id="Vector_16" d="M10.6414 10.6626C10.8113 10.6593 10.8984 10.6573 10.998 10.6421C11.0721 10.6307 11.2105 10.6096 11.2459 10.5654C11.2899 10.5115 11.1481 10.4621 11.122 10.4531C10.994 10.4091 10.8166 10.3997 10.6999 10.3997C10.6403 10.3997 10.5964 10.4019 10.5834 10.4027L10.299 10.6626C10.3493 10.6626 10.4067 10.6641 10.4702 10.6641C10.5232 10.6641 10.5814 10.6637 10.6414 10.6626ZM10.6348 10.4238C10.6526 10.4238 10.6748 10.4238 10.7008 10.4238C10.8107 10.4238 10.963 10.432 11.0716 10.47C11.1138 10.4847 11.2088 10.5232 11.1789 10.5606C11.1521 10.5944 11.0378 10.6118 10.9694 10.6221C10.8832 10.6353 10.81 10.6371 10.6381 10.6406C10.5827 10.6417 10.5265 10.6421 10.4711 10.6421H10.3983L10.6348 10.4238Z" fill="white"/>
<path id="Vector_17" d="M10.4292 10.4021H10.2898L10.004 10.6628H10.1434L10.4292 10.4021Z" fill="white"/>
<path id="Vector_18" d="M10.0377 10.7593L10.1217 10.6826H9.98231L9.89856 10.7589H10.0377V10.7593Z" fill="white"/>
<path id="Vector_19" d="M6.89976 8.6918C7.90672 8.55417 8.922 8.48647 9.9383 8.48913V7.75098H9.92424C8.53938 7.75098 7.22245 7.8444 6.02576 8.01344L6.89976 8.6918Z" fill="#F7FAF6"/>
<path id="Vector_20" d="M14.7398 8.16138L13.7084 8.77394C14.6261 8.94174 15.421 9.16511 16.0705 9.43767L17.7398 9.00653C16.9241 8.66302 15.9039 8.37486 14.7398 8.16138Z" fill="white"/>
<path id="Vector_21" d="M0.273926 11.8585V13.3657C0.585628 13.8003 1.16111 14.2016 1.94257 14.5499V12.9466L0.315911 11.8008C0.301843 11.8199 0.287774 11.8392 0.273926 11.8585Z" fill="#EDE8E8"/>
<path id="Vector_22" d="M5.59534 15.5515C6.76037 15.738 8.05313 15.8517 9.41886 15.8741V14.2792L5.59534 13.9563V15.5515Z" fill="#EDE8E8"/>
<path id="Vector_23" d="M14.3564 15.5346C15.5705 15.3342 16.6426 15.0544 17.5091 14.7158V13.2295L14.3564 14.0103V15.5346Z" fill="#EDE8E8"/>
<path id="Vector_24" d="M19.8404 12.6123C19.8404 12.6088 19.8404 12.6055 19.8404 12.6022V10.9209L19.7116 10.922L19.5764 11.7685V13.3635C19.7479 13.1223 19.8404 12.8708 19.8404 12.6123Z" fill="#EDE8E8"/>
<path id="Vector_25" d="M17.7256 11.0191C17.7256 11.2187 17.6561 11.4173 17.5192 11.6092L19.5769 11.7687C19.7492 11.5271 19.8407 11.2758 19.8407 11.0173C19.8386 10.8263 19.7907 10.6386 19.7009 10.47L17.6157 10.5862C17.6865 10.7196 17.7242 10.868 17.7256 11.0191Z" fill="white"/>
<path id="Vector_26" d="M17.5091 13.2296L15.9297 12.7666C15.2294 13.0256 14.3943 13.2322 13.4475 13.3803L14.3565 14.0104C15.5615 13.8213 16.632 13.5544 17.5091 13.2296Z" fill="white"/>
<path id="Vector_27" d="M5.59534 13.9569C6.76037 14.1438 8.05379 14.2574 9.42018 14.2801L9.53009 13.5806C8.52512 13.5666 7.52244 13.4812 6.52957 13.3252L5.59534 13.9569Z" fill="white"/>
<path id="Vector_28" d="M0.273926 11.7706C0.58343 12.2024 1.1532 12.6008 1.92498 12.9474L3.60967 12.5485C2.99616 12.2674 2.56883 11.9542 2.34022 11.6179L0.273926 11.7706Z" fill="white"/>
<path id="Vector_29" d="M0.348511 10.1666L2.43964 10.3601C2.72167 10.0285 3.19846 9.72318 3.85637 9.45237L2.1319 8.99707C1.31505 9.33838 0.701099 9.73482 0.348511 10.1666Z" fill="white"/>
<path id="Vector_30" d="M6.89976 8.6918C7.90672 8.55417 8.922 8.48647 9.9383 8.48913V7.75098H9.92424C8.53938 7.75098 7.22245 7.8444 6.02576 8.01344L6.89976 8.6918Z" fill="white"/>
<path id="Vector_31" d="M20.61 8.35747L19.1999 8.36933C17.4662 7.41853 14.3057 6.78247 10.6929 6.78247C6.90041 6.78247 3.60577 7.48398 1.93779 8.51429L0.777588 8.52395V10.0394C0.777588 10.0427 0.777588 10.046 0.777588 10.0495C0.777588 11.8536 5.21792 13.3151 10.694 13.3151C16.1702 13.3151 20.61 11.8536 20.61 10.0489C20.61 10.0454 20.61 10.0421 20.61 10.0388V8.35747Z" fill="url(#paint2_linear_48_2161)"/>
<path id="Vector_32" d="M10.6941 11.7201C16.1706 11.7201 20.6101 10.2576 20.6101 8.45366C20.6101 6.64967 16.1706 5.18726 10.6941 5.18726C5.21762 5.18726 0.778076 6.64967 0.778076 8.45366C0.778076 10.2576 5.21762 11.7201 10.6941 11.7201Z" fill="#FF922E"/>
<path id="Vector_33" d="M10.694 10.4604C14.0588 10.4604 16.7865 9.5619 16.7865 8.45358C16.7865 7.34524 14.0588 6.44678 10.694 6.44678C7.32927 6.44678 4.60156 7.34524 4.60156 8.45358C4.60156 9.5619 7.32927 10.4604 10.694 10.4604Z" fill="white"/>
<path id="Vector_34" d="M10.7001 6.39018H10.4177C10.1978 6.39326 9.98139 6.40016 9.76832 6.41083L9.83735 6.56304C10.1209 6.5492 10.4111 6.54217 10.7001 6.54217V6.38843V6.39018ZM8.8574 6.48089L8.83541 6.48331H8.82882H8.82442H8.82179H8.81783H8.80794H8.8042H8.8009H8.79717H8.79607H8.79211H8.782H8.77936H8.74815H8.74573H8.73496H8.7321H8.72441H8.72177H8.71298H8.7099H8.70682H8.70286H8.69671H8.69033H8.6866H8.6833H8.68H8.67693H8.67363H8.66901H8.66549H8.6622H8.6589H8.65209H8.64527H8.63846H8.63164H8.62483C8.40692 6.50835 8.19486 6.53765 7.98867 6.57116L8.19135 6.70997C8.45051 6.6689 8.72133 6.63398 8.99588 6.6063L8.8585 6.45893L8.8574 6.48089ZM7.17842 6.74687C6.92937 6.80288 6.69328 6.86438 6.47171 6.93114L6.46643 6.9329L6.46138 6.93444H6.45874H6.45654H6.45412H6.45214H6.44995L6.76736 7.04733C6.97883 6.98298 7.207 6.92346 7.44396 6.87009L7.18018 6.7427L7.17842 6.74687ZM5.81071 7.16418C5.62934 7.23723 5.45276 7.32168 5.28205 7.41698L5.68608 7.49429C5.84415 7.40599 6.00758 7.32756 6.17539 7.2595L5.81137 7.16374L5.81071 7.16418ZM4.87385 7.69459C4.78812 7.76474 4.70975 7.84342 4.63996 7.92938L4.6382 7.9318L4.63644 7.934L4.63469 7.93619L4.63293 7.93839L4.63139 7.94058L4.62963 7.94278L4.62787 7.94476V7.94586V7.94695V7.94827V7.94981L4.62633 7.95223L4.62347 7.95618L5.07894 7.99088C5.15229 7.88945 5.23868 7.79811 5.33591 7.71919L4.90133 7.66253L4.87385 7.69459ZM4.45465 8.29244C4.44808 8.32 4.44322 8.34796 4.44015 8.37612C4.44004 8.37693 4.44004 8.37774 4.44015 8.37853V8.38095V8.38315V8.38468V8.386V8.38732V8.39062V8.42158V8.42729V8.42971V8.43081V8.43191V8.43432V8.43542V8.43652V8.43762V8.44926V8.45167V8.45277V8.45387V8.45607V8.45716V8.45826V8.45936V8.46046V8.46156V8.46375V8.46595C4.44026 8.46714 4.44026 8.4683 4.44015 8.46946V8.47166C4.44129 8.4969 4.44386 8.52207 4.44784 8.54699V8.54809C4.44784 8.54809 4.44784 8.54963 4.44784 8.55029V8.55139V8.55336V8.55842V8.56061C4.44916 8.56764 4.45048 8.57445 4.45202 8.58148L4.91847 8.57071C4.90884 8.52626 4.90398 8.48091 4.90396 8.43542C4.90405 8.38499 4.90994 8.33472 4.92155 8.28563L4.45553 8.27377L4.45465 8.29244ZM5.04201 8.87074L4.58567 8.90434C4.63121 8.97089 4.68272 9.03316 4.73954 9.09037L4.74174 9.09257L4.74394 9.09476L4.74613 9.09718V9.09828V9.09938L4.74723 9.10047L4.74833 9.10157V9.10267L4.74943 9.10377L4.75053 9.10487H4.75163V9.10596L4.75361 9.10794L4.75581 9.10992L4.758 9.11211L4.7602 9.11431L4.76482 9.11892C4.78416 9.13671 4.80417 9.1545 4.82505 9.17207L5.26095 9.11651C5.16552 9.03742 5.08122 8.94581 5.01035 8.84416L5.04201 8.87074ZM5.66409 9.40005L5.25831 9.47649L5.28403 9.4912L5.28755 9.49318L5.29106 9.49494H5.29282H5.29436H5.2959H5.29722H5.29876H5.3003H5.30139H5.30249H5.30381H5.30513L5.30733 9.49603L5.31063 9.49779L5.31392 9.49955C5.40069 9.54699 5.49292 9.59327 5.59068 9.63836L5.59485 9.64033L5.59881 9.64209L5.60123 9.64319H5.60233L5.60474 9.64429H5.60584H5.60782L5.61134 9.64583H5.6131H5.61442H5.61573H5.61705H5.61837H5.61947H5.62123H5.62255H5.62453H5.62607H5.62782L5.63178 9.64758L5.63596 9.64934L5.64013 9.6511C5.67794 9.66779 5.71619 9.68448 5.75532 9.70073L6.1477 9.63528C5.98171 9.5668 5.82019 9.48793 5.66409 9.39918V9.40005ZM6.73285 9.84591L6.4128 9.95815L6.49589 9.9834L6.50116 9.98494L6.50644 9.98648H6.50908H6.51171H6.51435H6.51677H6.51919L6.52402 9.9878H6.52644H6.52886H6.53128H6.53348H6.53589H6.53787H6.54029H6.54249H6.54491H6.54711H6.54908H6.55128H6.55304H6.55502H6.55678H6.55876H6.56051H6.56249H6.56359H6.56513H6.56645H6.56799H6.56909H6.57107H6.5726H6.5737H6.57568H6.57722H6.57942H6.58074H6.58228H6.58382H6.58491H6.58645H6.58777H6.58931H6.59041H6.59195H6.59349H6.59459H6.59591H6.59766H6.59898H6.60008H6.6014H6.60316H6.60448H6.60558H6.60756H6.60887H6.60997H6.61195H6.61327H6.61547H6.61701H6.61921H6.6214H6.6225H6.62382H6.62624H6.62778H6.6302H6.63174H6.63415H6.63569H6.63855L6.64339 9.98911L6.64844 9.99043H6.6513H6.65306H6.65614H6.65767H6.66075L6.66581 9.99175L6.67064 9.99307H6.6735H6.67526H6.67812H6.67988H6.68273L6.68757 9.99439L6.69263 9.9957H6.6957H6.69724H6.70076H6.70252H6.70581L6.71109 9.99724L6.71615 9.99856L6.72142 9.99988L6.73043 10.0023L6.73571 10.0038L6.74099 10.0054L6.74626 10.0067L6.75549 10.0091L6.76099 10.0106L6.76626 10.012L6.77154 10.0133L6.78055 10.0157L6.78583 10.017L6.7911 10.0183L6.79638 10.0199L6.80165 10.0212H6.80539L6.81089 10.0225L6.81616 10.0238L6.82144 10.0251H6.82474H6.82649H6.82979H6.83155H6.83485L6.84012 10.0265L6.84518 10.0278H6.84826H6.85089H6.85375H6.85551H6.85881L6.86386 10.0289L6.86892 10.0302H6.872H6.87463H6.87727H6.87881H6.88167H6.88453H6.88716L6.892 10.0315H6.89464H6.89618H6.89881H6.90013H6.90233H6.95443H6.95575H6.95707H6.95926H6.96168H6.96344H6.96608H6.96806H6.96938H6.9707H6.97311H6.97421H6.97553H6.97685H6.97883H6.98125H6.98279H6.98454H6.98586H6.98718H6.98916H6.99048H6.9918H6.99378H6.9951H6.99839H6.99993H7.00169H7.00279H7.00455H7.00587H7.00763H7.00982H7.0118H7.014H7.0151H7.01664H7.02037H7.02257H7.02433H7.02675H7.02851H7.02983H7.03159H7.034H7.03576H7.03818H7.03994H7.04236H7.04455H7.04697H7.04961H7.05203H7.05445H7.05686H7.0595L7.02675 10.0416L7.06456 10.0315L7.03818 10.0416L7.04961 10.0526L7.05445 10.0636H7.04455L7.04697 10.0746H7.08346L7.39055 9.91422C7.15424 9.86041 7.0373 9.86847 6.82649 9.80346L6.73285 9.84591ZM8.15068 10.1692L7.94493 10.3074C7.98786 10.3144 8.0311 10.3212 8.07462 10.3278H8.081H8.08693H8.09265H8.09551H8.09924H8.10188H8.11287H8.11463H8.12408H8.12672H8.12892H8.13178H8.13551H8.13837H8.14079H8.14365H8.14738H8.15024H8.1531H8.1564L8.16255 10.3289H8.16871H8.17508C8.37951 10.3582 8.58937 10.3842 8.80464 10.4069L8.94554 10.2599C8.67165 10.2316 8.40171 10.196 8.14343 10.1543L8.15068 10.1692ZM9.79382 10.3401L9.72128 10.4921H9.77338H9.77997H9.79734H9.80459L9.82658 10.4932C10.0968 10.5055 10.3721 10.5121 10.6524 10.5129L10.656 10.3592C10.3669 10.3592 10.0769 10.3506 9.79382 10.3361V10.3401ZM12.3633 10.2834C12.0881 10.3107 11.8043 10.3311 11.5192 10.3443L11.5851 10.4967L11.673 10.4925H11.6803H11.6873H11.7025H11.7069H11.8419H11.8603H11.8671H11.874H11.8808H11.8878C12.094 10.4796 12.2965 10.4633 12.4954 10.4435L12.3615 10.2959L12.3633 10.2834ZM13.922 10.0418C13.6828 10.0945 13.4298 10.1418 13.17 10.1822L13.3694 10.3214C13.5225 10.2977 13.6721 10.272 13.8183 10.2443L13.8402 10.2399L13.8462 10.2388H13.8521H13.8578H13.8616H13.8638H13.8673H13.869H13.8726H13.878H13.8835H13.8866H13.8899H13.8928H13.8943H13.9007H13.9029H13.9055H13.9071H13.9104H13.9117H13.9139H13.9178H13.92H13.9214H13.9229H13.9253H13.9279H13.9295H13.9315H13.9343H13.9359H13.9387H13.9409H13.9429H13.9453H13.9473H13.9497H13.9517H13.9541H13.9563H13.9587H13.9611H13.9636H13.9662H13.9686H13.9713H13.9734H13.9761H13.9783H13.9809H13.9833H13.986L13.9915 10.2377H13.9943H13.9972H14.0003H14.0031H14.006H14.0088H14.0119L14.0179 10.2364L14.0236 10.2353L14.0295 10.2342L14.0357 10.2329C14.0787 10.224 14.1215 10.2148 14.1638 10.2052L13.9227 10.0414L13.922 10.0418ZM15.197 9.65922C15.0152 9.7328 14.8151 9.80243 14.6034 9.86612L14.9182 9.97989C15.1486 9.91092 15.3631 9.83625 15.5603 9.75652L15.1976 9.65878L15.197 9.65922ZM16.0751 9.17054C15.955 9.26663 15.8266 9.35202 15.6916 9.42575L16.0938 9.50416C16.1176 9.49098 16.1409 9.47781 16.1637 9.46441L16.1659 9.46309H16.167L16.169 9.46199H16.1703H16.1716H16.173H16.1745H16.1758H16.1773H16.1789H16.1804H16.182H16.1835H16.185H16.1866L16.1883 9.46089L16.2088 9.43761L16.2123 9.43564C16.269 9.40109 16.3227 9.36601 16.3734 9.33043L16.3765 9.32823L16.3794 9.32604L16.3822 9.32384L16.3851 9.32165L16.3866 9.32055H16.3879H16.3893H16.3906L16.3919 9.31945H16.3932H16.3945H16.3956H16.3969H16.3983H16.3994H16.4007H16.4018L16.4042 9.31747L16.4068 9.3155L16.4095 9.31352C16.4343 9.29485 16.4585 9.27618 16.4816 9.25729L16.0483 9.19931L16.0751 9.17054ZM16.4756 8.6186C16.4479 8.72 16.4014 8.81528 16.3385 8.89951L16.7931 8.93531C16.8156 8.90449 16.8365 8.87245 16.8555 8.83933L16.8568 8.83713V8.83581V8.8345V8.8334V8.83186V8.83076V8.82966V8.82747C16.8569 8.82683 16.8569 8.82615 16.8568 8.82549V8.82329V8.8211L16.8579 8.8189C16.8831 8.76944 16.9033 8.71756 16.9181 8.66406V8.66296V8.66164V8.66055V8.65923V8.65813V8.65703L16.4523 8.64407L16.4756 8.6186ZM16.8243 8.01855L16.3671 8.05084C16.4244 8.13634 16.4644 8.23221 16.4849 8.33307L16.9513 8.32341C16.9474 8.30144 16.9425 8.28124 16.9366 8.26037V8.25796V8.25554V8.25444V8.25334V8.25225V8.25115V8.24214V8.2305V8.2294V8.22809V8.22677V8.22523V8.22369V8.22216V8.21974C16.9365 8.21895 16.9365 8.21814 16.9366 8.21732V8.21491V8.21249C16.9366 8.21249 16.9366 8.21095 16.9366 8.21008C16.9365 8.20929 16.9365 8.20847 16.9366 8.20766C16.9131 8.14849 16.8836 8.09182 16.8487 8.03854L16.8243 8.01855ZM16.1648 7.44465L15.7573 7.51998C15.8868 7.59464 16.0091 7.68104 16.1228 7.77805L16.5605 7.72446L16.5297 7.69833L16.5282 7.69701L16.5264 7.69569L16.5251 7.69459H16.524H16.5229H16.5216L16.5205 7.6935H16.5192H16.5181H16.5167L16.5154 7.6924L16.5128 7.69042L16.5099 7.68822C16.4073 7.6076 16.2992 7.53422 16.1864 7.46859L16.1648 7.44465ZM15.0218 6.96014L14.6991 7.07149C14.9075 7.13738 15.1027 7.2081 15.2792 7.28278L15.6482 7.18834C15.5615 7.15159 15.4711 7.11586 15.377 7.08115L15.3722 7.0794L15.3678 7.07786L15.3634 7.07632H15.3612H15.3592H15.357H15.3552H15.353H15.3515H15.3495H15.3478H15.346H15.3442H15.3427H15.3407H15.339H15.3379H15.3363H15.335H15.333H15.3317H15.3295L15.3253 7.07479L15.3209 7.07325H15.3179H15.3163H15.3132L15.3086 7.07171L15.304 7.06995C15.2181 7.03964 15.1296 7.01037 15.0385 6.9821L15.0218 6.96014ZM13.4978 6.60696L13.2887 6.74489C13.5457 6.78706 13.7954 6.83626 14.0308 6.89073L14.2999 6.76488C14.1728 6.7356 14.0424 6.70771 13.9086 6.6812L13.9024 6.67988L13.8963 6.67878L13.8743 6.67439L13.8682 6.67329L13.8618 6.67198H13.8587L13.846 6.66956L13.8398 6.66846L13.8336 6.66714L13.8117 6.66297H13.8053L13.7989 6.66165L13.7925 6.66055L13.7831 6.6588L13.7767 6.65748L13.7703 6.65638H13.764H13.7576L13.7479 6.65462H13.7418L13.7356 6.65353L13.7295 6.65243L13.7231 6.65133H13.7167H13.7136L13.7075 6.65023L13.7015 6.64913H13.6954L13.689 6.64804H13.6829H13.6798L13.6736 6.64694L13.6672 6.64584H13.6611H13.658H13.6552H13.6521H13.649H13.6461H13.6433H13.6404L13.6347 6.64474H13.6288H13.6257H13.6231H13.6202H13.6178H13.6149H13.6125H13.6097H13.6075H13.6048H13.6022H13.5998H13.5971H13.5949H13.5923H13.5903H13.5877H13.5855H13.5828H13.5817H13.5798H13.5754H13.5732H13.5688H13.5663H13.5624H13.56H13.5556H13.5534H13.5507H13.5485H13.527H13.5239H13.5206H13.5175H13.5156H13.5118L13.5059 6.64364H13.5011L13.4978 6.60696ZM11.7258 6.41786L11.6497 6.56985C11.9335 6.58522 12.216 6.60784 12.4892 6.63705L12.6334 6.49056C12.5732 6.48397 12.5127 6.47782 12.4519 6.47211H12.4455H12.4393H12.4363H12.3839H12.3809H12.3771H12.3703H12.3635H12.3565C12.1513 6.45366 11.9414 6.43859 11.7269 6.42686L11.7258 6.41786Z" fill="#FF922E"/>
<path id="Vector_35" d="M10.694 6.13438C11.6107 6.13208 12.5265 6.19298 13.4347 6.31668C14.2731 6.43353 15.0262 6.60067 15.6729 6.81371C16.3196 7.02676 16.8274 7.27494 17.182 7.55103C17.5491 7.83655 17.7353 8.14074 17.7353 8.45372C17.7353 8.7667 17.5491 9.07068 17.182 9.35664C16.8274 9.63272 16.3196 9.88091 15.6729 10.0937C15.0262 10.3066 14.2731 10.4741 13.4347 10.591C12.5264 10.7145 11.6107 10.7753 10.694 10.7731C9.7773 10.7753 8.86149 10.7145 7.95311 10.591C7.11473 10.4741 6.36163 10.3068 5.71492 10.0937C5.06822 9.88069 4.56066 9.6325 4.20587 9.35664C3.83877 9.07111 3.65259 8.76692 3.65259 8.45372C3.65259 8.14052 3.83877 7.83699 4.20587 7.55103C4.56066 7.27473 5.06822 7.02676 5.71492 6.81371C6.36163 6.60067 7.11473 6.43353 7.95311 6.31668C8.86147 6.19298 9.77728 6.13208 10.694 6.13438ZM10.694 6.09595C6.7406 6.09595 3.53564 7.15151 3.53564 8.45372C3.53564 9.75594 6.7406 10.8117 10.694 10.8117C14.6475 10.8117 17.8522 9.75594 17.8522 8.45372C17.8522 7.15151 14.6481 6.09595 10.694 6.09595Z" fill="#F7FAF6"/>
<path id="Vector_36" d="M10.694 6.2762C11.5543 6.27412 12.4136 6.33127 13.2659 6.4473C14.0531 6.55712 14.7607 6.71394 15.3674 6.91402C15.9741 7.11411 16.4511 7.34692 16.7841 7.60609C17.1288 7.87448 17.3035 8.15979 17.3035 8.45366C17.3035 8.74753 17.1277 9.03284 16.7841 9.30123C16.4511 9.56062 15.9745 9.79343 15.3674 9.99352C14.7602 10.1936 14.0531 10.3504 13.2659 10.4602C12.4136 10.5762 11.5542 10.6333 10.694 10.6313C9.83339 10.6334 8.97364 10.5762 8.12085 10.4602C7.33368 10.3504 6.62609 10.1934 6.01961 9.99352C5.41313 9.79365 4.93568 9.56062 4.60244 9.30123C4.25776 9.03284 4.08301 8.74775 4.08301 8.45366C4.08301 8.15957 4.25886 7.87448 4.60244 7.60609C4.93546 7.34692 5.41225 7.11389 6.01939 6.91402C6.62653 6.71416 7.33346 6.5569 8.12063 6.4473C8.9734 6.33122 9.83317 6.27405 10.6938 6.2762M10.6938 6.23755C6.9789 6.23755 3.96606 7.22986 3.96606 8.45366C3.96606 9.67746 6.97758 10.6698 10.6938 10.6698C14.4101 10.6698 17.4203 9.67768 17.4203 8.45366C17.4203 7.22964 14.4088 6.23755 10.6938 6.23755Z" fill="#F7FAF6"/>
<path id="Vector_37" d="M13.9785 9.28841C13.9085 9.27915 13.8374 9.29158 13.7747 9.324H12.7682L12.6257 9.45468C12.5941 9.48345 12.511 9.50278 12.418 9.50278L12.6128 9.32509H12.4653L12.3235 9.45446C12.2918 9.48323 12.209 9.50256 12.1158 9.50256L12.3101 9.32509H12.1641L12.0226 9.45424C11.9909 9.48301 11.908 9.50234 11.815 9.50234L12.0089 9.32509L10.9237 9.32619H10.1816C10.209 9.29193 10.3029 9.26799 10.4104 9.26799H10.9729L11.8344 8.26733H10.3154C9.91977 8.68288 9.52409 9.1518 9.12842 9.57833C9.06248 9.65037 9.2236 9.73888 9.45177 9.73954C10.8527 9.74481 12.2536 9.73449 13.6545 9.73954C13.7343 9.73954 13.8048 9.72241 13.8257 9.69693L14.1005 9.36375C14.1267 9.33212 14.0741 9.29808 13.9785 9.28841Z" fill="#FF922E"/>
<path id="Vector_38" d="M12.7797 7.16821H11.2234C11.0778 7.16821 10.9596 7.20712 10.9596 7.25614H11.7327C11.6964 7.28823 11.605 7.31 11.5012 7.31087L11.2045 7.31395C11.0711 7.45714 10.9376 7.60031 10.804 7.74348H12.2853L12.7049 7.2557H12.7458C12.8135 7.2557 12.8735 7.23921 12.881 7.21701C12.8885 7.19481 12.8441 7.17283 12.7797 7.16821Z" fill="url(#paint3_linear_48_2161)"/>
<path id="Vector_39" d="M14.0228 7.90734C14.0228 7.90295 14.0208 7.89877 14.0197 7.89438C13.9375 7.59282 13.1589 7.36353 12.2392 7.36353H9.57869C9.35755 7.36353 9.15994 7.40921 9.08454 7.47752L8.87505 7.64444H8.64314C8.4829 7.64444 8.33166 7.66882 8.23384 7.71033H9.55121L9.89523 7.71209C10.0665 7.71209 10.1885 7.76436 10.1625 7.81751L9.8517 8.09886H9.70531L10.0016 7.82827H9.90864L9.61232 8.09886H9.42526L9.72179 7.82827C9.23226 7.8252 8.83548 7.8219 8.34595 7.81883C8.22791 7.81883 8.11866 7.83947 8.06392 7.87374C8.04383 7.88531 8.02649 7.90112 8.01314 7.92008C7.9971 7.94534 8.06106 7.96906 8.13888 7.96576H8.14152C8.22637 7.96159 8.26286 7.93699 8.2655 7.93523H9.11795C9.11795 7.9572 9.06256 7.97609 8.99397 7.97609H8.54862C7.93137 8.58096 7.49899 9.01584 7.3194 9.15047C7.13981 9.28511 7.29302 9.34067 7.42359 9.36176C7.48367 9.37103 7.54438 9.37551 7.60516 9.37516H8.72975L9.47713 8.6552H9.25732C9.13752 8.6552 9.04036 8.62335 9.04036 8.58381H10.2957C10.8279 8.83046 11.3599 9.07975 11.8921 9.32662C12.4036 9.32662 12.9151 9.32398 13.4264 9.32398L11.6509 8.53703L12.2376 8.5423C13.1169 8.5423 13.8735 8.33255 14.0054 8.04637C14.0262 8.00317 14.0323 7.95434 14.0228 7.90734ZM9.50637 8.1955H9.33425L9.41822 8.11907H9.5899L9.50637 8.1955ZM9.74509 8.1955H9.6143L9.69761 8.11951H9.82818L9.74509 8.1955ZM10.5145 8.1955C10.3471 8.1955 10.1427 8.1955 9.90116 8.1955L9.98491 8.11995H10.5969L10.5145 8.1955ZM10.0076 8.09908L10.2977 7.83684C10.5468 7.83684 10.753 7.83838 10.9055 7.83859L10.6198 8.09908H10.0076ZM10.8081 8.19616H10.669L10.7527 8.11995H10.8923L10.8081 8.19616ZM10.7752 8.09908L11.0609 7.83859H11.2003L10.9145 8.09886L10.7752 8.09908ZM11.5826 8.15004C11.3778 8.18186 11.1708 8.19721 10.9635 8.19594L11.0473 8.11951C11.2038 8.12214 11.3379 8.12126 11.443 8.11951C11.639 8.11599 11.7287 8.1094 11.8151 8.09381C11.8502 8.08777 11.885 8.07993 11.9193 8.07031C11.8089 8.10519 11.696 8.13176 11.5817 8.14982L11.5826 8.15004ZM12.0165 8.002C11.9811 8.04593 11.8426 8.06789 11.7685 8.07866C11.6689 8.09359 11.5821 8.09557 11.412 8.09908C11.2779 8.10172 11.1616 8.10084 11.0697 8.09908L11.3539 7.83947C11.3924 7.83728 11.6991 7.8219 11.8925 7.88977C11.9178 7.89855 12.0587 7.94797 12.0156 8.00178L12.0165 8.002Z" fill="#FF922E"/>
<path id="Vector_40" d="M10.9046 7.83843C10.752 7.83843 10.5458 7.83843 10.2968 7.83667L10.0066 8.09913H10.6192L10.9046 7.83843ZM10.1068 8.07605L10.3456 7.86019L10.8048 7.86151L10.57 8.07605H10.1068Z" fill="white"/>
<path id="Vector_41" d="M9.61511 8.19544L9.74503 8.19522L9.829 8.11938H9.69842L9.61511 8.19544Z" fill="white"/>
<path id="Vector_42" d="M9.33423 8.19591H9.50635L9.58988 8.11963H9.4182L9.33423 8.19591ZM9.46744 8.14249H9.48942L9.45623 8.17261H9.43425L9.46744 8.14249Z" fill="white"/>
<path id="Vector_43" d="M14.0926 7.90591C14.0926 7.9013 14.0906 7.89691 14.0895 7.89252C14.0482 7.74119 13.8354 7.60128 13.4905 7.49893C13.1456 7.39658 12.7027 7.34058 12.2397 7.34058H9.57863C9.32935 7.34058 9.1047 7.39241 9.01897 7.46928L8.91499 7.5523L8.82816 7.62149H8.64308C8.46217 7.62149 8.28851 7.6496 8.17816 7.69682L8.09133 7.73394H9.55115L9.89384 7.7357C9.94616 7.73469 9.99826 7.74295 10.0477 7.76008C10.08 7.77282 10.097 7.78885 10.0959 7.804H9.85933L9.84263 7.81938L9.56302 8.07591H9.52499L9.63358 7.97708L9.78745 7.83629L9.82065 7.80598H9.72283L9.03194 7.80137L8.34698 7.79676H8.33929C8.19685 7.79676 8.06715 7.82245 8.00099 7.86396C7.97824 7.87721 7.95859 7.8952 7.9434 7.91668C7.93175 7.93491 7.94559 7.95358 7.9812 7.96807C8.02666 7.98388 8.07463 7.99133 8.12277 7.99003C8.1309 7.99003 8.13903 7.99003 8.14695 7.99003H8.15112C8.203 7.98894 8.25428 7.97868 8.30258 7.95973H8.49316L8.48261 7.97005C8.36288 8.08718 8.25026 8.19774 8.14475 8.3017C7.71193 8.72735 7.39891 9.03484 7.25558 9.14246C7.04676 9.29906 7.25207 9.36077 7.39297 9.38405C7.46331 9.39473 7.53438 9.39996 7.60554 9.39965H8.78046L8.79651 9.38405L9.54389 8.66409L9.57555 8.63356H9.25681C9.21239 8.63561 9.16814 8.62695 9.12778 8.60831H10.259C10.5181 8.72845 10.7813 8.85122 11.036 8.96982C11.2864 9.08667 11.5449 9.20703 11.7999 9.32541H11.8861C11.3556 9.07942 10.8254 8.83101 10.2952 8.58524H9.03985C9.03985 8.62478 9.13701 8.65663 9.25681 8.65663H9.47663L8.72925 9.37659H7.6051C7.54432 9.37694 7.4836 9.37246 7.42353 9.36319C7.29295 9.34123 7.13776 9.28785 7.31933 9.1519C7.5009 9.01595 7.93131 8.58085 8.54856 7.97774H8.99325C9.06183 7.97774 9.11723 7.95929 9.11723 7.93688H8.26477C8.26213 7.93864 8.22564 7.96324 8.14079 7.96741H8.12343C8.05265 7.96741 7.99747 7.94545 8.01352 7.92151C8.02686 7.90255 8.0442 7.88674 8.0643 7.87517C8.11815 7.84134 8.22454 7.82026 8.34039 7.82026H8.34632C8.83586 7.82333 9.23263 7.82663 9.72217 7.8297L9.42519 8.09897H9.61226L9.90857 7.82838H10.0016L9.70524 8.09897H9.85164L10.1625 7.81806C10.1884 7.76491 10.0664 7.71374 9.89516 7.71264L9.55115 7.71088H8.23378C8.3316 7.66893 8.48283 7.64499 8.64308 7.64499H8.87499L9.08447 7.47807C9.15987 7.40976 9.35749 7.36408 9.57863 7.36408H12.2397C13.1588 7.36408 13.9374 7.59338 14.0203 7.89493C14.0214 7.89933 14.0225 7.9035 14.0234 7.90789C14.033 7.95509 14.027 8.00418 14.006 8.04758C13.8741 8.3331 13.117 8.54351 12.2382 8.54351L11.6509 8.53714L13.4259 9.32344H13.5138L13.483 9.31026L12.4499 8.85298L11.7933 8.56218L12.2356 8.56614H12.2375C12.6803 8.56614 13.1098 8.5143 13.4465 8.42008C13.7833 8.32586 14.008 8.19407 14.0741 8.05043C14.096 8.00561 14.1025 7.95481 14.0926 7.90591ZM10.0941 7.81235L10.0627 7.84068L10.0677 7.83607L10.0943 7.81191L10.0941 7.81235Z" fill="white"/>
<path id="Vector_44" d="M9.90002 8.19505H10.0928H10.5133L10.5968 8.11987H9.984L9.90002 8.19505ZM10.033 8.14251H10.4968L10.4641 8.17219H10.0003L10.033 8.14251Z" fill="white"/>
<path id="Vector_45" d="M11.9184 8.07031C11.8841 8.07994 11.8493 8.08779 11.8142 8.09383C11.7263 8.10944 11.6384 8.11582 11.4421 8.11955C11.3847 8.11955 11.3185 8.12109 11.2442 8.12109C11.1831 8.12109 11.1167 8.12109 11.0464 8.11955L10.9626 8.19605C11.1699 8.19732 11.3769 8.18196 11.5817 8.15011C11.6957 8.13193 11.8083 8.10526 11.9184 8.07031ZM11.0651 8.17143L11.0956 8.14329C11.1458 8.14329 11.1961 8.14439 11.2458 8.14439C11.3117 8.14439 11.3803 8.14439 11.4467 8.14263H11.4665C11.3333 8.15976 11.1993 8.16936 11.0651 8.17143Z" fill="white"/>
<path id="Vector_46" d="M11.4111 8.09908C11.5812 8.09557 11.6681 8.09359 11.7677 8.07864C11.8417 8.06721 11.9802 8.04611 12.0156 8.00192C12.0596 7.94807 11.9178 7.89861 11.8916 7.8896C11.7637 7.84563 11.5863 7.83618 11.4698 7.83618C11.41 7.83618 11.3663 7.83838 11.3531 7.83926L11.0688 8.09908C11.119 8.09908 11.1763 8.10062 11.2399 8.10062C11.2928 8.10062 11.3509 8.10018 11.4111 8.09908ZM11.4045 7.86036C11.4223 7.86036 11.4445 7.85926 11.4705 7.85926C11.5804 7.85926 11.7325 7.8674 11.8413 7.90542C11.8835 7.92015 11.9785 7.95862 11.9486 7.99599C11.9215 8.02984 11.8072 8.04721 11.7389 8.05754C11.6529 8.07073 11.5797 8.07249 11.4076 8.076C11.3522 8.076 11.2961 8.07754 11.2405 8.07754H11.1678L11.4045 7.86036Z" fill="white"/>
<path id="Vector_47" d="M11.1987 7.83862H11.0593L10.7736 8.09933H10.9131L11.1987 7.83862Z" fill="white"/>
<path id="Vector_48" d="M10.8072 8.19615L10.8914 8.11987H10.7518L10.6681 8.19615H10.8072Z" fill="white"/>
<path id="Vector_49" d="M7.66931 6.12876C8.67634 5.99113 9.69168 5.92341 10.7081 5.92609V5.1875H10.694C9.30916 5.1875 7.99222 5.28092 6.79553 5.44996L7.66931 6.12876Z" fill="#F7FAF6"/>
<path id="Vector_50" d="M15.5096 5.5979L14.478 6.21046C15.3958 6.37804 16.1906 6.60163 16.8402 6.87442L18.5095 6.44327C17.6937 6.09911 16.6736 5.81139 15.5096 5.5979Z" fill="white"/>
<path id="Vector_51" d="M1.04358 9.29524V10.8024C1.35528 11.237 1.93077 11.6383 2.712 11.9866V10.3833L1.08688 9.23682C1.0715 9.25658 1.05743 9.27591 1.04358 9.29524Z" fill="#EDE8E8"/>
<path id="Vector_52" d="M6.36487 12.9882C7.52991 13.1747 8.82288 13.2882 10.1884 13.3108V11.7159L6.36487 11.3923V12.9882Z" fill="#EDE8E8"/>
<path id="Vector_53" d="M15.126 12.9713C16.34 12.771 17.4121 12.4912 18.2786 12.1525V10.6663L15.126 11.4471V12.9713Z" fill="#EDE8E8"/>
<path id="Vector_54" d="M20.6101 10.0488C20.6101 10.0453 20.6101 10.042 20.6101 10.0387V8.35742L20.4815 8.35852L20.3461 9.20499V10.7993C20.5184 10.5588 20.6101 10.3073 20.6101 10.0488Z" fill="#EDE8E8"/>
<path id="Vector_55" d="M18.495 8.45534C18.495 8.65498 18.4255 8.85353 18.2886 9.04549L20.3463 9.20495C20.5186 8.96335 20.6101 8.71209 20.6101 8.45358C20.6082 8.26261 20.5604 8.07491 20.4707 7.90625L18.3851 8.02266C18.4559 8.156 18.4936 8.30438 18.495 8.45534Z" fill="white"/>
<path id="Vector_56" d="M18.2786 10.6663L16.6992 10.2031C15.9989 10.4623 15.1638 10.669 14.217 10.817L15.126 11.4471C16.331 11.258 17.4018 10.9912 18.2786 10.6663Z" fill="white"/>
<path id="Vector_57" d="M6.36487 11.3928C7.52991 11.5797 8.82332 11.6933 10.1897 11.716L10.2996 11.0165C9.29505 11.0026 8.29272 10.9175 7.3002 10.7617L6.36487 11.3928Z" fill="white"/>
<path id="Vector_58" d="M1.04358 9.20733C1.35308 9.63892 1.92285 10.0376 2.69463 10.3841L4.37932 9.98528C3.76581 9.70415 3.3387 9.39095 3.10987 9.05469L1.04358 9.20733Z" fill="white"/>
<path id="Vector_59" d="M1.11804 7.60315L3.20917 7.79621C3.49142 7.46434 3.96798 7.15927 4.6259 6.88846L2.90142 6.43359C2.08458 6.77491 1.47063 7.17135 1.11804 7.60315Z" fill="white"/>
<path id="Vector_60" d="M7.66931 6.12876C8.67634 5.99113 9.69168 5.92341 10.7081 5.92609V5.1875H10.694C9.30916 5.1875 7.99222 5.28092 6.79553 5.44996L7.66931 6.12876Z" fill="white"/>
<path id="Vector_61" d="M28.0046 15.2946C28.023 15.2709 28.0415 15.2469 28.0595 15.2228L29.0913 13.8725L28.8238 13.7069C29.744 10.6603 27.6394 6.9463 23.806 5.10774C20.7024 3.61928 17.3475 3.78313 15.2254 5.29136L15.0786 5.20065L14.2965 6.13168C14.2619 6.17152 14.2279 6.21178 14.1947 6.25248L14.1813 6.26851C13.9413 6.56464 13.7365 6.88762 13.5711 7.23095C12.0543 10.3873 14.1784 14.554 18.3143 16.5375C22.018 18.3139 26.0792 17.7367 27.9764 15.3295L28.0046 15.2946Z" fill="url(#paint4_linear_48_2161)"/>
<path id="Vector_62" d="M29.2401 13.5854C30.7564 10.429 28.6327 6.26232 24.4968 4.27882C20.3609 2.29533 15.7789 3.24613 14.2626 6.40247C12.7464 9.55884 14.87 13.7255 19.006 15.709C23.1419 17.6925 27.724 16.7417 29.2401 13.5854Z" fill="#FF922E"/>
<path id="Vector_63" d="M26.3523 12.2005C27.2839 10.2613 25.9791 7.70136 23.4382 6.48272C20.8971 5.2641 18.082 5.84826 17.1504 7.78746C16.2188 9.72668 17.5236 12.2866 20.0646 13.5052C22.6057 14.7239 25.4207 14.1397 26.3523 12.2005Z" fill="white"/>
<path id="Vector_64" d="M17.0222 7.72202V7.72399V7.72575V7.72773V7.72926V7.73102V7.73278V7.73476V7.73629V7.73827V7.74003V7.74178V7.74354V7.7453V7.74705V7.74859V7.75035V7.75189V7.75364V7.75496V7.75694V7.75848V7.76045V7.76177V7.76353V7.76485V7.7666V7.76814V7.76968V7.771V7.77209V7.77385V7.77517V7.77693V7.77802V7.77956V7.7811V7.7822V7.78395V7.78527V7.78659V7.78769V7.78901V7.79032V7.79142V7.79274V7.79428V7.79603V7.79757V7.79867V7.80043V7.80152V7.80372V7.80504L17.0211 7.80745V7.80877L17.0195 7.81273L17.0178 7.81668L17.0162 7.82063V7.82195L17.0151 7.82459V7.8259L17.0138 7.82854V7.82986L17.0121 7.83425L17.0103 7.83864C17.0103 7.83996 17.0103 7.84128 17.0085 7.84282C16.9558 7.97196 16.9117 8.10447 16.8767 8.23948L17.2451 8.3673C17.2918 8.18817 17.3556 8.01393 17.4357 7.84699L17.0222 7.72202ZM16.7201 8.88388C16.7201 8.88893 16.7201 8.89421 16.7201 8.89926V8.90387C16.7201 8.90497 16.7201 8.90585 16.7201 8.90694V8.90848V8.91134V8.91287V8.91749V8.92188V8.92803V8.98162V8.98645V8.99853V9.00073V9.00292V9.00512V9.00732V9.00973V9.01193V9.01435V9.01654V9.01896V9.02379V9.02862C16.7201 9.03038 16.7201 9.03192 16.7201 9.03345V9.04224C16.7203 9.04384 16.7203 9.04547 16.7201 9.04707C16.7175 9.20112 16.7248 9.3552 16.7421 9.5083L17.1158 9.5441C17.0935 9.35232 17.0884 9.15893 17.1006 8.96625L16.7252 8.88366L16.7201 8.88388ZM16.865 10.1439C16.9255 10.3525 17.0013 10.5564 17.0916 10.7539L17.0936 10.7587L17.0958 10.7633L17.0969 10.7655V10.7675V10.7697V10.7714V10.7734L17.444 10.7148C17.356 10.5257 17.2825 10.3301 17.2242 10.1299L16.8595 10.1415L16.865 10.1439ZM17.4416 11.3904C17.5737 11.5942 17.7191 11.7892 17.8768 11.9739L18.1663 11.8263C18.0203 11.6553 17.8858 11.4749 17.7634 11.2862L17.4416 11.3904ZM18.3982 12.5136C18.5477 12.6502 18.7057 12.7812 18.8722 12.9067L18.877 12.9102L18.8816 12.9137L18.8862 12.9172L18.8908 12.9208L18.8955 12.9241L18.8999 12.9274L18.9043 12.9306L18.9065 12.9324L18.9084 12.9339L18.9104 12.9355L18.9122 12.9368L18.9141 12.9381L18.9157 12.9392L18.9177 12.9408L18.9192 12.9418C18.9197 12.9425 18.9203 12.943 18.921 12.9434L18.9223 12.9445L18.924 12.9458H18.9254L18.9271 12.9471H18.9282L18.9302 12.9484H18.9315L18.9331 12.9495L18.9346 12.9506H18.9359L18.9379 12.952H18.9392L18.9414 12.9535H18.9427L18.9451 12.955V12.9561L18.9473 12.9579H18.9487L18.9513 12.9599C18.9517 12.9603 18.9522 12.9607 18.9528 12.961L18.9559 12.9629L18.9608 12.9664L18.9691 12.9726L19.1746 12.7481C18.9915 12.6172 18.816 12.476 18.6488 12.3253L18.3985 12.5136H18.3982ZM19.6538 13.413C19.7154 13.4472 19.7779 13.4807 19.8413 13.5133L19.8466 13.5162L19.8521 13.5188L19.8576 13.5215L19.8609 13.5232H19.8627L19.8655 13.5245H19.8673L19.8701 13.5259H19.8717L19.8743 13.5272H19.8759L19.8783 13.5285H19.8798H19.8811H19.8831H19.8844H19.8864H19.8877L19.8899 13.5296H19.891H19.8923H19.8941H19.8956H19.8967H19.8983H19.8998H19.9014H19.9025H19.904H19.9055H19.9071H19.9088H19.9101H19.9117L19.9137 13.5307H19.915H19.9165L19.9187 13.5318H19.9205L19.9227 13.5329H19.9242L19.9264 13.534H19.9282H19.9304H19.9321H19.9343L19.9365 13.5351H19.9389L19.9411 13.5362L19.9436 13.5373L19.9458 13.5384L19.948 13.5395L19.9504 13.5406L19.9526 13.5417L19.955 13.5428L19.9572 13.5439L19.9598 13.5452L19.962 13.5463L19.9644 13.5476L19.9664 13.5487L19.9688 13.55L19.971 13.5511L19.9737 13.5522L19.9761 13.5533L19.9785 13.5546L19.9809 13.5559L19.9836 13.5573L19.986 13.5586L19.9884 13.5597L19.9904 13.5608L19.9928 13.5619H19.9948H19.9968L19.9992 13.563H20.0012L20.0034 13.5641H20.0053H20.0073H20.0097L20.0117 13.5652L20.0139 13.5663L20.0163 13.5676H20.0183L20.0205 13.5687H20.0229H20.0251L20.0275 13.5698H20.0299L20.035 13.5722L20.0374 13.5735L20.0425 13.5759L20.0502 13.5797L20.0554 13.5821C20.1141 13.6092 20.1723 13.6352 20.2302 13.6603H20.2328L20.2381 13.6625H20.2403L20.2427 13.6636H20.2447H20.2467H20.2487H20.2502H20.252H20.2537H20.255L20.2601 13.6658L20.3091 13.6862L20.4135 13.4057C20.3085 13.3618 20.2027 13.3148 20.0994 13.2652C19.9851 13.2102 19.871 13.1514 19.7609 13.0894L19.6538 13.413ZM21.1431 13.711L21.0936 14.0108C21.2503 14.0558 21.4068 14.0944 21.5632 14.1268L21.5689 14.1281H21.5746L21.5803 14.1294H21.5834H21.586H21.5889H21.5915H21.5942H21.5966H21.5992H21.6017H21.6043H21.6065H21.6091H21.6111H21.6135H21.6157H21.6179H21.6201H21.6225H21.6265H21.6282H21.6384H21.6397H21.6441H21.6456H21.6498H21.6515H21.6551H21.6575H21.661H21.6634H21.665H21.668L21.6733 14.1305L21.6786 14.1316L21.6839 14.1327H21.6894L21.7008 14.1347C21.7471 14.1432 21.7933 14.1512 21.8395 14.1588L21.8362 13.8656C21.6021 13.8278 21.3704 13.776 21.1424 13.7106L21.1431 13.711ZM22.528 13.9346L22.5908 14.2524C22.6042 14.2524 22.6179 14.2524 22.6313 14.2537H22.6972C22.8302 14.2562 22.9621 14.2539 23.0929 14.2469H23.0984H23.1039H23.1188H23.1235H23.165H23.1705H23.176C23.2246 14.2436 23.2731 14.2396 23.3215 14.2351L23.2041 13.9188C22.9799 13.9398 22.7544 13.9463 22.5293 13.9381L22.528 13.9346ZM23.8845 13.8962L24.0157 14.1165C24.0427 14.1101 24.0695 14.1033 24.0966 14.0965L24.1016 14.0951L24.1065 14.0938H24.1091H24.1115H24.114H24.1164H24.1188L24.1234 14.0925H24.1256H24.128H24.1302H24.1322H24.1346H24.1364H24.1386H24.1408H24.143H24.1449H24.1467H24.1489H24.1507H24.1526H24.154H24.1559H24.1575H24.1595H24.161H24.1623H24.1636H24.1654H24.1667H24.1685H24.1707H24.1724H24.1735H24.1748H24.1764H24.1777H24.179H24.1803H24.1817H24.1832H24.185H24.1861H24.1878H24.19H24.1918H24.1929H24.1948H24.1977H24.1999H24.2012H24.2023H24.2043H24.2063H24.2074H24.2087H24.2109H24.2138H24.2159H24.2173H24.2195H24.2208H24.2234L24.2278 14.0912L24.2324 14.0899H24.2353H24.2368H24.2395H24.241H24.2436L24.248 14.0886L24.2524 14.0872H24.2551H24.2564H24.259H24.2606H24.2632L24.2676 14.0859L24.2722 14.0844H24.2751H24.2766H24.2797H24.2812H24.2843L24.2889 14.0831L24.2935 14.0818L24.2982 14.0802L24.3063 14.0778L24.3111 14.0765L24.3157 14.0752L24.3204 14.0736L24.3285 14.071L24.3333 14.0695L24.3379 14.0679L24.3426 14.0666L24.3505 14.0642L24.3553 14.0626L24.3599 14.0611L24.3645 14.0593L24.3692 14.0578L24.3722 14.0567L24.3769 14.0552L24.3815 14.0534L24.3861 14.0519H24.3889H24.3905H24.3933H24.3949L24.398 14.0508L24.4026 14.0492L24.407 14.0477H24.4096H24.4109H24.4133H24.4149H24.4177L24.4221 14.0462L24.4265 14.0446H24.4292H24.4305H24.4327H24.434H24.4364H24.4377H24.4402L24.4443 14.0431H24.4465H24.4479H24.4501H24.4514H24.4531H24.4545H24.4562H24.4575H24.4591H24.4608H24.4619H24.4632H24.4652H24.4663H24.4681H24.4692H24.4705H24.472H24.4738H24.4751H24.4769H24.4782H24.4795H24.481H24.4824H24.4843H24.4859H24.4879H24.4892H24.4909H24.4925H24.4945H24.496H24.4973H24.4993H24.5008H24.5028H24.5044H24.5063H24.5079H24.5101H24.512H24.5142H24.5164H24.5184H24.5206H24.5226H24.5248H24.5268H24.529L24.5336 14.0413H24.5358H24.538H24.5402H24.5424H24.5446L24.5492 14.0396L24.5538 14.0376L24.5584 14.0356L24.5729 14.0297L24.3564 13.7371C24.1625 13.8157 24.088 13.8477 23.8845 13.8962ZM24.9805 13.3477L25.2403 13.6185C25.2682 13.6014 25.2959 13.5839 25.323 13.566L25.3269 13.5634L25.3306 13.561L25.3342 13.5586L25.3359 13.5573L25.3375 13.5562L25.3388 13.5551L25.3403 13.554H25.3416H25.3432H25.3445L25.3463 13.5529H25.3478H25.3493H25.3507L25.3524 13.5518H25.3539H25.3559L25.3577 13.5507L25.3594 13.5494L25.3634 13.5467L25.3671 13.5441L25.3711 13.5415C25.4949 13.457 25.6129 13.3644 25.7243 13.2645L25.4267 13.0229C25.2873 13.1433 25.1383 13.2517 24.9807 13.3471L24.9805 13.3477ZM25.8272 12.5887L26.1569 12.7978L26.1583 12.796L26.1596 12.7943V12.7932V12.7916L26.1609 12.7899V12.7888L26.1622 12.787V12.7859L26.1649 12.7826L26.1675 12.7791L26.1701 12.7756L26.1728 12.7721V12.771L26.1745 12.7686V12.7672L26.1774 12.7635L26.1857 12.7521C26.2899 12.6088 26.3816 12.4569 26.4599 12.2979L26.1081 12.1266C26.0262 12.2926 25.9286 12.4505 25.8164 12.5979L25.8272 12.5887ZM26.4084 11.0446C26.3946 11.2316 26.3629 11.4169 26.3141 11.5979L26.6817 11.7279C26.6867 11.7093 26.6918 11.6906 26.6964 11.6719V11.6675L26.6977 11.6631V11.6603V11.659C26.6977 11.6576 26.6977 11.6561 26.6977 11.6548V11.6519V11.6506V11.648V11.6467V11.6442V11.6421V11.6399V11.6339V11.6322V11.6293V11.6276V11.6247V11.6229V11.6183V11.6135V11.6089V11.6076V11.6058V11.603V11.6012V11.5983V11.5966V11.59V11.5885V11.5865V11.5849V11.583V11.5812V11.5792V11.5775V11.5755V11.568V11.5658V11.5639V11.5617V11.5575V11.5533V11.5489V11.5445V11.5401V11.5355C26.725 11.4021 26.7434 11.2672 26.7535 11.1314L26.4084 11.0446ZM26.2849 9.88058C26.339 10.073 26.377 10.2696 26.3985 10.4683L26.7722 10.5065C26.7601 10.3922 26.7425 10.2776 26.7195 10.1628C26.7195 10.1569 26.7173 10.151 26.7159 10.1452C26.7159 10.1437 26.7159 10.1422 26.7159 10.1406C26.7159 10.1391 26.7159 10.1376 26.7159 10.136C26.7159 10.1345 26.7159 10.1329 26.7159 10.1314V10.1283V10.1268V10.1239V10.1226V10.1198V10.1154V10.111V10.1083V10.1059V10.1037V10.1024V10.1007V10.0985V10.0974V10.0936V10.0919V10.0888V10.087V10.0837V10.082V10.0745V10.073V10.0706V10.0682V10.0664V10.0633V10.0613V10.0585V10.0565V10.0548V10.0526V10.0508V10.0488V10.0471V10.0451V10.0431V10.0411V10.0392V10.0374V10.0352V10.0334V10.0315V10.0297V10.0275V10.0231C26.7159 10.0223 26.7159 10.0215 26.7159 10.0207V10.0185V10.0163V10.0141V10.0119V10.0095V10.0071C26.7159 10.0056 26.7159 10.004 26.7159 10.0025C26.7159 10.0009 26.7159 9.99941 26.7159 9.99787L26.7146 9.99304C26.7146 9.99128 26.7146 9.98974 26.7146 9.98798C26.7058 9.95328 26.6966 9.91858 26.6869 9.88388L26.3216 9.89332L26.2849 9.88058ZM25.7608 8.72487C25.8773 8.90776 25.9809 9.09858 26.0706 9.29592L26.4187 9.23969C26.3218 9.02713 26.2099 8.82164 26.0842 8.62471L25.7608 8.72662V8.72487ZM24.8846 7.68051C25.0543 7.8377 25.2141 8.00523 25.3632 8.18215L25.6544 8.03653C25.6307 8.00842 25.6067 7.98046 25.5826 7.95263L25.5804 7.94978V7.94846L25.5784 7.94626L25.5773 7.94517L25.5757 7.94363V7.94253L25.5744 7.94121L25.5731 7.93967V7.93858L25.5718 7.93704V7.93594L25.5703 7.93418L25.5689 7.93265L25.5676 7.93089L25.5661 7.92891L25.5645 7.92738L25.5628 7.92562L25.5612 7.92408L25.5595 7.9221L25.5579 7.92035L25.5562 7.91859L25.5546 7.91683L25.5529 7.91486L25.5491 7.91068L25.5452 7.90651C25.4819 7.83607 25.4164 7.7666 25.3489 7.69808L25.3447 7.69412L25.3408 7.69017L25.3366 7.68622L25.3326 7.68226L25.3309 7.68029L25.3289 7.67831L25.3269 7.67633L25.3252 7.67458L25.3232 7.6726L25.3214 7.67084L25.3197 7.66908L25.3179 7.66755L25.3161 7.66579L25.3146 7.66403L25.3131 7.66228L25.3115 7.66052L25.3102 7.6592L25.3087 7.65744L25.3073 7.65613L25.3058 7.65437L25.3045 7.65305L25.303 7.65151L25.3014 7.6502V7.6491L25.3001 7.64778L25.2986 7.64624L25.297 7.64471V7.64361L25.2955 7.64207L25.292 7.63856L25.2882 7.63504C25.2871 7.63368 25.2858 7.63245 25.2845 7.63131C25.2487 7.59645 25.2122 7.56197 25.1746 7.52786L24.8846 7.68051ZM23.7297 6.8426C23.9392 6.96035 24.1417 7.09 24.3362 7.23091L24.5439 7.0082C24.4775 6.95989 24.4098 6.91266 24.341 6.86654L24.3362 6.86325L24.3331 6.86105H24.3316L24.3285 6.85907H24.3272L24.3248 6.85754H24.3232L24.3206 6.85578H24.3193H24.3179L24.3162 6.85446H24.3151L24.3133 6.85314H24.3122L24.3105 6.85204H24.3089L24.307 6.85073H24.3054L24.3034 6.84941H24.3019L24.2997 6.84809L24.2982 6.84699L24.296 6.84546L24.294 6.84436L24.2762 6.82393L24.274 6.82239L24.2694 6.81932L24.2645 6.81624L24.2597 6.81317L24.2549 6.81009L24.2498 6.8068C24.1401 6.73579 24.0273 6.66755 23.9117 6.6021L23.9091 6.60056L23.9064 6.59903L23.904 6.59749L23.9016 6.59595L23.8994 6.59463L23.897 6.59332L23.895 6.592L23.8928 6.59068L23.7339 6.84458L23.7297 6.8426ZM22.4517 5.98273L22.3991 6.28165C22.63 6.34926 22.8568 6.42993 23.0786 6.52325L23.1859 6.24388C23.1362 6.22191 23.0867 6.20281 23.0371 6.18304L23.0313 6.18084L23.0259 6.17865L23.0232 6.17755H23.0206H23.0182H23.0155H23.0133H23.0109H23.0087H23.0063H23.0043L23.0017 6.17645H22.9995H22.9971H22.9951H22.9931H22.9913H22.9896H22.9883H22.9865H22.985H22.9836H22.9819H22.9808H22.9793H22.9779H22.9762H22.9751H22.9735H22.9722H22.9705H22.9691H22.9672H22.9658H22.9645H22.963H22.9612H22.9597H22.9577H22.9564H22.9549H22.9533L22.9509 6.17535H22.9494L22.9465 6.17425H22.945L22.9417 6.17294H22.9399L22.9366 6.17162H22.9348L22.9311 6.1703H22.9294L22.9258 6.16898H22.9241L22.9203 6.16766H22.9184L22.9129 6.16547L22.9074 6.16349L22.9017 6.16151L22.8959 6.15932L22.8693 6.1211L22.8636 6.11912C22.7267 6.06905 22.5893 6.02396 22.4517 5.98383V5.98273ZM20.9534 5.73169L21.0134 6.0495C21.2455 6.05952 21.4767 6.08379 21.7058 6.1222L21.7019 5.81032L21.6331 5.79934H21.6296H21.6276H21.6243H21.6225H21.6195H21.6164H21.6137H21.5674H21.5647H21.5621H21.5592H21.5535H21.5478C21.3485 5.77122 21.1511 5.75306 20.9556 5.74487L20.9534 5.73169ZM19.5261 5.85754L19.6923 6.16503C19.9047 6.11618 20.1202 6.08214 20.3373 6.06312L20.2227 5.74772C20.1146 5.75717 20.0075 5.76969 19.9018 5.78594H19.8965H19.8912H19.8864H19.884H19.8358H19.8334H19.8288H19.8242H19.8209H19.8191H19.8158H19.8108H19.8057C19.7121 5.80191 19.6199 5.82049 19.5292 5.84173L19.5261 5.85754ZM18.2951 6.34754L18.553 6.61945C18.7255 6.51585 18.9062 6.42652 19.0933 6.35238L18.879 6.05894C18.7764 6.0998 18.6764 6.14432 18.5789 6.19248L18.5745 6.19468L18.5699 6.19688L18.5539 6.205L18.5495 6.2072L18.5449 6.20939L18.5427 6.21049L18.5336 6.21511L18.5292 6.2173L18.5249 6.21972L18.5092 6.22784L18.5048 6.23004L18.5005 6.23224L18.4958 6.23465L18.4892 6.23817L18.4848 6.24058L18.4804 6.24278L18.4761 6.24498L18.4717 6.24739L18.4651 6.25091L18.4607 6.25332L18.4565 6.25574L18.4521 6.25815L18.4477 6.26057L18.4433 6.26299L18.4411 6.2643L18.4369 6.2665L18.4327 6.2687L18.4286 6.27111L18.4242 6.27353L18.4198 6.27594H18.4176L18.4132 6.27836L18.409 6.28078L18.4048 6.28319L18.4029 6.28451L18.4007 6.28561H18.3987L18.3967 6.28671L18.3945 6.2878L18.3925 6.2889H18.3903L18.3864 6.2911L18.3824 6.29351L18.3804 6.29461H18.3785H18.3767H18.3749L18.3732 6.29571H18.3716H18.3699H18.3683H18.3666L18.3648 6.29681H18.3633H18.3613H18.36H18.3582H18.3569L18.3552 6.29791H18.3536H18.3519H18.3503H18.349H18.3475H18.3461H18.3446H18.3435H18.342H18.3409H18.3393H18.338H18.3369H18.3351H18.334L18.3321 6.29901L18.3297 6.30032L18.3257 6.30274L18.3226 6.3045L18.2951 6.34754ZM17.3706 7.16019L17.6979 7.37104C17.8135 7.22252 17.9429 7.08523 18.0843 6.96098L17.7885 6.71697C17.757 6.74464 17.7263 6.77254 17.6961 6.80131L17.6928 6.80438L17.6898 6.80724L17.6882 6.80856V6.80966V6.81075L17.6869 6.81207L17.6856 6.81339V6.81449L17.6843 6.8158L17.6829 6.81712L17.6814 6.81866L17.6801 6.8202L17.6786 6.82174L17.677 6.82327L17.6753 6.82481L17.672 6.8281L17.6687 6.8314L17.6654 6.83469C17.5658 6.93289 17.4729 7.0375 17.3871 7.14789L17.3706 7.16019Z" fill="#FF922E"/>
<path id="Vector_65" d="M16.4343 7.4443C16.6981 6.89653 17.0938 6.43244 17.611 6.06521C18.1111 5.71028 18.7029 5.46034 19.3696 5.32175C20.0363 5.18316 20.7463 5.16339 21.4776 5.26267C23.0289 5.48355 24.4744 6.17685 25.6173 7.24816C26.1523 7.75618 26.5803 8.32173 26.8898 8.92858C27.1993 9.53543 27.3734 10.1535 27.4097 10.7652C27.4466 11.3984 27.3318 11.9973 27.0687 12.5442C26.8056 13.0911 26.4093 13.5561 25.892 13.9233C25.3919 14.2782 24.8 14.5282 24.1335 14.6668C23.467 14.8053 22.7568 14.8251 22.0254 14.7258C20.4741 14.505 19.0286 13.8117 17.8858 12.7403C17.3519 12.2332 16.9226 11.6679 16.6133 11.0608C16.304 10.4537 16.1297 9.83589 16.0934 9.22421C16.0565 8.59101 16.1712 7.99228 16.4343 7.44517M16.3464 7.40278C15.2515 9.68039 16.7843 12.6883 19.7699 14.1201C22.7554 15.5519 26.0633 14.8668 27.1577 12.5875C28.2522 10.3081 26.7194 7.30109 23.7339 5.8693C20.7483 4.4375 17.4398 5.12342 16.346 7.40191L16.3464 7.40278Z" fill="#F7FAF6"/>
<path id="Vector_66" d="M16.7597 7.60026C17.0068 7.08588 17.3785 6.65034 17.8643 6.30442C18.3338 5.97123 18.8895 5.73644 19.516 5.60642C20.1425 5.4764 20.8086 5.45795 21.4944 5.55107C22.9514 5.75904 24.3087 6.41063 25.3817 7.41709C25.884 7.89413 26.286 8.42477 26.5764 8.99472C26.8668 9.56467 27.031 10.1447 27.0644 10.7189C27.0991 11.3134 26.9914 11.8757 26.7443 12.39C26.4972 12.9044 26.1255 13.34 25.6395 13.6848C25.1702 14.018 24.6145 14.2528 23.9878 14.3828C23.3611 14.5128 22.6953 14.5313 22.0094 14.4381C20.5522 14.2309 19.1945 13.5797 18.1213 12.5732C17.619 12.0962 17.2172 11.5655 16.9268 10.9956C16.6364 10.4256 16.472 9.8458 16.4386 9.27146C16.4038 8.67691 16.5116 8.11465 16.7588 7.60026M16.6709 7.55787C15.6422 9.69931 17.0829 12.5262 19.8888 13.8719C22.6948 15.2176 25.8035 14.5728 26.8322 12.4316C27.861 10.2903 26.4203 7.46321 23.6143 6.11751C20.8083 4.77181 17.7001 5.41666 16.6705 7.55787H16.6709Z" fill="#F7FAF6"/>
<path id="Vector_67" d="M24.5754 9.0204C24.5433 9.05005 24.5342 9.09837 24.6006 9.177L24.3239 9.75793L24.5822 9.98262C24.6395 10.0325 24.6604 10.1014 24.6347 10.155L24.2812 9.84754L24.2408 9.93254L24.4984 10.1568C24.5558 10.2066 24.5769 10.2756 24.551 10.3292L24.1992 10.0217L24.1588 10.1069L24.4158 10.3305C24.4731 10.3804 24.4942 10.4493 24.4685 10.5029L24.1168 10.1954L23.8185 10.8221L23.6134 11.2492C23.5424 11.1959 23.5138 11.1155 23.5435 11.0536L23.6992 10.7294L21.6406 9.13241L21.2207 10.0088C22.0639 10.6938 23.0298 11.4377 23.8981 12.1346C24.0445 12.2521 24.2922 12.2561 24.3573 12.1256C24.7571 11.3239 25.1212 10.5051 25.521 9.70346C25.543 9.65778 25.523 9.59782 25.4705 9.55784L24.7818 9.03226C24.7158 8.98218 24.6239 8.97515 24.5754 9.0204Z" fill="#FF922E"/>
<path id="Vector_68" d="M19.3823 7.37858L19.3801 7.37682L19.372 7.39395L18.9816 8.2066L18.9492 8.27249C18.909 8.35639 18.9655 8.46709 19.0754 8.5198L19.1581 8.34761L19.29 8.07416C19.3535 8.13017 19.3779 8.20594 19.3515 8.26766C19.3251 8.32938 19.3012 8.38385 19.2761 8.44205L20.1495 9.14488L20.5612 8.29336L19.5597 7.51541L19.5709 7.49169C19.5896 7.45282 19.5689 7.40032 19.5201 7.37155C19.4713 7.34278 19.4106 7.34717 19.3823 7.37858Z" fill="#FF922E"/>
<path id="Vector_69" d="M21.4212 7.4753L21.3907 7.46301C20.6765 7.17858 19.9355 7.37515 19.6809 7.90513L19.571 8.13245L18.9434 9.43884C18.8823 9.56622 18.932 9.73007 19.0681 9.84889L19.3925 10.1529L19.3283 10.2866C19.2844 10.3791 19.2982 10.4931 19.367 10.5954L19.7319 9.83616C19.7649 9.77013 19.798 9.70475 19.8313 9.64002C19.8812 9.5425 20.032 9.52845 20.1467 9.60181L20.7046 10.0898L20.6642 10.1742L20.1258 9.70569L20.1001 9.75928L20.6389 10.2282L20.5872 10.336L20.0489 9.86756C19.9062 10.1463 19.7893 10.3714 19.6466 10.6503C19.6123 10.7173 19.6308 10.8041 19.6945 10.8733C19.7225 10.9031 19.7537 10.9299 19.7875 10.953C19.8409 10.9901 19.913 10.9794 19.9269 10.931C19.9268 10.9305 19.9268 10.93 19.9269 10.9295C19.9407 10.8761 19.8946 10.828 19.8908 10.8245L19.921 10.7619L19.981 10.6369L20.1269 10.3332C20.1786 10.358 20.2052 10.4101 20.1863 10.4496L20.0632 10.7057C21.2777 11.7261 22.1558 12.4538 22.4152 12.7055C22.6746 12.9572 22.8439 12.9297 22.9287 12.8777C22.9639 12.8561 22.9918 12.8248 23.0094 12.7876L23.3209 12.139L21.8773 10.917L21.8164 11.0439C21.7833 11.1129 21.683 11.1338 21.5924 11.0903L21.734 10.7955L21.94 10.3668C22.6531 10.3314 23.3719 10.2989 24.085 10.2636C24.2268 9.96881 24.3624 9.67055 24.5039 9.37646L22.2099 9.53548L22.3845 9.20317C22.6278 8.69647 22.3563 8.02966 21.7367 7.63893C21.6363 7.57566 21.5308 7.52092 21.4212 7.4753ZM20.8314 10.3951L20.7844 10.4946L20.6321 10.3628L20.6795 10.264L20.8314 10.3951ZM20.8974 10.2572L20.8618 10.3321L20.7105 10.2003L20.7466 10.125L20.8974 10.2572ZM21.1106 9.81441C21.0636 9.91039 21.0064 10.0281 20.94 10.1676L20.7897 10.0358L20.9594 9.68263L21.1106 9.81441ZM20.749 10.0004L20.2283 9.54492C20.2999 9.4026 20.358 9.28421 20.4006 9.19658L20.9187 9.64727L20.749 10.0004ZM21.1935 9.64595L21.1715 9.68988L21.1541 9.7248L21.0022 9.59302L21.0407 9.51263L21.1935 9.64595ZM20.9616 9.5581L20.4428 9.10807L20.4815 9.0279L20.9994 9.47837L20.9616 9.5581ZM21.3021 9.14892C21.3241 9.31035 21.2895 9.43444 21.2361 9.5559L21.084 9.42412C21.1259 9.35068 21.1626 9.27444 21.1939 9.19592C21.2405 9.0793 21.2498 9.02021 21.2379 8.95432C21.2327 8.92415 21.224 8.89465 21.2119 8.86647C21.2571 8.95507 21.2873 9.0505 21.3012 9.14892H21.3021ZM21.0823 8.73601C21.1739 8.80497 21.1838 8.90798 21.1891 8.96311C21.1963 9.03713 21.1768 9.0894 21.1372 9.19109C21.1108 9.25935 21.0791 9.32544 21.0425 9.38876L20.5259 8.93939C20.5318 8.91501 20.5815 8.72151 20.7897 8.68439C20.8183 8.6789 20.9704 8.65189 21.082 8.73601H21.0823Z" fill="#FF922E"/>
<path id="Vector_70" d="M20.3996 9.19604C20.357 9.28397 20.299 9.40221 20.2273 9.54466L20.748 10.0006L20.9177 9.64709L20.3996 9.19604ZM20.7228 9.91727L20.2943 9.54226C20.3383 9.45433 20.3823 9.3664 20.4247 9.27848L20.8511 9.64975L20.7228 9.91727Z" fill="white"/>
<path id="Vector_71" d="M20.8608 10.3323L20.8964 10.2571L20.7456 10.1252L20.7096 10.2006L20.8608 10.3323Z" fill="white"/>
<path id="Vector_72" d="M20.7843 10.4949L20.8313 10.3953L20.6794 10.2634L20.632 10.3623L20.7843 10.4949ZM20.6986 10.3593L20.7047 10.3463L20.7649 10.3984L20.7586 10.4116L20.6986 10.3593Z" fill="white"/>
<path id="Vector_73" d="M21.4367 7.4335L21.4053 7.42054C21.0468 7.278 20.6676 7.24681 20.337 7.33269C20.0064 7.41857 19.756 7.61272 19.6278 7.87958L19.5179 8.1069L18.8906 9.41351C18.8215 9.55715 18.878 9.74296 19.0308 9.87759L19.1921 10.0287L19.3267 10.1548L19.2752 10.2615C19.2253 10.3656 19.2418 10.4967 19.3192 10.6129L19.3805 10.7039L19.4199 10.6217L19.7848 9.86244C19.8169 9.79787 19.8507 9.73198 19.8837 9.66697C19.8936 9.64928 19.9078 9.63437 19.9249 9.62359C19.9421 9.6128 19.9617 9.6065 19.982 9.60525C20.0222 9.60103 20.0627 9.60867 20.0987 9.62721L20.0727 9.68146L20.047 9.73505L20.0332 9.76338L20.0637 9.78974L20.5715 10.2316L20.561 10.2536L20.3642 10.0823L20.0844 9.83872L20.0242 9.78623L19.9956 9.84201C19.9239 9.98192 19.8589 10.1084 19.7936 10.2349C19.7283 10.3614 19.665 10.4849 19.594 10.6237C19.594 10.6252 19.5924 10.6265 19.5918 10.6279C19.5524 10.71 19.5757 10.813 19.6527 10.8969C19.6841 10.9311 19.7193 10.9617 19.7575 10.9881C19.7948 11.0145 19.8402 11.0268 19.8857 11.0228C19.9044 11.0219 19.9226 11.0162 19.9385 11.0062C19.9543 10.9963 19.9673 10.9824 19.9762 10.9659C19.9785 10.9612 19.9803 10.9564 19.9817 10.9514V10.9488C19.986 10.9278 19.9857 10.9063 19.981 10.8855C19.9762 10.8647 19.9671 10.8452 19.9543 10.8282L19.9736 10.7878L20.0066 10.7188L20.0286 10.7364C20.2642 10.9342 20.4864 11.1206 20.695 11.2956C21.551 12.0131 22.1696 12.5317 22.3767 12.7326C22.678 13.0252 22.8765 12.9742 22.968 12.9187C23.0091 12.8935 23.042 12.857 23.0627 12.8134L23.3749 12.1653L23.3887 12.1363L23.3573 12.11L21.9128 10.8873L21.8515 10.8352L21.8243 10.8919L21.7634 11.019C21.7541 11.0352 21.7403 11.0482 21.7236 11.0565C21.7069 11.0648 21.6882 11.068 21.6697 11.0656L21.7869 10.8214L21.9827 10.4135C22.3303 10.3962 22.6842 10.3795 23.0269 10.3632C23.3639 10.3472 23.7116 10.3307 24.0537 10.3138L24.0774 10.2644C23.3667 10.2995 22.6505 10.332 21.9399 10.3672L21.7339 10.7959L21.5923 11.0906C21.6829 11.1346 21.7831 11.1126 21.8163 11.0443L21.8772 10.9173L23.3208 12.1392L23.0093 12.7873C22.9917 12.8245 22.9638 12.8558 22.9286 12.8774C22.8438 12.9294 22.6769 12.9593 22.4151 12.7052C22.1533 12.4511 21.278 11.7258 20.0631 10.7065L20.1862 10.4502C20.2051 10.4106 20.1785 10.3586 20.1268 10.3338L19.9809 10.6375L19.9208 10.7625L19.8907 10.8251C19.8945 10.8286 19.9406 10.8767 19.9268 10.9301C19.9267 10.9306 19.9267 10.9311 19.9268 10.9316C19.9259 10.9347 19.9248 10.9377 19.9233 10.9406C19.9037 10.9815 19.8375 10.9887 19.7874 10.954C19.7538 10.9307 19.7227 10.9038 19.6949 10.8739C19.6322 10.8056 19.6133 10.7201 19.6452 10.6542C19.6452 10.6531 19.6463 10.652 19.647 10.6507C19.7896 10.372 19.9066 10.1469 20.0492 9.86815L20.5876 10.3366L20.6392 10.2288L20.1011 9.76031L20.1268 9.70672L20.6652 10.1752L20.7056 10.0909L20.1477 9.60283C20.033 9.52925 19.8822 9.54353 19.8323 9.64105C19.7988 9.70562 19.7657 9.77101 19.7329 9.83718L19.368 10.5965C19.2992 10.4941 19.2849 10.3801 19.3293 10.2877L19.3935 10.1539L19.0686 9.84904C18.9325 9.73022 18.8829 9.56637 18.944 9.43898L19.572 8.1326L19.6819 7.90528C19.9365 7.37552 20.6775 7.17873 21.3917 7.46315L21.4222 7.47545C21.5317 7.52107 21.6371 7.5758 21.7374 7.63908C22.3571 8.02981 22.6286 8.69662 22.3852 9.20332L22.2098 9.53562L24.5041 9.37727L24.5282 9.32675L24.488 9.32961L23.1537 9.42185L22.3052 9.48028L22.4371 9.22967C22.5595 8.97468 22.5595 8.67004 22.4371 8.372C22.3147 8.07396 22.0746 7.80095 21.7638 7.60328C21.6597 7.53765 21.5503 7.48086 21.4367 7.4335ZM20.1152 9.63534L20.1717 9.68454L20.1626 9.67663L20.1143 9.63468L20.1152 9.63534Z" fill="white"/>
<path id="Vector_74" d="M20.9391 10.168C20.9575 10.1292 20.9753 10.092 20.9922 10.0566C21.0362 9.96467 21.0753 9.88408 21.1096 9.81475L20.9584 9.68286L20.7887 10.0363L20.9391 10.168ZM20.8553 10.0333L20.9837 9.76573L21.0428 9.81739C21.009 9.88641 20.9742 9.95829 20.9393 10.0313L20.9129 10.0845L20.8553 10.0333Z" fill="white"/>
<path id="Vector_75" d="M21.2119 8.8667C21.2233 8.89433 21.2317 8.92315 21.2369 8.95265C21.2481 9.01969 21.2389 9.07838 21.193 9.19445C21.1793 9.22874 21.1626 9.26765 21.1424 9.31029C21.1253 9.34546 21.1059 9.38325 21.0835 9.42282L21.2356 9.55471C21.2892 9.43249 21.3235 9.30895 21.3016 9.14739C21.2873 9.04954 21.257 8.95469 21.2119 8.8667ZM21.2066 9.4703L21.151 9.42174C21.1661 9.3936 21.1809 9.36501 21.1949 9.33621C21.2134 9.29774 21.2308 9.25798 21.2466 9.21841L21.2512 9.20676C21.2549 9.29704 21.2397 9.38712 21.2066 9.4712V9.4703Z" fill="white"/>
<path id="Vector_76" d="M21.1369 9.19172C21.1765 9.08994 21.1961 9.03785 21.1888 8.96355C21.1836 8.90837 21.1737 8.80528 21.082 8.73626C20.9703 8.65207 20.8182 8.6791 20.7901 8.68416C20.7382 8.69304 20.6893 8.71452 20.6476 8.74672C20.6059 8.7789 20.5728 8.82082 20.5511 8.86881C20.5402 8.89138 20.5317 8.91503 20.5256 8.93937L21.0422 9.38912C21.0583 9.3612 21.0758 9.32889 21.0934 9.29218C21.1082 9.2625 21.1229 9.22821 21.1369 9.19172ZM20.5874 8.93299C20.5918 8.9198 20.597 8.90688 20.603 8.89431C20.6217 8.85214 20.6505 8.81522 20.6868 8.78673C20.7231 8.75826 20.7658 8.73911 20.8112 8.73098C20.8567 8.72285 20.971 8.71032 21.0486 8.76879C21.1185 8.82155 21.1266 8.90662 21.1315 8.95739C21.1376 9.02136 21.1218 9.06576 21.0818 9.16864C21.069 9.20183 21.0547 9.23458 21.0394 9.2669C21.0325 9.28075 21.0257 9.29459 21.0185 9.30844L20.5874 8.93299Z" fill="white"/>
<path id="Vector_77" d="M20.4814 9.02734L20.4427 9.10824L20.9606 9.5593L20.9993 9.47885L20.4814 9.02734Z" fill="white"/>
<path id="Vector_78" d="M21.1925 9.64617L21.0387 9.51318L21.0009 9.59364L21.1527 9.72553L21.1701 9.69058L21.1925 9.64617Z" fill="white"/>
<path id="Vector_79" d="M15.5821 9.18042C15.5403 8.47891 15.6672 7.81474 15.9593 7.20635L14.2667 6.39502L14.2627 6.40293C13.8794 7.20064 13.729 8.06292 13.7846 8.93817L15.5821 9.18042Z" fill="#F7FAF6"/>
<path id="Vector_80" d="M16.5386 4.0786L17.6572 5.34654C18.2947 5.00194 19.028 4.78955 19.8334 4.71532L19.3067 3.27979C18.2932 3.37203 17.3497 3.64306 16.5386 4.0786Z" fill="white"/>
<path id="Vector_81" d="M23.9159 5.50076C24.3696 5.71831 24.8031 5.97554 25.2115 6.26948L26.1468 5.25916C25.2478 4.61265 24.2553 4.10687 23.2037 3.75928L22.8933 5.08894C23.2426 5.20436 23.5842 5.3419 23.9159 5.50076Z" fill="white"/>
<path id="Vector_82" d="M28.7781 8.1084L27.2789 8.50923C27.6792 9.198 27.9215 9.90633 27.9991 10.6149L29.6954 10.784C29.5958 9.88151 29.2802 8.9709 28.7781 8.1084Z" fill="white"/>
<path id="Vector_83" d="M27.9771 15.3302L28.0043 15.2944C28.0228 15.2707 28.0413 15.2468 28.0593 15.2226L29.0911 13.8723L27.2921 15.7214L27.3361 16.0032C27.5697 15.7987 27.7843 15.5735 27.9771 15.3302Z" fill="#EDE8E8"/>
<path id="Vector_84" d="M20.5364 17.3201C21.7054 17.5903 22.8605 17.6413 23.9255 17.4889L23.9627 16.7275L20.8076 16.385L20.5364 17.3201Z" fill="#EDE8E8"/>
<path id="Vector_85" d="M14.2834 13.1109C14.8785 14.0114 15.6797 14.846 16.6524 15.5501L17.1508 14.5783L14.9629 12.2644L14.2834 13.1109Z" fill="#EDE8E8"/>
<path id="Vector_86" d="M14.2634 6.40308L13.861 6.71276C13.7539 6.87953 13.6571 7.05262 13.571 7.2311C13.2092 7.98444 13.0549 8.79533 13.0854 9.62028L13.7847 8.93832L14.2634 6.40308Z" fill="#EDE8E8"/>
<path id="Vector_87" d="M27.2923 15.7217C28.0428 15.2552 28.6614 14.6349 29.0913 13.8726L27.5192 13.041C27.1875 13.6268 26.7118 14.1144 26.1051 14.4906L27.2923 15.7217Z" fill="white"/>
<path id="Vector_88" d="M20.8076 16.3848C21.883 16.6813 22.9541 16.7911 23.9627 16.7272L23.5147 15.3178C22.7 15.3617 21.8641 15.2642 21.0307 15.0264L20.8076 16.3848Z" fill="white"/>
<path id="Vector_89" d="M17.1507 14.5781L18.1722 13.5854C17.4908 13.0582 16.9217 12.4474 16.4836 11.7708L14.9629 12.2643C15.5195 13.1105 16.2585 13.9003 17.1507 14.5781Z" fill="white"/>
<path id="Vector_90" d="M15.5821 9.18042C15.5403 8.47891 15.6672 7.81474 15.9593 7.20635L14.2667 6.39502L14.2627 6.40293C13.8794 7.20064 13.729 8.06292 13.7846 8.93817L15.5821 9.18042Z" fill="white"/>
<path id="Vector_91" d="M7.06441 10.0088H6.86658V10.0747H7.06441V10.0088Z" fill="#FF922E"/>
</g>
<defs>
<linearGradient id="paint0_linear_48_2161" x1="4.03305" y1="10.5021" x2="12.3841" y2="13.2578" gradientUnits="userSpaceOnUse">
<stop stop-color="#D86C1A"/>
<stop offset="1" stop-color="#E87E25"/>
</linearGradient>
<linearGradient id="paint1_linear_48_2161" x1="11.1371" y1="9.79553" x2="9.83647" y2="14.9257" gradientUnits="userSpaceOnUse">
<stop stop-color="#FF922E"/>
<stop offset="1" stop-color="#FFC239"/>
</linearGradient>
<linearGradient id="paint2_linear_48_2161" x1="4.80268" y1="7.93885" x2="13.154" y2="10.6946" gradientUnits="userSpaceOnUse">
<stop stop-color="#D86C1A"/>
<stop offset="1" stop-color="#E87E25"/>
</linearGradient>
<linearGradient id="paint3_linear_48_2161" x1="11.9068" y1="7.23218" x2="10.6063" y2="12.3623" gradientUnits="userSpaceOnUse">
<stop stop-color="#FF922E"/>
<stop offset="1" stop-color="#FFC239"/>
</linearGradient>
<linearGradient id="paint4_linear_48_2161" x1="13.0822" y1="10.8226" x2="29.0913" y2="10.8226" gradientUnits="userSpaceOnUse">
<stop stop-color="#D86C1A"/>
<stop offset="1" stop-color="#E87E25"/>
</linearGradient>
</defs>
</svg>
