<svg width="15" height="19" viewBox="0 0 15 19" fill="none" xmlns="http://www.w3.org/2000/svg">
<path id="Combined Shape" opacity="0.5" fill-rule="evenodd" clip-rule="evenodd" d="M5.30227 1.78415L5.30192 1.78439C5.12903 1.904 4.95534 2.02416 4.78038 2.14484C4.79493 2.16415 4.80607 2.1806 4.81546 2.19444L4.81546 2.19445L4.81547 2.19446C4.83162 2.2183 4.84255 2.23442 4.85661 2.24416L5.26033 2.52388L5.26035 2.52389C5.93474 2.99136 6.60911 3.45883 7.28978 3.91294C7.36471 3.96288 7.51503 3.92424 7.60164 3.86603C8.26855 3.41824 8.9306 2.9601 9.59257 2.50202L9.85549 2.3201C9.8969 2.29143 9.93475 2.25547 9.97437 2.21781L9.97438 2.2178C9.99323 2.19988 10.0125 2.18158 10.0327 2.16349C10.0178 2.14854 10.0065 2.13668 9.99739 2.12708C9.9823 2.11119 9.97311 2.10151 9.96273 2.09433L9.8046 1.98518C9.30324 1.63909 8.80187 1.29298 8.29981 0.948383C8.21277 0.888646 8.12551 0.815118 8.03815 0.741517C7.83441 0.569851 7.6302 0.397794 7.42736 0.399426C7.21042 0.401199 6.99305 0.576358 6.77753 0.750028L6.77753 0.750032C6.69254 0.818519 6.60783 0.886774 6.52356 0.944074C6.11679 1.22064 5.71178 1.50084 5.30227 1.78415ZM1.72762 4.24387C1.5464 4.36883 1.36329 4.4951 1.17771 4.62287C1.35773 4.74684 1.53598 4.86986 1.71289 4.99195C2.40447 5.46924 3.0756 5.93241 3.75226 6.38389C3.81936 6.42868 3.96033 6.37309 4.04426 6.31643C4.73841 5.84774 5.4286 5.37064 6.11873 4.89357L6.11877 4.89354L6.32538 4.75073C6.36088 4.72617 6.39296 4.69463 6.43006 4.65817C6.44909 4.63946 6.46944 4.61945 6.49225 4.59842L5.97151 4.24008L5.97141 4.24001L5.97134 4.23996C5.30116 3.77855 4.64318 3.32554 3.98143 2.88049C3.91344 2.83478 3.78599 2.83591 3.71776 2.8819C3.06078 3.32457 2.40753 3.77503 1.7277 4.24381L1.72764 4.24386L1.72762 4.24387ZM9.53662 7.44961L9.53649 7.4497C8.85933 7.91595 8.20634 8.36557 7.54972 8.8077C7.48025 8.85447 7.35245 8.86252 7.2854 8.81745C6.61641 8.36774 5.95135 7.90976 5.26752 7.43885L5.26748 7.43882L5.26733 7.43871L5.26726 7.43867L5.26721 7.43863L5.26716 7.4386C5.09155 7.31767 4.9147 7.19588 4.73623 7.07317L5.09473 6.82492L5.09519 6.8246C5.35516 6.64453 5.60561 6.47106 5.85634 6.29816C5.95726 6.22855 6.05808 6.15874 6.1589 6.08892C6.50984 5.8459 6.86076 5.60289 7.21593 5.369C7.29975 5.31383 7.44 5.26389 7.50823 5.30938C8.18271 5.7597 8.85186 6.22135 9.54163 6.69724L9.54183 6.69737L9.54189 6.69742C9.72147 6.82131 9.90244 6.94617 10.0853 7.07204C9.90269 7.19756 9.72232 7.32175 9.54364 7.44478L9.53662 7.44961ZM7.85484 12.813L7.85499 13.5093C8.04229 13.3806 8.22732 13.2538 8.41045 13.1282L8.41063 13.1281L8.41152 13.1275C9.09778 12.657 9.75752 12.2048 10.4112 11.7402C10.4851 11.6876 10.5278 11.5068 10.5289 11.385C10.537 10.4917 10.5354 9.59828 10.5339 8.70491L10.5332 8.31483C10.5331 8.25761 10.5271 8.20037 10.5196 8.1306L10.5196 8.13051L10.5196 8.1305L10.5196 8.13038C10.5157 8.09348 10.5114 8.05308 10.5074 8.00732L10.0324 8.33324L10.0324 8.33325L10.0323 8.33331L10.032 8.33356C9.33282 8.81314 8.65112 9.28075 7.9723 9.7543C7.91629 9.79329 7.86039 9.89925 7.85991 9.97456C7.8542 10.906 7.85451 11.8376 7.85484 12.813ZM6.32214 13.0591C6.52487 13.2028 6.72914 13.3477 6.93717 13.4902C6.94205 13.4576 6.94711 13.4297 6.95161 13.4049L6.95162 13.4048L6.95162 13.4048C6.9599 13.3592 6.96629 13.3238 6.96633 13.2885L6.96739 12.7366V12.7366V12.7366V12.7366V12.7366V12.7365V12.7365V12.7365V12.7365V12.7365V12.7365C6.9693 11.8376 6.97122 10.9388 6.95916 10.0403C6.95762 9.92451 6.85726 9.76796 6.76621 9.7034C6.12709 9.24969 5.48179 8.80833 4.83654 8.367L4.51337 8.14589C4.47242 8.11784 4.42787 8.0972 4.37476 8.0726L4.37475 8.07259L4.37474 8.07258C4.34721 8.05983 4.31738 8.04601 4.28455 8.02954C4.28455 8.31839 4.2884 8.60324 4.29221 8.88506C4.30095 9.53195 4.30947 10.1629 4.27074 10.7897C4.2296 11.4559 4.41147 11.8301 4.91349 12.1217C5.39334 12.4004 5.85366 12.7269 6.32214 13.0591ZM7.87929 18.3641C7.87601 18.3323 7.8722 18.3024 7.86856 18.2739C7.86121 18.2164 7.85457 18.1645 7.85446 18.1125C7.8537 17.7796 7.85374 17.4467 7.85378 17.1138V17.1137C7.85386 16.4241 7.85394 15.7344 7.84699 15.045C7.84467 14.8145 7.90923 14.6889 8.07864 14.5758C8.59097 14.2339 9.09886 13.8825 9.60676 13.531L9.6069 13.5309L9.60704 13.5308L9.60718 13.5308L9.60731 13.5307L9.60745 13.5306L9.60759 13.5305L9.60773 13.5304L9.60786 13.5303L9.608 13.5302C9.83249 13.3749 10.057 13.2195 10.2819 13.065C10.3247 13.0356 10.3697 13.0109 10.4277 12.9791C10.4589 12.9619 10.494 12.9427 10.5345 12.9196V14.2485C10.5345 14.4231 10.535 14.5976 10.5354 14.7722C10.5369 15.2794 10.5383 15.7866 10.5276 16.2935C10.5249 16.4195 10.4616 16.5989 10.3783 16.6586C9.73399 17.1211 9.08277 17.5699 8.43155 18.0186C8.28953 18.1165 8.1475 18.2143 8.00555 18.3123C7.98503 18.3265 7.96156 18.3346 7.93226 18.3447C7.91645 18.3502 7.89895 18.3562 7.87929 18.3641ZM6.43664 18.0521L6.9634 18.4159L6.96362 17.6973V17.6971C6.96406 16.7256 6.96448 15.801 6.95724 14.8765C6.95658 14.7962 6.88267 14.6868 6.81787 14.6415C6.01262 14.0792 5.2029 13.5258 4.39321 12.9724L4.39319 12.9724L4.39317 12.9724L4.39316 12.9724L4.39314 12.9724L4.39312 12.9724L4.3931 12.9724L4.39308 12.9724L4.39306 12.9724L4.38488 12.9668C4.37141 12.9576 4.35258 12.9595 4.32801 12.9621C4.31452 12.9634 4.29929 12.965 4.28227 12.965L4.28207 13.6546C4.28166 14.5672 4.28125 15.477 4.28731 16.3867C4.28785 16.4726 4.34179 16.5952 4.40213 16.6377C5.06753 17.1067 5.73646 17.5686 6.43664 18.0521ZM1.23196 5.88639L0.727062 5.53916C0.727062 5.79225 0.726873 6.04224 0.726685 6.28975C0.725957 7.24832 0.725258 8.16981 0.735717 9.09103C0.736784 9.18181 0.847337 9.29794 0.929911 9.35594C1.53534 9.78101 2.14441 10.1987 2.75344 10.6165L3.0773 10.8386C3.13618 10.879 3.19662 10.9161 3.26891 10.9605L3.26898 10.9605C3.307 10.9838 3.3483 11.0092 3.39438 11.0381L3.39453 10.3644V10.3644V10.3644V10.3644V10.3643V10.3643V10.3643C3.39487 9.3883 3.3952 8.44408 3.38892 7.4999C3.38845 7.42855 3.32259 7.33113 3.26498 7.29094C2.59946 6.8266 1.9314 6.36728 1.23196 5.88639ZM11.4239 11.0564L11.4238 10.3521V10.3518C11.4235 9.37891 11.4231 8.4503 11.4287 7.52173C11.4292 7.44713 11.4839 7.34209 11.539 7.30352C12.2087 6.83484 12.8811 6.3719 13.5828 5.88887L13.5829 5.8888L14.093 5.53748V6.39097C14.093 6.59419 14.0932 6.7974 14.0933 7.00062V7.00095C14.0938 7.65528 14.0943 8.30961 14.0892 8.96388C14.0884 9.06836 14.0632 9.22632 14.0039 9.26828C13.3325 9.74377 12.6559 10.209 11.9484 10.6955L11.9483 10.6956L11.9473 10.6963L11.9434 10.699C11.7722 10.8167 11.5992 10.9357 11.4239 11.0564ZM13.6416 4.62277L13.1364 4.97067C12.4396 5.4506 11.7662 5.91448 11.09 6.37271C11.033 6.41135 10.9281 6.41976 10.8737 6.38295C10.1864 5.91766 9.50209 5.44596 8.79618 4.95933L8.79595 4.95917L8.79581 4.95907L8.30032 4.61762C8.52354 4.46391 8.74472 4.31506 8.96348 4.16783L8.96349 4.16782C9.48188 3.81895 9.98673 3.47918 10.4732 3.10546C10.8398 2.82367 11.1115 2.83829 11.4726 3.1145C11.9552 3.48376 12.4554 3.82056 12.9731 4.16922L12.9731 4.16923L12.9732 4.16927L12.9732 4.16929L12.9733 4.16934C13.1929 4.31723 13.4156 4.46724 13.6416 4.62277ZM0.724087 10.4429L1.12493 10.7193C1.43383 10.9323 1.72055 11.1299 2.00745 11.3272C2.11866 11.4037 2.23022 11.4795 2.34177 11.5553L2.34188 11.5554C2.63246 11.7528 2.92301 11.9502 3.20741 12.1596C3.29134 12.2214 3.38459 12.3645 3.38577 12.4716C3.39612 13.3896 3.39414 14.3078 3.39215 15.226L3.39105 15.7842C3.39101 15.8045 3.38514 15.8248 3.37653 15.8546L3.37653 15.8547C3.37152 15.872 3.36559 15.8925 3.35933 15.9182C3.29107 15.8724 3.22373 15.8275 3.1571 15.7831L3.15659 15.7828L3.15643 15.7827C3.01541 15.6887 2.87754 15.5968 2.74065 15.5029L2.41285 15.2785C1.91574 14.9384 1.41865 14.5983 0.92658 14.2482C0.839797 14.1865 0.733986 14.0507 0.732742 13.9475C0.721921 13.0568 0.722743 12.1658 0.723607 11.2301C0.723845 10.9714 0.724087 10.7094 0.724087 10.4429ZM14.0932 11.132C14.0932 10.9096 14.0933 10.6813 14.0933 10.4445C13.9021 10.5761 13.7138 10.7054 13.5279 10.833C12.8468 11.3007 12.1976 11.7466 11.5543 12.2042C11.4795 12.2574 11.432 12.4329 11.4303 12.5529C11.4221 13.1264 11.4231 13.7001 11.424 14.2739C11.4243 14.4638 11.4247 14.6537 11.4246 14.8435V15.9159C11.4539 15.9031 11.4776 15.8937 11.4975 15.8858C11.5313 15.8724 11.554 15.8634 11.5743 15.8495C11.7211 15.7488 11.868 15.6483 12.0149 15.5479C12.6538 15.1108 13.2926 14.6737 13.925 14.2238C14.0108 14.1628 14.0822 13.9908 14.0875 13.866C14.101 13.5474 14.0983 13.2278 14.0956 12.9082C14.0945 12.7812 14.0934 12.6541 14.0933 12.5271C14.0931 12.0713 14.0932 11.6155 14.0932 11.132Z" fill="white"/>
</svg>
