<svg width="16" height="19" viewBox="0 0 16 19" fill="none" xmlns="http://www.w3.org/2000/svg">
<path id="Combined Shape" fill-rule="evenodd" clip-rule="evenodd" d="M4.20213 3.14868C4.10128 3.37079 3.97394 3.57745 3.82036 3.76132C3.65931 3.95389 3.4768 4.111 3.28112 4.23497C3.04728 4.38315 3.23212 4.70056 3.23212 4.70056C3.47146 5.13653 3.6897 5.57455 3.87013 5.95614L2.65877 7.40528H1.48276C1.25659 7.40528 1.07325 7.62497 1.07325 7.89582C1.07325 8.16654 1.25659 8.38623 1.48276 8.38623H2.82811C2.93699 8.38623 3.04105 8.33458 3.11784 8.24271L7.54473 2.94804C7.62162 2.85598 7.66476 2.73108 7.66476 2.60109V0.98254C7.66476 0.711571 7.48137 0.492312 7.25515 0.492312C7.02872 0.492312 6.84533 0.711508 6.84533 0.98254V2.39779L5.63878 3.84047C5.31311 3.61035 4.93456 3.32821 4.55948 3.01794C4.55942 3.01807 4.34456 2.83494 4.20213 3.14868ZM2.2661 3.55056C1.89766 3.55056 1.5514 3.37898 1.2907 3.06735C1.03047 2.75603 0.887207 2.34191 0.887207 1.90165C0.887207 1.46109 1.03052 1.04734 1.2907 0.736082C1.55135 0.424701 1.89766 0.252932 2.2661 0.252808C2.63434 0.252808 2.98064 0.424763 3.24108 0.736082C3.50153 1.0474 3.64499 1.46127 3.64499 1.90165C3.64499 2.34197 3.50147 2.75609 3.24108 3.06735C2.98069 3.37898 2.63434 3.55056 2.2661 3.55056ZM6.1227 6.95153C5.94112 6.73432 5.64402 6.73432 5.46244 6.95147L5.00565 7.49782C4.82407 7.71496 4.82407 8.07036 5.00565 8.28751L12.8034 17.6136C12.985 17.8308 13.3427 18.0312 13.5982 18.059L15.5095 18.2671C15.7652 18.2949 15.9552 18.0673 15.932 17.7613L15.7585 15.4774C15.7353 15.1714 15.5677 14.7433 15.3861 14.5261L7.58792 5.19889C7.40634 4.98175 7.10925 4.98175 6.92767 5.19889L6.47025 5.74598C6.28867 5.96313 6.28867 6.31853 6.47025 6.53574L12.9992 14.3453C13.0953 14.46 13.0954 14.6465 12.9993 14.7613C12.9035 14.8764 12.7477 14.8764 12.6515 14.7615L6.1227 6.95153Z" fill="#778090"/>
</svg>
