<svg width="11" height="19" viewBox="0 0 11 19" fill="none" xmlns="http://www.w3.org/2000/svg">
<path id="Shape" opacity="0.5" fill-rule="evenodd" clip-rule="evenodd" d="M9.03848 9.20144L9.88788 10.1324C10.1952 10.4674 10.4261 11.117 10.426 11.6112V15.2336C10.426 15.711 10.194 15.9246 9.95427 15.9246C9.83396 15.9246 9.719 15.875 9.59342 15.7773L7.95236 14.4998C7.89449 14.4548 7.83899 14.4 7.78599 14.3393L5.94168 17.9212C5.81564 18.1661 5.63006 18.306 5.43248 18.306C5.23496 18.306 5.04939 18.1646 4.92327 17.9198L3.07896 14.3355C3.02597 14.3963 2.97034 14.447 2.91246 14.492L1.27134 15.7615C1.14569 15.8592 1.0207 15.8929 0.900396 15.8929H0.899736C0.660048 15.8929 0.39502 15.711 0.39502 15.2337V11.6112C0.39502 11.117 0.647905 10.4674 0.95517 10.1324L1.82166 9.20136C1.80008 8.73685 1.79117 8.35948 1.79117 8.14943C1.79117 5.01418 3.04847 2.11348 5.15485 0.390121C5.23391 0.325313 5.33217 0.289551 5.43188 0.289551C5.53305 0.289551 5.62835 0.324298 5.70879 0.390199C7.81516 2.11356 9.07141 5.01426 9.07141 8.14943C9.07141 8.35955 9.06006 8.73685 9.03848 9.20144ZM4.18229 6.8405C4.18229 7.65787 4.74231 8.3204 5.43306 8.3204C6.12381 8.3204 6.68383 7.65787 6.68383 6.8405C6.68383 6.02313 6.12388 5.3606 5.43306 5.3606C4.74224 5.3606 4.18229 6.02321 4.18229 6.8405Z" fill="white"/>
</svg>
