<svg width="24" height="24" viewBox="0 0 24 24" fill="none" xmlns="http://www.w3.org/2000/svg">
<g id="Frame">
<path id="Vector" d="M9.95223 6.38116L11.2533 1.0449C11.3183 0.963582 11.3617 1.01102 11.3752 1.0449C11.6192 2.24767 12.1803 4.94799 12.473 6.12705C12.7657 7.30611 12.0529 7.53311 11.6599 7.49923H10.8874C10.0092 7.49923 9.89802 6.75385 9.95223 6.38116Z" fill="white"/>
<path id="Vector_2" d="M9.46444 17.7267L10.7655 23.0629C10.8305 23.1442 10.8739 23.0968 10.8875 23.0629C11.1314 21.8601 11.6925 19.1598 11.9852 17.9808C12.2779 16.8017 11.5651 16.5747 11.1721 16.6086H10.3996C9.52136 16.6086 9.41023 17.354 9.46444 17.7267Z" fill="white"/>
<path id="Vector_3" d="M5.24193 9.90852L1.98373 5.54423C1.96676 5.43325 2.03541 5.41803 2.07186 5.42429C3.19442 5.87968 5.72434 6.88891 6.8635 7.28261C8.00267 7.67632 7.66615 8.5086 7.3555 8.87553L6.7973 9.63522C6.16272 10.4988 5.49598 10.1772 5.24193 9.90852Z" fill="white"/>
<path id="Vector_4" d="M5.24193 13.5597L1.98373 17.924C1.96676 18.035 2.03541 18.0502 2.07186 18.0439C3.19442 17.5885 5.72434 16.5793 6.8635 16.1856C8.00267 15.7919 7.66615 14.9596 7.3555 14.5927L6.7973 13.833C6.16272 12.9693 5.49598 13.2909 5.24193 13.5597Z" fill="white"/>
<path id="Vector_5" d="M16.7581 9.90852L20.0163 5.54423C20.0332 5.43325 19.9646 5.41803 19.9281 5.42429C18.8056 5.87968 16.2757 6.88891 15.1365 7.28261C13.9973 7.67632 14.3339 8.5086 14.6445 8.87553L15.2027 9.63522C15.8373 10.4988 16.504 10.1772 16.7581 9.90852Z" fill="white"/>
<path id="Vector_6" d="M16.2652 13.5597L19.5234 17.924C19.5403 18.035 19.4717 18.0502 19.4352 18.0439C18.3127 17.5885 15.7827 16.5793 14.6436 16.1856C13.5044 15.7919 13.8409 14.9596 14.1516 14.5927L14.7098 13.833C15.3444 12.9693 16.0111 13.2909 16.2652 13.5597Z" fill="white"/>
<path id="Vector_7" d="M10.7534 17.3557C13.6815 17.3557 16.0551 14.9821 16.0551 12.0541C16.0551 9.12607 13.6815 6.75244 10.7534 6.75244C7.82541 6.75244 5.45178 9.12607 5.45178 12.0541C5.45178 14.9821 7.82541 17.3557 10.7534 17.3557Z" fill="white" stroke="#272F48" stroke-width="1.5"/>
<path id="Vector_8" d="M10.7195 14.1592C11.8876 14.1592 12.8345 13.2123 12.8345 12.0442C12.8345 10.8761 11.8876 9.9292 10.7195 9.9292C9.55141 9.9292 8.60449 10.8761 8.60449 12.0442C8.60449 13.2123 9.55141 14.1592 10.7195 14.1592Z" fill="white" stroke="#272F48"/>
</g>
</svg>
