<svg width="16" height="14" viewBox="0 0 16 14" fill="none" xmlns="http://www.w3.org/2000/svg">
<path id="Vector" d="M13.8866 13.6238C12.1691 13.5623 10.3083 13.2123 8.53078 12.5331C6.65881 11.818 5.05475 10.7946 3.69301 9.50244C1.9122 7.81305 0.767234 5.84555 0.264783 3.61037C0.0969284 2.86688 -0.00534069 2.12056 0.000216414 1.36288C0.0024404 0.972221 0.175852 0.751824 0.621612 0.658179C1.69766 0.433052 2.77704 0.220223 3.85753 0.014014C4.21103 -0.0531457 4.56341 0.127523 4.71014 0.417918C5.19481 1.37991 5.67836 2.3419 6.16192 3.30484C6.3231 3.6255 6.24529 3.93009 5.92626 4.15427C5.39824 4.52506 4.87355 4.8987 4.32886 5.25058C4.12321 5.38395 4.10431 5.48895 4.21881 5.67813C5.39268 7.61819 7.12791 9.07206 9.40896 10.0634C9.57236 10.1343 9.67241 10.1201 9.78468 9.99905C10.2149 9.5365 10.6562 9.08152 11.0886 8.62086C11.381 8.3106 11.7389 8.23871 12.1724 8.39857C13.2674 8.80153 14.3634 9.20165 15.4617 9.59987C15.8975 9.75784 16.0753 10.0397 15.9708 10.4294C15.7563 11.2259 15.5473 12.0233 15.3283 12.8188C15.1305 13.5368 14.9859 13.6285 13.8866 13.6238Z" fill="white"/>
</svg>
