<svg width="13" height="19" viewBox="0 0 13 19" fill="none" xmlns="http://www.w3.org/2000/svg">
<path id="Fill 1" opacity="0.5" d="M0.559168 4.47675V4.85416C0.559286 6.56713 0.560118 18.3167 0.560118 18.3167C0.644766 18.3268 3.76625 18.3496 5.26106 18.3322C5.41604 18.3305 5.62597 18.2345 5.71246 18.0961C5.89275 17.8077 5.72761 17.5873 5.51928 17.3954C4.66092 16.6046 4.72139 15.0987 5.63161 14.4513C6.31688 13.9637 7.17216 14.173 7.63609 14.9417C8.09343 15.6996 7.97326 16.7454 7.3594 17.3473C7.28336 17.4219 7.19461 17.4837 7.13266 17.572C6.945 17.8392 7.05793 18.2353 7.34259 18.3263C7.38945 18.3412 7.44066 18.3416 7.4899 18.3416C8.97491 18.3425 10.4599 18.3425 11.9449 18.3427H12.2599V17.999C12.2599 16.2743 12.258 14.5495 12.2617 12.8248C12.2623 12.551 12.242 12.2981 11.9917 12.1874C11.7346 12.0738 11.5928 12.2665 11.4509 12.482C10.8877 13.3368 9.88341 13.4332 9.22476 12.7033C8.59378 12.0042 8.60103 10.7924 9.24038 10.1032C9.89969 9.39247 10.8906 9.49096 11.4442 10.3307C11.5857 10.5453 11.7264 10.7431 11.9831 10.6382C12.2344 10.5355 12.2626 10.2851 12.262 10.0083C12.2578 8.27185 12.2599 6.53538 12.2599 4.7989V4.47689H11.9248C10.4794 4.47689 9.03402 4.47436 7.58863 4.47949C7.35435 4.48034 7.14513 4.44577 7.06036 4.14552C6.97946 3.85892 7.12666 3.69264 7.30249 3.53149C8.03296 2.86199 8.12284 1.6892 7.51117 0.898124C6.92576 0.141046 5.90386 0.13464 5.31761 0.884396C4.70238 1.67139 4.78418 2.85024 5.50823 3.52227C5.68157 3.6832 5.83893 3.84442 5.76307 4.132C5.67896 4.4507 5.45721 4.48069 5.21283 4.47971C3.76744 4.47393 2.322 4.47682 0.876615 4.47675H0.559168Z" fill="white"/>
</svg>
