<?xml version="1.0" encoding="UTF-8"?>
<!-- Uploaded to: SVG Repo, www.svgrepo.com, Generator: SVG Repo Mixer Tools -->
<svg width="800px" height="800px" viewBox="-1 0 36 36" version="1.1" xmlns="http://www.w3.org/2000/svg" xmlns:xlink="http://www.w3.org/1999/xlink">
    
    <title>slot</title>
    <desc>Created with Sketch.</desc>
    <g id="icons" stroke="none" stroke-width="1" fill="none" fill-rule="evenodd">
        <g id="ui-gambling-website-lined-icnos-casinoshunter" transform="translate(-473.000000, -412.000000)" fill="#FFF" fill-rule="nonzero">
            <g id="square-filled" transform="translate(50.000000, 120.000000)">
                <path d="M437.638889,292 C439.725298,292 441.416667,293.653102 441.416667,295.692308 L441.416667,295.692308 L441.416,296.615 L446.611111,296.615385 C448.69752,296.615385 450.388889,298.268487 450.388889,300.307692 L450.388,309.538 L453.222,309.538 L453.221882,303.842308 C452.1216,303.462057 451.333333,302.436385 451.333333,301.230769 C451.333333,299.701365 452.60186,298.461538 454.166667,298.461538 C455.731473,298.461538 457,299.701365 457,301.230769 C457,302.436282 456.211868,303.461882 455.111734,303.84221 L455.111111,310.440171 L455.111057,310.451436 C455.111093,310.454799 455.111111,310.458167 455.111111,310.461538 C455.111111,310.97134 454.697835,311.384615 454.188034,311.384615 L450.388,311.384 L450.388889,324.307692 C450.388889,326.346898 448.69752,328 446.611111,328 L426.777778,328 C424.691369,328 423,326.346898 423,324.307692 L423,300.307692 C423,298.268487 424.691369,296.615385 426.777778,296.615385 L431.972,296.615 L431.972222,295.692308 C431.972222,293.718883 433.55623,292.107054 435.549366,292.005118 L435.75,292 Z M446.611111,298.461538 L426.777778,298.461538 C425.734573,298.461538 424.888889,299.28809 424.888889,300.307692 L424.888889,324.307692 C424.888889,325.327295 425.734573,326.153846 426.777778,326.153846 L446.611111,326.153846 C447.654316,326.153846 448.5,325.327295 448.5,324.307692 L448.5,300.307692 C448.5,299.28809 447.654316,298.461538 446.611111,298.461538 Z M444.74359,316.923077 C445.253391,316.923077 445.666667,317.336353 445.666667,317.846154 C445.666667,318.355955 445.253391,318.769231 444.74359,318.769231 L439.034188,318.769231 C438.524387,318.769231 438.111111,318.355955 438.111111,317.846154 C438.111111,317.336353 438.524387,316.923077 439.034188,316.923077 L444.74359,316.923077 Z M443.305556,301.230769 C444.870362,301.230769 446.138889,302.470596 446.138889,304 L446.138889,310.461538 C446.138889,311.990942 444.870362,313.230769 443.305556,313.230769 L430.083333,313.230769 C428.518527,313.230769 427.25,311.990942 427.25,310.461538 L427.25,304 C427.25,302.470596 428.518527,301.230769 430.083333,301.230769 L443.305556,301.230769 Z M432.917,303.076 L430.083333,303.076923 C429.561731,303.076923 429.138889,303.490199 429.138889,304 L429.138889,310.461538 C429.138889,310.97134 429.561731,311.384615 430.083333,311.384615 L432.916902,311.38453 C432.916745,311.377455 432.916667,311.370361 432.916667,311.363248 L432.916667,303.098291 L432.917,303.076 Z M438.584,303.076 L434.805298,303.075998 C434.805469,303.083408 434.805556,303.090839 434.805556,303.098291 L434.805556,311.363248 L434.804,311.384 L438.583568,311.38453 C438.583412,311.377455 438.583333,311.370361 438.583333,311.363248 L438.583333,303.098291 L438.584,303.076 Z M443.305556,303.076923 L440.471964,303.075998 C440.472136,303.083408 440.472222,303.090839 440.472222,303.098291 L440.472222,311.363248 L440.471,311.384 L443.305556,311.384615 C443.827158,311.384615 444.25,310.97134 444.25,310.461538 L444.25,304 C444.25,303.490199 443.827158,303.076923 443.305556,303.076923 Z M454.166667,300.307692 C453.645064,300.307692 453.222222,300.720968 453.222222,301.230769 C453.222222,301.740571 453.645064,302.153846 454.166667,302.153846 C454.688269,302.153846 455.111111,301.740571 455.111111,301.230769 C455.111111,300.720968 454.688269,300.307692 454.166667,300.307692 Z M437.638889,293.846154 L435.75,293.846154 C434.706795,293.846154 433.861111,294.672705 433.861111,295.692308 L433.861111,295.692308 L433.861,296.615 L439.527,296.615 L439.527778,295.692308 C439.527778,294.721258 438.760717,293.925311 437.786504,293.851708 L437.638889,293.846154 Z" id="slot">

</path>
            </g>
        </g>
    </g>
</svg>