<svg width="15" height="17" viewBox="0 0 15 17" fill="none" xmlns="http://www.w3.org/2000/svg">
<path id="Combined Shape" opacity="0.5" fill-rule="evenodd" clip-rule="evenodd" d="M5.46763 0.793244C6.09026 0.562095 6.75146 0.437012 7.43676 0.437012C9.34781 0.437012 11.0686 1.41106 12.2844 2.9597C11.8697 4.37818 11.1789 5.8824 10.0447 6.86577C9.58942 4.09802 7.93177 1.69939 5.46763 0.793244ZM2.23418 3.36186C2.77147 2.5778 3.43116 1.91923 4.1776 1.42603C6.75854 1.79593 8.93602 4.19794 9.32769 7.37641C8.84981 7.65038 8.30415 7.83176 7.69061 7.90577C6.83236 5.32982 4.54768 3.87061 2.23418 3.36186ZM12.8679 3.81128C11.865 6.82354 10.0647 8.60301 7.69401 8.85371C7.26247 9.86995 7.05015 10.8371 7.04639 11.7344C10.269 11.9601 12.9406 9.43368 13.8013 6.05924C13.591 5.24562 13.2708 4.49106 12.8679 3.81128ZM7.10121 12.6764C10.2036 12.8428 12.8009 10.74 14.0706 7.76794C14.0849 7.98136 14.0978 8.1953 14.0978 8.41307C14.0978 12.3378 11.7162 15.6642 8.59389 16.323C7.79343 15.3299 7.26456 14.0549 7.10121 12.6764ZM6.26114 11.7599C6.26114 10.6827 6.49993 9.55947 7.01075 8.37416C6.79221 7.66214 6.44572 7.05042 6.01552 6.52466C3.55884 8.83014 3.18124 13.1322 5.17101 15.978C5.87213 16.2791 6.65005 16.4517 7.43665 16.4517C7.47577 16.4517 7.5142 16.4485 7.55263 16.4453C7.58135 16.4429 7.61006 16.4405 7.63907 16.4395C6.76551 15.1274 6.26114 13.4846 6.26114 11.7599ZM1.73 4.21708C3.05088 4.44364 4.41222 4.99032 5.42289 5.90084C3.11543 8.16873 2.43455 12.0386 3.75675 15.1562C1.93329 13.7317 0.723145 11.209 0.723145 8.41302C0.723145 6.87261 1.09586 5.4378 1.73 4.21708Z" fill="white"/>
</svg>
