<?xml version="1.0" encoding="utf-8"?>

<!DOCTYPE svg PUBLIC "-//W3C//DTD SVG 1.1//EN" "http://www.w3.org/Graphics/SVG/1.1/DTD/svg11.dtd">
<!-- Uploaded to: SVG Repo, www.svgrepo.com, Generator: SVG Repo Mixer Tools -->
<svg version="1.1" id="_x32_" xmlns="http://www.w3.org/2000/svg" xmlns:xlink="http://www.w3.org/1999/xlink" 
	 width="800px" height="800px" viewBox="0 0 512 512"  xml:space="preserve">
<style type="text/css">
<![CDATA[
	.st0{fill:#000000;}
]]>
</style>
<g>
	<path class="st0" d="M453.039,429.781c-2-7.516-4.828-14.25-8.328-20.25c-6.125-10.531-14.25-18.719-23.188-25.203
		c-6.719-4.875-13.906-8.828-21.188-12.266c-7.422-3.469-14.953-6.375-22.234-9.094c-7.547-10.656-19.516-27-19.188-53.359
		c0.219-16.984,1.547-21.391,1.813-70.516c4.031-3.344,7.844-7.531,11.125-12.75c4.328-6.813,7.781-15.25,10.141-25.719
		c0.656-2.906,0.969-5.781,0.969-8.594c0.016-5.953-1.391-11.625-3.75-16.656c-1.625-3.5-3.703-6.719-6.125-9.625
		c1.234-4.563,2.75-10.688,4.063-17.875c1.844-9.969,3.375-21.922,3.375-34.516c0-8.109-0.641-16.484-2.281-24.781
		c-1.234-6.203-3.047-12.359-5.625-18.266c-3.844-8.875-9.438-17.219-17.219-24.094c-7.203-6.406-16.25-11.469-27.141-14.75
		c-4.609-5.5-9.375-10.188-14.281-14.094c-8.281-6.625-17.016-11.047-25.906-13.719C279.195,0.969,270.18,0,261.211,0
		c-4.75,0-9.484,0.281-14.219,0.719c-4.438,0.375-8.125,0.844-11.422,1.406c-4.938,0.813-9,1.906-12.938,3.281
		c-3.953,1.359-7.75,2.938-12.719,4.906c-1.906,0.719-4.391,1.828-7.375,3.344c-5.234,2.656-11.953,6.531-19.172,11.906
		C172.57,33.625,160.648,45,151.336,60.406c-4.625,7.719-8.625,16.406-11.406,26.156c-2.813,9.75-4.438,20.5-4.438,32.25
		c0,7.344,0.641,15.094,2,23.203c0,0.578,0.016,1.094,0.063,1.641c0.063,1,0.156,2.078,0.266,3.156
		c0.172,1.625,0.375,3.281,0.516,4.688c0.078,0.719,0.141,1.344,0.172,1.813c0.016,0.25,0.047,0.453,0.047,0.594v0.172v0.047v0.938
		l1.984,8.828c-2.844,3.109-5.313,6.594-7.234,10.453c-2.672,5.313-4.266,11.313-4.266,17.688c0,2.813,0.313,5.719,0.969,8.594l0,0
		c1.578,6.969,3.641,13.063,6.109,18.344c3.734,7.969,8.422,14.188,13.656,18.813c0.469,0.438,0.969,0.875,1.469,1.266
		c0.25,49.172,1.578,53.578,1.797,70.563c0.328,26.375-11.656,42.703-19.188,53.375c-3.266,1.219-6.563,2.469-9.875,3.797
		c-8.281,3.313-16.656,7.031-24.625,11.75c-5.984,3.531-11.75,7.594-17.047,12.453c-7.938,7.266-14.781,16.313-19.5,27.547
		c-4.75,11.188-7.391,24.469-7.375,40.141c0,2.203,0.453,4.328,1.234,6.266c0.703,1.844,1.688,3.5,2.844,5.094
		c2.172,2.969,4.984,5.625,8.438,8.188c6.047,4.438,14.078,8.625,24.484,12.563c15.578,5.875,36.484,11.125,63.5,15
		C182.945,509.609,216.07,512,255.992,512c34.625,0,64.125-1.797,88.953-4.781c18.625-2.219,34.641-5.125,48.234-8.438
		c10.188-2.5,19.031-5.219,26.609-8.109c5.688-2.141,10.672-4.391,15-6.703c3.234-1.719,6.125-3.5,8.656-5.313
		c3.813-2.75,6.875-5.625,9.188-8.844c1.156-1.594,2.125-3.313,2.828-5.188c0.688-1.844,1.109-3.859,1.109-5.953
		C456.57,447.953,455.336,438.375,453.039,429.781z M179.508,361.844c3.047-1.813,6-3.75,8.734-5.938
		c2.922-2.344,5.641-4.984,8.016-7.938l54.391,25.25l-25.563,46.891L179.508,361.844z M260.273,465.094l-27.328-34.938
		l25.828-47.406l25.734,47.203L260.273,465.094z M291.961,419.156l-25.203-46.203l48.563-25.516
		c1.078,1.375,2.203,2.688,3.422,3.922c3.844,3.953,8.297,7.234,13.063,10.078L291.961,419.156z M351.117,225.313
		c-3.469,3.094-7.125,5.109-10.969,6.5l-3.688,1.359l-1.297,3.703c-4.031,11.313-7.938,20.406-11.859,27.719
		c-3.922,7.281-7.813,12.75-11.875,17.047l-1.594,1.703l-0.5,2.25c-1.813,8.344-3.625,17.563-3.625,28.469
		c0,3.375,0.172,6.875,0.563,10.578c0.438,4.328,1.422,8.391,2.922,12.141c0.063,0.188,0.141,0.344,0.219,0.531L258.617,364
		l-56.281-26.094c1.734-4.063,2.906-8.5,3.406-13.266v-0.016c0.375-3.688,0.547-7.188,0.547-10.547
		c0-10.922-1.797-20.172-3.625-28.516l-0.5-2.25l-1.594-1.688c-4.047-4.281-7.953-9.75-11.875-17.063
		c-3.906-7.281-7.813-16.375-11.828-27.688l-1.313-3.703l-3.688-1.328c-2.563-0.953-5.031-2.188-7.438-3.781
		c-3.594-2.406-7.016-5.719-10.141-10.641c-3.141-4.938-5.953-11.547-7.984-20.484l0,0c-0.375-1.688-0.547-3.328-0.547-4.906
		c0-3.563,0.875-6.969,2.5-10.234c1.344-2.688,3.203-5.234,5.5-7.547c3.828,5.813,7,10.406,8.156,11.563
		c3.766,3.766,4.297-5.094,2.5-15.047c-3.281-18.297,5.609-10.016,28.172-53.891c45.141,10.016,124.016-37.969,124.016-37.969
		s0.953,21.875,16,41.953c14.266,19.016,22.391,63.703,22.391,63.703s1.953-3.688,4.844-8.625c1.734,2.031,3.172,4.219,4.219,6.5
		c1.422,3.063,2.188,6.25,2.188,9.594c0,1.563-0.172,3.219-0.547,4.906c-1.344,5.953-3.063,10.875-4.969,14.969
		C357.867,218.016,354.57,222.219,351.117,225.313z"/>
	<path class="st0" d="M254.18,425.688c0,3.125,2.531,5.656,5.656,5.656c3.109,0,5.641-2.531,5.641-5.656
		c0-3.094-2.531-5.625-5.641-5.625C256.711,420.063,254.18,422.594,254.18,425.688z"/>
</g>
</svg>