<svg width="11" height="18" viewBox="0 0 11 18" fill="none" xmlns="http://www.w3.org/2000/svg">
<path id="Fill 1" opacity="0.5" fill-rule="evenodd" clip-rule="evenodd" d="M0.428416 0.760096C0.42789 1.0408 0.427377 1.3144 0.4295 1.58794C0.430654 1.73634 0.421493 1.88962 0.412326 2.043C0.390731 2.40431 0.369102 2.7662 0.482191 3.06619C0.589143 3.35005 0.820575 3.57546 1.05353 3.80235C1.17134 3.91708 1.28953 4.0322 1.39221 4.15544C1.53413 4.32565 1.68652 4.38376 1.89414 4.38296C2.35692 4.38136 2.81974 4.37869 3.28256 4.37601C4.9558 4.36635 6.62913 4.35669 8.30138 4.39767C8.98527 4.41444 9.46251 4.20497 9.92475 3.65848C10.2743 3.24505 10.4607 2.86397 10.4206 2.29552C10.3894 1.85267 10.3967 1.40656 10.404 0.956618C10.4071 0.759753 10.4103 0.562153 10.4103 0.36377H7.68645V1.33127H6.77752V0.368762H4.04757V1.32875H3.13585V0.373621H0.428895C0.428895 0.504337 0.428654 0.632945 0.428416 0.760096ZM2.25397 6.34967H8.57651V5.40247H2.25397V6.34967ZM1.36173 14.3421H9.48811V13.3837H1.36173V14.3421ZM10.3915 17.3793H0.447058V15.3888H10.3915V17.3793ZM2.31558 12.352H8.5244L7.77082 7.38452H3.0685L2.31558 12.352Z" fill="white"/>
</svg>
